<?xml version="1.0" encoding="utf-8"?>
<!-- Generator: Adobe Illustrator 25.2.0, SVG Export Plug-In . SVG Version: 6.00 Build 0)  -->
<svg version="1.1" id="Camada_1" xmlns="http://www.w3.org/2000/svg" xmlns:xlink="http://www.w3.org/1999/xlink" x="0px" y="0px"
	 viewBox="0 0 256 256" style="enable-background:new 0 0 256 256;" xml:space="preserve">
<style type="text/css">
	.st0{fill:#E24C0A;}
	.st1{opacity:0.3;}
	.st2{fill:#381800;}
	.st3{fill:#D34100;}
	.st4{fill:#DD4003;}
	.st5{fill:#DD5112;}
</style>
<g>
	<path class="st0" d="M185.52,34.79C168.51,29.14,165,7.91,143.76,12.44c-8.46,1.8-16.09-3.23-23.76-1.91
		c-10.69,1.83-18.71,10.74-29.41,11.33c-7.55,0.41-12.66,3.17-18.24,7.99c-3.89,3.36-5.89,8.1-10.31,11.08
		c-3.34,2.26-7.38,3.94-10.4,6.67C47,51.82,44.44,59.41,39.4,62.57c-8.48,5.31-9.76,17.01-15.97,24.25
		c-9.76,11.38-10.28,32.01-10.42,46.16c-0.14,13.89,0.73,31.03,11.57,40.84c2.8,2.54,3.16,12.02,5.3,15.94
		c2.68,4.9,7.93,8.81,12.66,11.54c1.28,0.83,2.57,1.65,3.84,2.49c14.87,9.89,21.26,26.89,40.04,31.9
		c8.37,2.24,16.76,3.57,25.29,5.03c8.97,1.53,15.11,6.41,24.45,4.57c6.25-1.23,11.48-7.28,15.17-11.93
		c5.41-6.82,13.17-1.81,19.57-4.98c5.94-2.93,11.42-6.51,16.27-11.01c2.74-2.53,4.6-6.71,6.38-9.89c3.69-6.6,8.45-4.69,13.25-8.87
		c11.27-9.83,18.31-28.49,20.27-43.16c2.33-17.48,20.27-26.12,14.94-45.96c-4.36-16.21-20.72-25.77-23.12-42.16
		C216.06,47.86,202.72,40.51,185.52,34.79z"/>
	<g class="st1">
		<path class="st2" d="M42.73,142.42c-3.12,2.5-3.4,7.84-3.11,11.42c0.33,4.21,1.98,8.38,4.15,11.96c2.05,3.39,4.56,5.62,8.23,6.35
			c2.89,1.47,5.99,1.49,8.48-1.69c4.54-5.81,2.73-14.33-0.08-20.41C57.37,143.49,49.68,136.85,42.73,142.42z"/>
		<path class="st2" d="M105.34,219.47c-0.45-2.2-1.93-4.37-3.59-5.79c-3.51-2.99-9.68-5.83-14.29-4.18
			c-4.64,1.66-1.81,8.07,0.45,10.33c2.63,2.63,6.12,4.29,9.75,5.15c1.39,0.55,2.83,0.82,4.15,0.51c2-0.15,3.5-1.71,3.72-3.74
			c0.06-0.48,0-0.91-0.04-1.35c0-0.03,0-0.06-0.01-0.09C105.45,220.03,105.4,219.75,105.34,219.47z"/>
		<path class="st2" d="M120.32,157.67c-3.35-2.06-6.68,0.31-6.34,4.2l0.01,0.01c-0.4,1.41,0.47,3.15,1.31,4.35
			c0.86,1.64,2.06,3.08,3.6,4.38c1.33,1.12,3.06,1.01,4.35-0.01c0.01-0.01,0.03-0.01,0.05-0.01
			C129.04,168.23,123.61,159.71,120.32,157.67z"/>
		<path class="st2" d="M147.8,207.64c-0.16-0.03-0.33-0.03-0.5,0.09c-0.09,0.03-0.21,0.03-0.3,0.06c-1,0.3-0.77,1.91-0.32,2.57
			c0.58,1.1,2.42,2.09,3.61,1.24c1.07-0.77,1.61-1.89,0.58-3.05C150.15,207.74,148.9,207.52,147.8,207.64z"/>
		<path class="st2" d="M197.47,159.82c-1.68,0.02-3.28,1.64-3.66,3.2c-0.52,2.16-0.41,4.24,0.57,6.26c0.32,0.65,0.72,1.22,1.13,1.82
			c0.16,0.24,1.21,1.78,0.47,0.64c0.78,1.2,1.99,2.77,3.58,2.96c2,0.25,3.18-0.72,3.84-2.11c3.09-2.08,2.17-6.55,0.28-9.18
			C202.26,161.44,199.99,159.8,197.47,159.82z"/>
		<path class="st2" d="M186.08,113.22c-1.59-0.62-3.62,0.21-4.4,1.74c-1.08,2.12-1.12,4.34-0.58,6.63c0.81,3.37,2.3,6.93,5.63,8.41
			c2.65,1.18,4.75-2.47,4.91-4.56c0.23-3,0.03-5.45-1.81-7.95c-0.06-0.08-0.14-0.12-0.21-0.19c-0.08-0.17-0.13-0.36-0.21-0.53
			C188.78,115.3,187.62,113.82,186.08,113.22z"/>
		<path class="st2" d="M129.35,95.64c-0.21-0.14-0.4-0.31-0.63-0.43c-0.48-0.25-0.95-0.41-1.41-0.5c-0.58-0.22-1.15-0.42-1.71-0.57
			c-2.34-0.63-4.31,0.83-4.81,3.14c-0.13,0.6-0.14,1.18-0.14,1.77c-0.64,0.66-0.9,1.68-0.56,3.2c1.16,5.21,5.62,6.86,10.33,7.62
			c2.37,0.39,5.2-0.04,6.2-2.48c0.87-2.12,0.25-4.4-0.9-6.27C134.36,98.91,131.93,96.97,129.35,95.64z"/>
		<g>
			<path class="st2" d="M89.73,95.31l-0.01,0.02c-0.07-0.1-0.16-0.18-0.25-0.27c-0.1-0.09-0.19-0.2-0.29-0.28
				c0.02,0.02,0.04,0.04,0.07,0.05c-0.1-0.09-0.17-0.19-0.27-0.27c-0.99-0.82-2.49-0.56-3.36,0.28c-1.47,1.41-1.46,3.52-1.1,5.36
				c0.01,0.06,0.02,0.12,0.04,0.18c0.25,1.29,1.33,2.69,2.62,3.08c1.27,0.37,2.18-0.3,2.93-1.2c0.43-0.01,0.83-0.17,1.07-0.66
				c0.55-1.1,0.41-2.29-0.07-3.37C90.92,97.13,90.42,96.08,89.73,95.31z"/>
			<path class="st2" d="M89.73,95.31c0-0.02-0.01-0.05,0-0.08c-0.17-0.13-0.32-0.26-0.47-0.4c0.08,0.08,0.15,0.16,0.22,0.23
				C89.56,95.15,89.65,95.22,89.73,95.31z"/>
		</g>
		<path class="st2" d="M62.38,77.43c-1.07,1.02-1.39,3.29-0.57,4.56c0.64,1.01,1.63,2.11,2.96,1.46c1.79-0.86,1.84-3.56,1.05-5.08
			C65.14,77.09,63.57,76.28,62.38,77.43z"/>
		<path class="st2" d="M153.18,45.47c-0.73,2.04-0.41,4.55,0.74,6.37c0.81,1.28,2.22,2.71,3.82,3.04c1.07,0.75,2.28,1.17,3.55,1.03
			c0.67,0.07,1.21,0.11,1.9-0.12c1.11-0.37,1.54-1.85,1.71-2.84c0.31-1.77-0.35-3.59-1.22-5.1c-0.38-0.66-0.83-1.3-1.31-1.89
			c0.85,1.06-0.39-0.64-0.73-0.99C159.2,42.29,154.7,41.21,153.18,45.47z"/>
		<path class="st2" d="M154,29.61c0.06,0.16,0.13,0.31,0.2,0.48c0.17,0.49,0.68,1.2,1.29,0.86c1.17-0.66,0.47-2.25-0.18-3.01
			C154.33,26.75,153.58,28.74,154,29.61z"/>
		<g>
			<path class="st2" d="M203.05,69.1c0.02,0.03,0.04,0.07,0.06,0.1C203.36,69.55,203.47,69.71,203.05,69.1z"/>
			<path class="st2" d="M198.68,65.98c-2.51,0.1-2.96,3.36-2.66,5.56c0.02,1.9,0.52,4.16,2.26,5.17c0.43,0.25,0.83,0.45,1.26,0.6
				c1.23,1.32,2.78,2.07,4.21,0.7c2.11-2.02,1.3-5.16-0.05-7.66c-0.17-0.43-0.36-0.82-0.59-1.16c-0.29-0.39-0.75-1.03-0.88-1.21
				c-0.14-0.18-0.34-0.37-0.56-0.55C200.9,66.61,199.97,65.94,198.68,65.98z"/>
		</g>
		<path class="st2" d="M87.86,136.35c-0.3,0.01-0.59,0.1-0.86,0.24c-0.96,0.55-1.33,1.7-1.23,2.77c0.01,0.06,0.01,0.12,0.02,0.19
			c0.13,1.29,0.92,2.89,2.42,2.84c0.06,0,0.1,0,0.15,0C91.26,142.27,90.8,136.21,87.86,136.35z"/>
		<path class="st2" d="M71.15,189.85c-0.87-0.61-1.15,1.05-0.7,1.57c0.17,0.2,0.35,0.41,0.53,0.61c0.88,1.01,1.77-1.05,0.79-1.75
			C71.56,190.14,71.36,190,71.15,189.85z"/>
		<path class="st2" d="M78.8,192.22c-1.58,1.73-1.75,4.42-0.68,6.46c0.86,1.65,3.16,3,4.72,1.29c1.58-1.73,1.74-4.41,0.68-6.45
			C82.66,191.86,80.36,190.51,78.8,192.22z"/>
		<path class="st2" d="M116.66,211.58l-0.32-0.05c-0.92-0.14-0.98,1.04-0.73,1.63c0.05,0.13,0.1,0.27,0.16,0.39
			C116.61,215.57,118.63,211.89,116.66,211.58z"/>
		<path class="st2" d="M130.66,227.77c-0.31,0.03-0.54,0.16-0.75,0.31c-1.2-0.62-2.1,1.01-1.94,2.07c0.28,2.03,2.86,4.65,5.11,4.29
			c1.09-0.17,1.67-1.47,1.5-2.5C134.29,230.17,132.85,227.48,130.66,227.77z"/>
		<path class="st2" d="M178.23,146.77c-1.52,1.66-1.67,4.24-0.65,6.21c0.83,1.59,3.03,2.88,4.53,1.24c1.52-1.65,1.68-4.24,0.65-6.21
			C181.94,146.43,179.73,145.14,178.23,146.77z"/>
		<path class="st2" d="M208.28,128.4c-0.46-0.24-0.82-0.21-1.23,0.07c-0.11-0.02-0.23,0-0.37,0.05c-0.7,0.27-0.82,1.38-0.85,2.01
			c-0.05,0.99,0.22,1.92,1,2.57c1.08,0.9,2.32-0.37,2.58-1.35c0.26-0.97,0.2-2.69-0.89-3.23
			C208.43,128.48,208.35,128.44,208.28,128.4z"/>
		<path class="st2" d="M220.5,103.25c-0.01,0.02-0.02,0.03-0.03,0.05c-0.4,0.69-0.6,1.48-0.71,2.28c0,0-0.01-0.02-0.02-0.03
			c0,0.06,0.01,0.11,0,0.16c-0.06,0.59-0.05,1.16,0.05,1.74c0.01,0.09,0.02,0.18,0.03,0.26c0.02,0.1,0.03,0.2,0.05,0.3
			c0.05,0.32,0.1,0.65,0.17,0.98c0.02,0.14,0.04,0.29,0.07,0.43c0.01,0.04,0.01,0.08,0.02,0.11l0.01-0.02
			c0.27,1.1,0.83,2.1,1.83,2.78c2.35,1.61,4.81-0.91,4.88-3.31c0-0.1,0-0.19,0.01-0.29c0.01-0.48,0.02-0.81,0.03-1.02
			c0.2-1.72-0.1-3.47-1.27-4.85C224.13,101.06,221.68,101.23,220.5,103.25z"/>
	</g>
	<path class="st3" d="M185.52,34.79C168.51,29.14,165,7.91,143.76,12.44c-2.44,0.52-4.81,0.44-7.14,0.14
		c0.06,0.04,0.12,0.07,0.19,0.11c3.34,2.49,3.71,6.26,3.54,10.1c5.9-0.37,13.73-2.4,18.39,2.03c4.86,4.64,5.32,11.71,7.64,17.68
		c-0.03-0.07,8.4-2.77,9.88-2.8c1.48-0.03,3.5,2.4,4.3,3.31c4.05,4.56,7.51,9.59,10.88,14.67c0.4,0.61,0.35,1.64-0.1,2.21
		c-3.23,4.15-6.44,8.09-8.51,12.91c6.94,4.36,13.14,11.93,7.56,20.16c-4.28,6.31-18.73,7.77-18.5,16.32
		c0.16,6.18,2.17,12.32,1.91,18.52c-0.11,2.35-3.37,5.78-4.8,7.3c-2.07,2.21-3.91,2.7-1.84,6.42c1.32,2.39,3.04,4.39,4.54,6.65
		c4.12,6.24-2.43,14.71-6.57,19.3c-1.69,1.88-3.18-0.38-4.74-1.17c-2.72-1.37-7.22-4.44-10.28-4.33c-3.27,0.12-6.03,1.42-9.16,1.78
		c-5.79,0.68-7.78-3.81-10.82-7.67c-4.48-5.71-13.96-2.75-19.72-0.88c-4.65,1.51-6.94,4.36-4.69,9.43c1.34,2.99,2.9,5.95,4.82,8.63
		c1.85,2.59,4.3,6.25,8,6.26c3.45,0,6.4-1.55,9.71-2.27c13.49-2.96,8.05,15.52,7.86,21.94c-0.02,0.51-0.27,1.32-0.84,1.48
		c-5.67,1.53-9.74,6.13-15.46,2.66c-1.05-0.64-7.15-6.45-7.59-4.56c-0.72,3.05-1.66,5.82-2.96,8.67c-0.26,0.55-0.93,1.05-1.46,0.5
		c-4.35-4.41-7.26-6.97-13.47-8.52c-3.24-0.81-4.16-1.79-5.74-4.7c-0.98-1.8-1.06-3.85-1.45-5.8c-0.98-4.86-9.65-7.18-13.87-5.77
		c-8.75,2.94,0.51,25.42-1.95,32.99c-0.21,0.65-0.85,1.57-1.58,0.87c-9.32-8.85-9.87-29.02-26.43-25.88
		c-7.29,1.38-7.34-3.83-6.79-9.72c-2.55-0.73-4.59-1.96-5.03-5.02c-0.5-3.45-0.59-6.84-1.7-10.2c-0.72-2.21-6.06-4.16-8.06-4.67
		c-2.38-0.6-4.33-1.48-5.97-2.58c1.72,5.69,4.45,10.88,8.85,14.86c2.8,2.54,3.16,12.02,5.3,15.94c2.68,4.9,7.93,8.81,12.66,11.54
		c1.28,0.83,2.57,1.65,3.84,2.49c14.87,9.89,21.26,26.89,40.04,31.9c8.37,2.24,16.76,3.57,25.29,5.03
		c8.97,1.53,15.11,6.41,24.45,4.57c6.25-1.23,11.48-7.28,15.17-11.93c5.41-6.82,13.17-1.81,19.57-4.98
		c5.94-2.93,11.42-6.51,16.27-11.01c2.74-2.53,4.6-6.71,6.38-9.89c3.69-6.6,8.45-4.69,13.25-8.87
		c11.27-9.83,18.31-28.49,20.27-43.16c2.33-17.48,20.27-26.12,14.94-45.96c-4.36-16.21-20.72-25.77-23.12-42.16
		C216.06,47.86,202.72,40.51,185.52,34.79z"/>
	<path class="st4" d="M202.44,42.2c4.2,5.5,9.73,9.93,11.1,17.07c0.43,2.22-0.45,4.74-1.18,6.77c-3.09,8.51,3.22,11.51,7.8,16.9
		c1.72,2.03,2.34,4.86,2.51,7.44c0.37,5.25,2.74,8.05,6.03,12.15c2.76,3.44,5.12,7.17,4.84,11.76c-0.52,8.25-3.9,14.66-8.9,21.13
		c-3.07,3.98-6.99,8.2-8.65,13.01c-1.81,5.24,1.2,7.7,1.65,12.36c0.28,2.94-1.96,6.3-3.28,8.7c-1.71,3.13-2.88,6.67-4.88,9.65
		c-3.37,5.03-7.64,6.99-13.27,7.97c0.55,2.29,1.18,4.47,2.1,6.69c0.26,0.63,0.12,1.72-0.47,2.13c-8.02,5.61-12.65,16.77-21.53,21.05
		c-8.56,4.13-18.38-1.83-24.95,7.22c-2.24,3.1-8.51,11.32-13.47,8.23c-1.97-1.23-3.27-3.02-4.98-4.57c-3.72-3.37-5.11,3.14-7.17,5.7
		c-4.36,5.4-8.06,4.28-13.36,0.62c-3-2.06-6.68-5.54-10.58-5.75c-4.41-0.24-8.49,0.43-12.84,1.1c-9.54,1.45-15.29-1.89-23.1-7.2
		c-0.18-0.12-0.36-0.26-0.54-0.39c5.7,5.95,11.92,11.27,21.1,13.73c8.37,2.24,16.76,3.57,25.29,5.03
		c8.97,1.53,15.11,6.41,24.45,4.57c6.25-1.23,11.48-7.28,15.17-11.93c5.41-6.82,13.17-1.81,19.57-4.98
		c5.94-2.93,11.42-6.51,16.27-11.01c2.74-2.53,4.6-6.71,6.38-9.89c3.69-6.6,8.45-4.69,13.25-8.87
		c11.27-9.83,18.31-28.49,20.27-43.16c2.33-17.48,20.27-26.12,14.94-45.96c-4.36-16.21-20.72-25.77-23.12-42.16
		C217.09,54.95,211.03,47.48,202.44,42.2z"/>
	<path class="st5" d="M131.84,43.91c0.44-1.73,7.01-15.81,7.17-15.68c-2.53-2.2-5.15-4.37-7.92-6.3
		c-8.53,1.15-15.27,8.16-24.23,8.69c-6.07,0.36-12.03-0.35-17.84-1.8c-7.41,4.05-13.05,10.8-19.85,15.86
		c-6,2.16-16.78,7.1-19.5,11.24c-9.01,13.72-16.58,30.9-28.07,42.78c-6.05,6.26-3.7,24.32-5.08,32.39
		c-0.96,5.62,1.91,11.35,5.56,16.25c2.48,5.2,5.79,9.53,9.82,13.71c-0.99-3.82-1.56-7.79-1.96-10.74c-1-7.32-0.42-11.5,5.6-16.01
		c8.2-6.15,13.85-12.53,24.65-7.27c2.88,1.4,5.55,3.12,8.16,4.96c-2.2-6.05-3.14-12.44-2.59-19.2c0.46-5.58,1.4-11.09,2.3-16.62
		c0.17-1-15.09-9.08-16.81-10.2c-0.86-0.56-0.88-1.83-0.35-2.64c6.16-9.26,10.46-21.09,18.87-28.69c1.38-1.25,2.75-2.15,4.14-2.91
		c0.03-0.05,0.07-0.11,0.12-0.16c0.05-0.06,0.09-0.14,0.14-0.21c0.17-0.01,0.35-0.04,0.52-0.06c5.57-2.74,11.31-2.17,18.41-2.03
		c1.28,0.02,1.03,2.02,0.63,2.71c-3.52,6.01-7.38,13.18-8.66,20.07c-1.87,10.06,13.19,9.54,15.3,17.46
		c2.21,8.26,0.34,18.15,9.87,22.19c2.15,0.91,4.35,1.62,6.57,2.25c0.18-1.47-0.12-3.15-0.77-4.1c-5.16-7.48-6.45-13.76-7.29-22.82
		c0.12,1.31,13.14-0.9,13.92-1.1c17.83-4.9,20.74,13.03,34.47,19.07c-1.24-4.33-2.67-8.66-2.49-13.02c0.2-4.62,1.76-8.38,3.95-12.44
		c1.4-2.6,3.07-5.25,4.02-8.06c1.98-5.82-2.05-7.94-5.95-9.86c-0.43-0.22-0.87-0.4-1.31-0.6c-2.93-1.1-7.18-2.77-11.22-4.83
		c-1.07-0.47-2.13-0.94-3.18-1.45C135.37,51.99,130.13,50.62,131.84,43.91z"/>
	<path class="st5" d="M137.68,118.44c-11.8,2.12-23.6,7.98-34.16,13.34c-2.22,1.13-1.15,4.96-0.06,7.75
		c-6.54,2.23-17.21,7.87-17.19,13.12c0.03,9.59,7.7,19.32,8.77,29.09c6.03,0.62,12.24,1.27,17.8,3.47
		c5.89,2.34,8.8,7.48,11.82,12.62c0.04-0.09,0.09-0.16,0.13-0.26c1.66-4.17,5.06-7.38,6.4-11.51c-6.06-0.2-12.57-0.16-17.86-2.66
		c-4.19-1.98-7.21-5.76-9.87-9.47c-3.13-4.36-12.96-17.56-5.35-22.32c5.05-3.15,10.89-4.96,16.54-6.75
		c2.99-0.95,8.35-4.57,11.39-3.4c2.96,1.13,5.11,3.69,7.03,6.1c1.74,2.19,5.08,10.45,8.88,9.61c7.14-1.58,14.54-1.19,21.51-3.24
		c-2.3-5.08-5.7-10.78-9.48-13.2c-3.33-2.13-8.99,2.95-10.17-4.07c-0.89-5.31-3.22-10.41-4.02-15.74
		C139.64,119.95,139,118.21,137.68,118.44z"/>
</g>
</svg>
