<?xml version="1.0" encoding="utf-8"?>
<!-- Generator: Adobe Illustrator 25.2.0, SVG Export Plug-In . SVG Version: 6.00 Build 0)  -->
<svg version="1.1" id="Camada_1" xmlns="http://www.w3.org/2000/svg" xmlns:xlink="http://www.w3.org/1999/xlink" x="0px" y="0px"
	 viewBox="0 0 256 256" style="enable-background:new 0 0 256 256;" xml:space="preserve">
<style type="text/css">
	.st0{fill:#E13017;}
	.st1{fill:#F2B00A;}
	.st2{fill:#FEDC7A;}
	.st3{fill:#82A2D1;}
	.st4{fill:#4C6DA0;}
	.st5{fill:#DDB552;}
	.st6{fill:#B7EBF9;}
	.st7{fill:#A7DDEA;}
	.st8{fill:#7FCCE6;}
	.st9{fill:#D2F1F9;}
	.st10{fill:#3A5A89;}
	.st11{fill:#2C4768;}
	.st12{fill:#C8CCCC;}
	.st13{fill:#FFFFFF;}
</style>
<g>
	<g>
		<path class="st0" d="M144.42,181.96c-0.35,0.29-0.69,0.6-1.03,0.91c-3.42-9.58-8.73-17.55-15.22-22.93
			c-6.47,5.35-11.76,13.29-15.18,22.81c-0.3-0.27-0.59-0.55-0.9-0.8c-7.22,5.98-12.09,17.12-12.09,29.91
			c0,12.79,4.87,23.93,12.09,29.91c1.09-0.9,2.12-1.94,3.1-3.07c3.32,7.15,7.76,13.14,12.98,17.46c5.24-4.34,9.71-10.39,13.04-17.59
			c1.01,1.18,2.08,2.26,3.22,3.2c7.22-5.98,12.09-17.12,12.09-29.91C156.51,199.08,151.64,187.94,144.42,181.96z"/>
		<path class="st1" d="M140.67,188.02c-0.27,0.22-0.53,0.46-0.79,0.7c-2.63-7.35-6.7-13.48-11.69-17.61
			c-4.97,4.11-9.03,10.2-11.66,17.52c-0.23-0.21-0.45-0.42-0.69-0.61c-5.55,4.59-9.29,13.15-9.29,22.97
			c0,9.82,3.74,18.37,9.29,22.97c0.84-0.69,1.63-1.49,2.38-2.36c2.55,5.49,5.96,10.09,9.96,13.41c4.03-3.33,7.45-7.98,10.01-13.51
			c0.78,0.91,1.6,1.74,2.47,2.46c5.55-4.59,9.29-13.15,9.29-22.97C149.96,201.17,146.22,192.61,140.67,188.02z"/>
		<path class="st2" d="M137.45,183.64c-0.2,0.16-0.39,0.34-0.58,0.52c-1.95-5.45-4.97-9.98-8.66-13.04
			c-3.68,3.05-6.69,7.56-8.63,12.97c-0.17-0.15-0.34-0.31-0.51-0.45c-4.11,3.4-6.88,9.74-6.88,17.01c0,7.27,2.77,13.61,6.88,17.01
			c0.62-0.51,1.21-1.1,1.76-1.75c1.89,4.06,4.42,7.47,7.38,9.93c2.98-2.47,5.52-5.91,7.41-10.01c0.57,0.67,1.18,1.29,1.83,1.82
			c4.11-3.4,6.88-9.74,6.88-17.01C144.33,193.37,141.56,187.04,137.45,183.64z"/>
	</g>
	<path class="st3" d="M246.96,155.43L132.95,2.96c-2.79-3.73-7.94-3.73-10.73,0L8.21,155.43c-3.77,5.05-0.54,12.69,5.37,12.69H241.6
		C247.51,168.13,250.74,160.48,246.96,155.43z"/>
	<path class="st4" d="M127.59,0.17c-1.99,0-3.97,0.93-5.37,2.8L8.21,155.43c-3.77,5.05-0.54,12.69,5.37,12.69h114.01V0.17z"/>
	<path class="st2" d="M96.9,147.5c0,0-38.99,4.42-42.89-20.42H39.03l23.73,89.84h16.73c0,0,4.39-40.97,21.28-44.92L96.9,147.5z"/>
	<polygon class="st5" points="39.03,127.08 62.76,216.93 70.72,216.93 46.99,127.08 	"/>
	<path class="st2" d="M158.31,147.5c0,0,38.99,4.42,42.89-20.42h14.98l-23.73,89.84h-16.73c0,0-4.39-40.97-21.28-44.92L158.31,147.5
		z"/>
	<polygon class="st5" points="216.18,127.08 192.44,216.93 184.48,216.93 208.22,127.08 	"/>
	<g>
		<path class="st6" d="M127.59,51.77c0,0-37.05,20.37-37.05,70.39s0,58.39,0,58.39h74.11c0,0,0-8.37,0-58.39
			S127.59,51.77,127.59,51.77z"/>
		<path class="st7" d="M90.53,122.16c0,50.02,0,58.39,0,58.39h39.36c0.87-49.08-2.3-128.77-2.3-128.77S90.53,72.14,90.53,122.16z"/>
		<path class="st8" d="M127.59,51.77c0,0-37.05,20.37-37.05,70.39s0,58.39,0,58.39h12.06c0,0,0-8.37,0-58.39
			S127.59,51.77,127.59,51.77z"/>
		<path class="st9" d="M127.59,51.77c0,0,37.05,20.37,37.05,70.39s0,58.39,0,58.39h-12.06c0,0,0-8.37,0-58.39
			S127.59,51.77,127.59,51.77z"/>
	</g>
	<g>
		<ellipse class="st10" cx="70.72" cy="111.46" rx="10.73" ry="10.77"/>
		<ellipse class="st7" cx="70.72" cy="111.46" rx="4.12" ry="4.13"/>
		<path class="st11" d="M61.25,113.79c0-5.95,4.81-10.77,10.73-10.77c3.59,0,6.76,1.79,8.71,4.51c-1.57-4-5.43-6.84-9.97-6.84
			c-5.93,0-10.73,4.82-10.73,10.77c0,2.34,0.76,4.49,2.03,6.26C61.54,116.5,61.25,115.18,61.25,113.79z"/>
	</g>
	<g>
		<ellipse class="st10" cx="184.48" cy="111.46" rx="10.73" ry="10.77"/>
		<ellipse class="st7" cx="184.48" cy="111.46" rx="4.12" ry="4.13"/>
		<path class="st11" d="M175.01,113.79c0-5.95,4.81-10.77,10.73-10.77c3.59,0,6.76,1.79,8.71,4.51c-1.57-4-5.43-6.84-9.97-6.84
			c-5.93,0-10.73,4.82-10.73,10.77c0,2.34,0.76,4.49,2.03,6.26C175.3,116.5,175.01,115.18,175.01,113.79z"/>
	</g>
	<g>
		<ellipse class="st12" cx="126.91" cy="130.6" rx="23.36" ry="23.43"/>
		<ellipse class="st4" cx="128.26" cy="128.01" rx="23.36" ry="23.43"/>
		<ellipse class="st2" cx="128.26" cy="128.01" rx="17.32" ry="17.38"/>
		<path class="st8" d="M113.53,128.9c0.96-7.78,7.21-14.08,14.97-15.05c5.61-0.7,10.78,1.3,14.39,4.88
			c-3.41-5.4-9.68-8.79-16.68-7.98c-7.82,0.9-14.17,7.21-15.13,15.04c-0.7,5.71,1.36,10.95,5.01,14.57
			C114.03,137.11,113.01,133.15,113.53,128.9z"/>
	</g>
	<path class="st13" d="M145.58,128.01c0-3.88-1.28-7.45-3.43-10.34l-24.2,24.28c2.88,2.15,6.44,3.44,10.31,3.44
		c0.84,0,1.65-0.08,2.45-0.19l14.67-14.72C145.5,129.67,145.58,128.85,145.58,128.01z"/>
	<path class="st13" d="M110.96,127.64l16.93-16.99c-1.7,0.04-3.34,0.31-4.88,0.8l-11.25,11.29
		C111.26,124.29,110.99,125.94,110.96,127.64z"/>
	<path class="st13" d="M113.89,137.72l24.04-24.12c-1.71-1.15-3.63-1.99-5.7-2.48L111.42,132C111.9,134.07,112.74,136,113.89,137.72
		z"/>
</g>
</svg>
