<?xml version="1.0" encoding="utf-8"?>
<!-- Generator: Adobe Illustrator 25.2.0, SVG Export Plug-In . SVG Version: 6.00 Build 0)  -->
<svg version="1.1" id="OBJECTS" xmlns="http://www.w3.org/2000/svg" xmlns:xlink="http://www.w3.org/1999/xlink" x="0px" y="0px"
	 viewBox="0 0 500 500" style="enable-background:new 0 0 500 500;" xml:space="preserve">
<style type="text/css">
	.st0{fill:#E13017;}
	.st1{fill:#F2B00A;}
	.st2{fill:#FEDC7A;}
	.st3{fill:#FC7761;}
	.st4{fill:#C1DDF3;}
	.st5{fill:#82A2D1;}
	.st6{fill:#DEF2FF;}
	.st7{fill:#E8614F;}
	.st8{fill:#C8CCCC;}
	.st9{fill:#EBF8FF;}
	.st10{fill:#7394BC;}
	.st11{fill:#527393;}
	.st12{fill:#4C6DA0;}
	.st13{fill:#DDB552;}
	.st14{fill:#B7EBF9;}
	.st15{fill:#A7DDEA;}
	.st16{fill:#7FCCE6;}
	.st17{fill:#D2F1F9;}
	.st18{fill:#3A5A89;}
	.st19{fill:#2C4768;}
	.st20{fill:#FFFFFF;}
	.st21{fill:#D65543;}
	.st22{fill:#334F77;}
	.st23{fill:#B0C7E2;}
	.st24{fill:#41608C;}
	.st25{fill:#273E5B;}
	.st26{fill:#60AEC4;}
	.st27{fill:#6488BC;}
	.st28{fill:#51749E;}
	.st29{fill:#3B5D7F;}
	.st30{fill:#E5604E;}
	.st31{fill:#F9968A;}
	.st32{fill:#CC5144;}
	.st33{fill:#B54139;}
	.st34{fill:#BF433A;}
	.st35{fill:#ED7269;}
	.st36{fill:#FFBDBB;}
	.st37{fill:#EAC56A;}
	.st38{fill:#DBAC37;}
	.st39{fill:#F49387;}
	.st40{fill:#F4C0BD;}
	.st41{fill:#3EB0D2;}
	.st42{fill:#2E97AF;}
	.st43{fill:#6CCFE5;}
	.st44{fill:#B7EFF9;}
	.st45{fill:#C4423F;}
	.st46{fill:#B53633;}
	.st47{fill:#EFEFEF;}
	.st48{fill:#EAC257;}
	.st49{fill:#C99D3A;}
	.st50{fill:#F7DC9F;}
	.st51{fill:#CEA03A;}
	.st52{fill:#D55049;}
	.st53{fill:#BC3C39;}
	.st54{fill:#EDF5F9;}
</style>
<g>
	<g>
		<path class="st0" d="M378.93,254.51c-0.05,0.04-0.1,0.08-0.14,0.13c-0.48-1.34-1.22-2.45-2.13-3.2c-0.91,0.75-1.65,1.86-2.13,3.18
			c-0.04-0.04-0.08-0.08-0.13-0.11c-1.01,0.83-1.69,2.39-1.69,4.18c0,1.79,0.68,3.34,1.69,4.18c0.15-0.13,0.3-0.27,0.43-0.43
			c0.47,1,1.09,1.83,1.82,2.44c0.73-0.61,1.36-1.45,1.83-2.46c0.14,0.17,0.29,0.32,0.45,0.45c1.01-0.83,1.69-2.39,1.69-4.18
			C380.63,256.9,379.95,255.35,378.93,254.51z"/>
		<path class="st1" d="M378.41,255.36c-0.04,0.03-0.07,0.06-0.11,0.1c-0.37-1.03-0.94-1.88-1.64-2.46c-0.7,0.57-1.26,1.42-1.63,2.45
			c-0.03-0.03-0.06-0.06-0.1-0.09c-0.78,0.64-1.3,1.84-1.3,3.21c0,1.37,0.52,2.57,1.3,3.21c0.12-0.1,0.23-0.21,0.33-0.33
			c0.36,0.77,0.84,1.41,1.4,1.87c0.56-0.47,1.04-1.11,1.4-1.89c0.11,0.13,0.22,0.24,0.35,0.34c0.78-0.64,1.3-1.84,1.3-3.21
			C379.71,257.19,379.18,256,378.41,255.36z"/>
		<path class="st2" d="M377.96,254.74c-0.03,0.02-0.05,0.05-0.08,0.07c-0.27-0.76-0.7-1.39-1.21-1.82
			c-0.52,0.43-0.94,1.06-1.21,1.81c-0.02-0.02-0.05-0.04-0.07-0.06c-0.58,0.47-0.96,1.36-0.96,2.37c0,1.02,0.39,1.9,0.96,2.37
			c0.09-0.07,0.17-0.15,0.25-0.24c0.26,0.57,0.62,1.04,1.03,1.39c0.42-0.34,0.77-0.82,1.04-1.4c0.08,0.09,0.17,0.18,0.26,0.25
			c0.58-0.47,0.96-1.36,0.96-2.37C378.92,256.1,378.53,255.22,377.96,254.74z"/>
	</g>
	<g>
		<path class="st0" d="M441.3,254.51c-0.05,0.04-0.1,0.08-0.14,0.13c-0.48-1.34-1.22-2.45-2.13-3.2c-0.91,0.75-1.65,1.86-2.13,3.18
			c-0.04-0.04-0.08-0.08-0.13-0.11c-1.01,0.83-1.69,2.39-1.69,4.18c0,1.79,0.68,3.34,1.69,4.18c0.15-0.13,0.3-0.27,0.43-0.43
			c0.47,1,1.09,1.83,1.82,2.44c0.73-0.61,1.36-1.45,1.83-2.46c0.14,0.17,0.29,0.32,0.45,0.45c1.01-0.83,1.69-2.39,1.69-4.18
			C442.99,256.9,442.31,255.35,441.3,254.51z"/>
		<path class="st1" d="M440.77,255.36c-0.04,0.03-0.07,0.06-0.11,0.1c-0.37-1.03-0.94-1.88-1.64-2.46c-0.7,0.57-1.26,1.42-1.63,2.45
			c-0.03-0.03-0.06-0.06-0.1-0.09c-0.78,0.64-1.3,1.84-1.3,3.21c0,1.37,0.52,2.57,1.3,3.21c0.12-0.1,0.23-0.21,0.33-0.33
			c0.36,0.77,0.84,1.41,1.4,1.87c0.56-0.47,1.04-1.11,1.4-1.89c0.11,0.13,0.22,0.24,0.35,0.34c0.78-0.64,1.3-1.84,1.3-3.21
			C442.07,257.19,441.55,256,440.77,255.36z"/>
		<path class="st2" d="M440.32,254.74c-0.03,0.02-0.05,0.05-0.08,0.07c-0.27-0.76-0.7-1.39-1.21-1.82
			c-0.52,0.43-0.94,1.06-1.21,1.81c-0.02-0.02-0.05-0.04-0.07-0.06c-0.58,0.47-0.96,1.36-0.96,2.37c0,1.02,0.39,1.9,0.96,2.37
			c0.09-0.07,0.17-0.15,0.25-0.24c0.26,0.57,0.62,1.04,1.03,1.39c0.42-0.34,0.77-0.82,1.04-1.4c0.08,0.09,0.17,0.18,0.26,0.25
			c0.58-0.47,0.96-1.36,0.96-2.37C441.28,256.1,440.89,255.22,440.32,254.74z"/>
	</g>
	<g>
		<path class="st0" d="M415.84,253.38c-0.18,0.14-0.35,0.3-0.52,0.46c-1.72-4.8-4.39-8.79-7.65-11.48
			c-3.25,2.68-5.91,6.65-7.63,11.42c-0.15-0.14-0.3-0.27-0.45-0.4c-3.63,2.99-6.07,8.57-6.07,14.97c0,6.4,2.45,11.98,6.07,14.97
			c0.55-0.45,1.07-0.97,1.56-1.54c1.67,3.58,3.9,6.58,6.52,8.74c2.63-2.17,4.88-5.2,6.55-8.81c0.51,0.59,1.04,1.13,1.62,1.6
			c3.63-2.99,6.07-8.57,6.07-14.97C421.92,261.95,419.47,256.37,415.84,253.38z"/>
		<path class="st1" d="M413.96,256.41c-0.13,0.11-0.27,0.23-0.4,0.35c-1.32-3.68-3.37-6.75-5.87-8.82
			c-2.49,2.06-4.53,5.11-5.86,8.77c-0.11-0.1-0.23-0.21-0.35-0.31c-2.79,2.3-4.66,6.58-4.66,11.5c0,4.92,1.88,9.2,4.66,11.5
			c0.42-0.35,0.82-0.75,1.2-1.18c1.28,2.75,2.99,5.05,5.01,6.71c2.02-1.67,3.74-3.99,5.03-6.76c0.39,0.45,0.8,0.87,1.24,1.23
			c2.79-2.3,4.66-6.58,4.66-11.5C418.62,262.99,416.74,258.71,413.96,256.41z"/>
		<path class="st2" d="M412.34,254.22c-0.1,0.08-0.2,0.17-0.29,0.26c-0.98-2.73-2.49-5-4.35-6.53c-1.85,1.52-3.36,3.78-4.34,6.5
			c-0.08-0.08-0.17-0.16-0.26-0.23c-2.06,1.7-3.45,4.87-3.45,8.52c0,3.64,1.39,6.81,3.45,8.52c0.31-0.26,0.61-0.55,0.89-0.87
			c0.95,2.04,2.22,3.74,3.71,4.97c1.5-1.24,2.77-2.96,3.72-5.01c0.29,0.34,0.59,0.64,0.92,0.91c2.06-1.7,3.45-4.87,3.45-8.52
			C415.79,259.09,414.4,255.92,412.34,254.22z"/>
	</g>
	<g>
		<g>
			<g>
				<path class="st3" d="M394.83,231.04c0.07,0-11.77,3.3-18.16-3.14v22.31c0,0,15.41-7.18,24.06-1.05L394.83,231.04z"/>
				<rect x="372.8" y="224.11" class="st4" width="8.06" height="30.27"/>
				<rect x="372.8" y="224.11" class="st5" width="2.5" height="30.27"/>
				<rect x="378.36" y="224.11" class="st6" width="2.5" height="30.27"/>
			</g>
			<path class="st7" d="M385.87,238.54c-2.08,0.24-3.3,4.45-2.73,9.41c2.23-0.6,4.84-1.11,7.5-1.23
				C389.99,241.93,387.9,238.3,385.87,238.54z"/>
		</g>
		<g>
			<g>
				<path class="st3" d="M421.04,231.04c-0.07,0,11.77,3.3,18.16-3.14v22.31c0,0-15.41-7.18-24.06-1.05L421.04,231.04z"/>
				
					<rect x="435" y="224.11" transform="matrix(-1 -4.490465e-11 4.490465e-11 -1 878.0629 478.485)" class="st4" width="8.06" height="30.27"/>
				
					<rect x="440.56" y="224.11" transform="matrix(-1 -4.506319e-11 4.506319e-11 -1 883.6213 478.485)" class="st5" width="2.5" height="30.27"/>
				
					<rect x="435" y="224.11" transform="matrix(-1 -4.506319e-11 4.506319e-11 -1 872.5044 478.485)" class="st6" width="2.5" height="30.27"/>
			</g>
			<path class="st7" d="M430,238.54c2.08,0.24,3.3,4.45,2.73,9.41c-2.23-0.6-4.84-1.11-7.5-1.23
				C425.87,241.93,427.97,238.3,430,238.54z"/>
		</g>
		<g>
			<ellipse class="st4" cx="407.79" cy="230.96" rx="18.02" ry="39.84"/>
			<path class="st5" d="M407.79,191.12c-11.04,9.73-18.02,23.97-18.02,39.84s6.97,30.11,18.02,39.84
				c-6.37-15.01-8.96-23.97-8.96-39.84C398.83,216.27,399.91,204.6,407.79,191.12z"/>
			<path class="st6" d="M407.79,191.12c11.04,9.73,18.02,23.97,18.02,39.84s-6.97,30.11-18.02,39.84
				c6.37-15.01,8.96-23.97,8.96-39.84C416.75,216.27,415.67,204.6,407.79,191.12z"/>
		</g>
		<path class="st8" d="M417.19,222.66h-20.44c-1.35,0-2.45,1.1-2.45,2.45v14.8c0,1.35,1.1,2.45,2.45,2.45h20.44
			c1.35,0,2.45-1.1,2.45-2.45v-14.8C419.64,223.75,418.54,222.66,417.19,222.66z"/>
		<path class="st9" d="M418.01,221.47h-20.44c-1.35,0-2.45,1.1-2.45,2.45v14.8c0,1.35,1.1,2.45,2.45,2.45h20.44
			c1.35,0,2.45-1.1,2.45-2.45v-14.8C420.46,222.56,419.37,221.47,418.01,221.47z"/>
		<path class="st5" d="M416.48,224.11H399.1c-0.74,0-1.34,0.6-1.34,1.34v11.73c0,0.74,0.6,1.34,1.34,1.34h17.38
			c0.74,0,1.34-0.6,1.34-1.34v-11.73C417.82,224.71,417.22,224.11,416.48,224.11z"/>
		<path class="st10" d="M407.79,237.18v-11.73c0-0.74,0.6-1.34,1.34-1.34H399.1c-0.74,0-1.34,0.6-1.34,1.34v11.73
			c0,0.74,0.6,1.34,1.34,1.34h10.03C408.39,238.52,407.79,237.92,407.79,237.18z"/>
		<path class="st11" d="M398.78,237.93V226.2c0-0.74,0.6-1.34,1.34-1.34h17.38c0.06,0,0.12,0.01,0.18,0.02
			c-0.22-0.45-0.67-0.76-1.21-0.76H399.1c-0.74,0-1.34,0.6-1.34,1.34v11.73c0,0.68,0.51,1.23,1.16,1.33
			C398.83,238.33,398.78,238.14,398.78,237.93z"/>
	</g>
</g>
<g>
	<g>
		<path class="st0" d="M413.78,405.41c-0.13,0.1-0.25,0.22-0.37,0.33c-1.23-3.43-3.14-6.29-5.47-8.22
			c-2.33,1.92-4.23,4.76-5.46,8.18c-0.11-0.1-0.21-0.2-0.32-0.29c-2.6,2.14-4.35,6.14-4.35,10.72c0,4.58,1.75,8.58,4.35,10.72
			c0.39-0.32,0.76-0.7,1.11-1.1c1.2,2.56,2.79,4.71,4.67,6.26c1.89-1.56,3.49-3.72,4.69-6.31c0.36,0.42,0.75,0.81,1.16,1.15
			c2.6-2.14,4.35-6.14,4.35-10.72C418.12,411.55,416.37,407.56,413.78,405.41z"/>
		<path class="st1" d="M412.43,407.58c-0.1,0.08-0.19,0.17-0.28,0.25c-0.94-2.64-2.41-4.83-4.2-6.31c-1.79,1.47-3.25,3.66-4.19,6.28
			c-0.08-0.07-0.16-0.15-0.25-0.22c-1.99,1.65-3.34,4.71-3.34,8.23c0,3.52,1.34,6.59,3.34,8.23c0.3-0.25,0.59-0.53,0.86-0.84
			c0.92,1.97,2.14,3.62,3.58,4.8c1.45-1.2,2.68-2.86,3.6-4.84c0.28,0.33,0.57,0.62,0.89,0.88c1.99-1.65,3.34-4.71,3.34-8.23
			C415.77,412.3,414.42,409.23,412.43,407.58z"/>
		<path class="st2" d="M411.27,406.01c-0.07,0.06-0.14,0.12-0.21,0.19c-0.7-1.95-1.79-3.58-3.11-4.67c-1.32,1.09-2.4,2.71-3.1,4.65
			c-0.06-0.06-0.12-0.11-0.18-0.16c-1.48,1.22-2.47,3.49-2.47,6.1c0,2.61,1,4.88,2.47,6.1c0.22-0.18,0.43-0.4,0.63-0.63
			c0.68,1.46,1.59,2.68,2.65,3.56c1.07-0.89,1.99-2.12,2.67-3.59c0.21,0.24,0.43,0.46,0.66,0.65c1.48-1.22,2.47-3.49,2.47-6.1
			C413.74,409.5,412.75,407.23,411.27,406.01z"/>
	</g>
	<path class="st5" d="M450.65,395.91l-41-54.65c-1-1.34-2.86-1.34-3.86,0l-41,54.65c-1.36,1.81-0.19,4.55,1.93,4.55h81.99
		C450.84,400.46,452.01,397.71,450.65,395.91z"/>
	<path class="st12" d="M407.72,340.26c-0.71,0-1.43,0.33-1.93,1l-41,54.65c-1.36,1.81-0.19,4.55,1.93,4.55h41V340.26z"/>
	<path class="st2" d="M396.69,393.06c0,0-14.02,1.58-15.42-7.32h-5.39l8.53,32.2h6.02c0,0,1.58-14.69,7.65-16.1L396.69,393.06z"/>
	<polygon class="st13" points="375.88,385.74 384.41,417.95 387.27,417.95 378.74,385.74 	"/>
	<path class="st2" d="M418.77,393.06c0,0,14.02,1.58,15.42-7.32h5.39l-8.53,32.2h-6.02c0,0-1.58-14.69-7.65-16.1L418.77,393.06z"/>
	<polygon class="st13" points="439.58,385.74 431.04,417.95 428.18,417.95 436.72,385.74 	"/>
	<g>
		<path class="st14" d="M407.72,358.75c0,0-13.32,7.3-13.32,25.23c0,17.93,0,20.93,0,20.93h26.65c0,0,0-3,0-20.93
			C421.05,366.05,407.72,358.75,407.72,358.75z"/>
		<path class="st15" d="M394.4,383.98c0,17.93,0,20.93,0,20.93h14.15c0.31-17.59-0.83-46.15-0.83-46.15S394.4,366.05,394.4,383.98z"
			/>
		<path class="st16" d="M407.72,358.75c0,0-13.32,7.3-13.32,25.23c0,17.93,0,20.93,0,20.93h4.34c0,0,0-3,0-20.93
			C398.74,366.05,407.72,358.75,407.72,358.75z"/>
		<path class="st17" d="M407.72,358.75c0,0,13.32,7.3,13.32,25.23c0,17.93,0,20.93,0,20.93h-4.34c0,0,0-3,0-20.93
			C416.71,366.05,407.72,358.75,407.72,358.75z"/>
	</g>
	<g>
		<circle class="st18" cx="387.27" cy="380.15" r="3.86"/>
		<circle class="st15" cx="387.27" cy="380.15" r="1.48"/>
		<path class="st19" d="M383.87,380.98c0-2.13,1.73-3.86,3.86-3.86c1.29,0,2.43,0.64,3.13,1.62c-0.56-1.43-1.95-2.45-3.59-2.45
			c-2.13,0-3.86,1.73-3.86,3.86c0,0.84,0.27,1.61,0.73,2.24C383.97,381.95,383.87,381.48,383.87,380.98z"/>
	</g>
	<g>
		<circle class="st18" cx="428.18" cy="380.15" r="3.86"/>
		<circle class="st15" cx="428.18" cy="380.15" r="1.48"/>
		<path class="st19" d="M424.78,380.98c0-2.13,1.73-3.86,3.86-3.86c1.29,0,2.43,0.64,3.13,1.62c-0.56-1.43-1.95-2.45-3.59-2.45
			c-2.13,0-3.86,1.73-3.86,3.86c0,0.84,0.27,1.61,0.73,2.24C424.88,381.95,424.78,381.48,424.78,380.98z"/>
	</g>
	<g>
		<circle class="st8" cx="407.48" cy="387.01" r="8.4"/>
		<circle class="st12" cx="407.96" cy="386.08" r="8.4"/>
		<circle class="st2" cx="407.96" cy="386.08" r="6.23"/>
		<path class="st16" d="M402.67,386.4c0.35-2.79,2.59-5.05,5.38-5.39c2.02-0.25,3.88,0.47,5.17,1.75c-1.22-1.93-3.48-3.15-6-2.86
			c-2.81,0.32-5.09,2.58-5.44,5.39c-0.25,2.04,0.49,3.92,1.8,5.22C402.85,389.34,402.48,387.92,402.67,386.4z"/>
	</g>
	<path class="st20" d="M414.19,386.08c0-1.39-0.46-2.67-1.23-3.71l-8.7,8.7c1.04,0.77,2.32,1.23,3.71,1.23
		c0.3,0,0.59-0.03,0.88-0.07l5.28-5.28C414.16,386.67,414.19,386.38,414.19,386.08z"/>
	<path class="st20" d="M401.74,385.94l6.09-6.09c-0.61,0.01-1.2,0.11-1.76,0.29l-4.05,4.05
		C401.85,384.74,401.76,385.33,401.74,385.94z"/>
	<path class="st20" d="M402.8,389.56l8.64-8.64c-0.61-0.41-1.31-0.71-2.05-0.89l-7.49,7.49
		C402.08,388.25,402.38,388.94,402.8,389.56z"/>
</g>
<g>
	<g>
		<g>
			<path class="st0" d="M402.33,120.92c0.1,0.1,0.2,0.2,0.3,0.31c0.99-3.19,2.52-5.85,4.4-7.65c1.87,1.79,3.4,4.43,4.39,7.61
				c0.09-0.09,0.17-0.18,0.26-0.27c2.09,1.99,3.49,5.71,3.49,9.98c0,4.27-1.41,7.98-3.49,9.98c-0.32-0.3-0.61-0.65-0.9-1.02
				c-0.96,2.38-2.24,4.38-3.75,5.82c-1.52-1.45-2.81-3.47-3.77-5.87c-0.29,0.39-0.6,0.76-0.93,1.07c-2.09-1.99-3.5-5.71-3.5-9.98
				C398.83,126.63,400.24,122.91,402.33,120.92z"/>
			<path class="st1" d="M403.41,122.94c0.08,0.07,0.15,0.15,0.23,0.23c0.76-2.45,1.94-4.5,3.38-5.87c1.44,1.37,2.61,3.4,3.37,5.84
				c0.07-0.07,0.13-0.14,0.2-0.2c1.6,1.53,2.68,4.39,2.68,7.66c0,3.28-1.08,6.13-2.68,7.66c-0.24-0.23-0.47-0.5-0.69-0.79
				c-0.74,1.83-1.72,3.37-2.88,4.47c-1.16-1.11-2.15-2.66-2.89-4.51c-0.22,0.3-0.46,0.58-0.71,0.82c-1.6-1.53-2.68-4.39-2.68-7.66
				C400.73,127.32,401.81,124.47,403.41,122.94z"/>
			<path class="st2" d="M404.34,121.48c0.06,0.05,0.11,0.11,0.17,0.17c0.56-1.82,1.44-3.33,2.5-4.35c1.06,1.02,1.93,2.52,2.5,4.33
				c0.05-0.05,0.1-0.1,0.15-0.15c1.19,1.13,1.99,3.25,1.99,5.67c0,2.43-0.8,4.54-1.99,5.67c-0.18-0.17-0.35-0.37-0.51-0.58
				c-0.55,1.36-1.28,2.49-2.13,3.31c-0.86-0.82-1.6-1.97-2.14-3.34c-0.17,0.22-0.34,0.43-0.53,0.61c-1.19-1.13-1.99-3.25-1.99-5.67
				C402.35,124.72,403.15,122.61,404.34,121.48z"/>
		</g>
		<g>
			<path class="st21" d="M391.72,94.79c-9.42,13.6-9.79,35-0.17,51.06l0.35-0.98l11.36-29.78L391.72,94.79z"/>
			<path class="st3" d="M391.43,112.08c-6.36,9.17-6.93,21.16-1.48,30.9l1.61,2.87l7.66-20.09L391.43,112.08z"/>
		</g>
		<g>
			<path class="st21" d="M422.21,94.79c9.42,13.6,9.79,35,0.17,51.06l-0.35-0.98l-11.36-29.78L422.21,94.79z"/>
			<path class="st3" d="M422.5,112.08c6.36,9.17,6.93,21.16,1.48,30.9l-1.61,2.87l-7.66-20.09L422.5,112.08z"/>
		</g>
		<g>
			<g>
				<path class="st5" d="M407,50.92c0,0-15.57,8.53-15.57,29.48s0,33.62,0,33.62h31.14c0,0,0-12.67,0-33.62S407,50.92,407,50.92z"/>
				<path class="st12" d="M391.43,80.41c0,20.95,0,33.62,0,33.62h16.54c0.37-20.56-0.97-63.1-0.97-63.1S391.43,59.46,391.43,80.41z"
					/>
				<path class="st22" d="M407,50.92c0,0-15.57,8.53-15.57,29.48s0,33.62,0,33.62h5.07c0,0,0-12.67,0-33.62S407,50.92,407,50.92z"/>
				<path class="st23" d="M407,50.92c0,0,15.57,8.53,15.57,29.48s0,33.62,0,33.62h-5.07c0,0,0-12.67,0-33.62S407,50.92,407,50.92z"
					/>
			</g>
			<polygon class="st24" points="414.78,127.72 399.21,127.72 391.43,114.03 422.57,114.03 			"/>
			<polygon class="st22" points="391.43,114.03 399.21,127.72 404.23,127.72 396.45,114.03 			"/>
			<polygon class="st5" points="422.55,114.03 414.77,127.72 409.75,127.72 417.53,114.03 			"/>
		</g>
		<g>
			<rect x="391.43" y="89.23" class="st22" width="8.87" height="15.03"/>
			<rect x="398.35" y="89.23" class="st25" width="1.94" height="15.03"/>
			<rect x="391.43" y="89.23" class="st25" width="8.87" height="1.93"/>
			<rect x="391.43" y="102.32" class="st25" width="8.87" height="1.93"/>
		</g>
		<g>
			
				<rect x="413.7" y="89.23" transform="matrix(-1 -4.492197e-11 4.492197e-11 -1 836.2726 193.4835)" class="st22" width="8.87" height="15.03"/>
			
				<rect x="413.7" y="89.23" transform="matrix(-1 -4.499213e-11 4.499213e-11 -1 829.3454 193.4835)" class="st25" width="1.94" height="15.03"/>
			
				<rect x="413.7" y="89.23" transform="matrix(-1 -4.492197e-11 4.492197e-11 -1 836.2726 180.3862)" class="st25" width="8.87" height="1.93"/>
			
				<rect x="413.7" y="102.32" transform="matrix(-1 -4.492197e-11 4.492197e-11 -1 836.2726 206.5809)" class="st25" width="8.87" height="1.93"/>
		</g>
	</g>
	<path class="st20" d="M407.55,62.23c0,0-8.34,2.15-8.34,9.53c0,0,4.54-2.79,8.34-2.79c3.81,0,8.34,2.79,8.34,2.79
		C415.89,64.38,407.55,62.23,407.55,62.23z"/>
</g>
<g>
	<g>
		<path class="st0" d="M96.92,124.42c-0.08,0.06-0.15,0.13-0.23,0.2c-0.76-2.12-1.94-3.89-3.39-5.09c-1.44,1.19-2.62,2.95-3.38,5.06
			c-0.07-0.06-0.13-0.12-0.2-0.18c-1.61,1.33-2.69,3.8-2.69,6.63c0,2.84,1.08,5.31,2.69,6.63c0.24-0.2,0.47-0.43,0.69-0.68
			c0.74,1.59,1.73,2.92,2.89,3.87c1.17-0.96,2.16-2.3,2.9-3.9c0.22,0.26,0.46,0.5,0.72,0.71c1.61-1.33,2.69-3.8,2.69-6.63
			C99.61,128.22,98.52,125.75,96.92,124.42z"/>
		<path class="st1" d="M96.08,125.77c-0.06,0.05-0.12,0.1-0.18,0.16c-0.58-1.63-1.49-2.99-2.6-3.91c-1.11,0.91-2.01,2.26-2.59,3.89
			c-0.05-0.05-0.1-0.09-0.15-0.14c-1.23,1.02-2.07,2.92-2.07,5.09c0,2.18,0.83,4.08,2.07,5.09c0.19-0.15,0.36-0.33,0.53-0.52
			c0.57,1.22,1.33,2.24,2.22,2.97c0.9-0.74,1.66-1.77,2.23-3c0.17,0.2,0.36,0.39,0.55,0.55c1.23-1.02,2.07-2.92,2.07-5.09
			C98.15,128.68,97.32,126.79,96.08,125.77z"/>
		<path class="st2" d="M95.36,124.79c-0.04,0.04-0.09,0.08-0.13,0.12c-0.43-1.21-1.1-2.21-1.93-2.89c-0.82,0.68-1.49,1.68-1.92,2.88
			c-0.04-0.03-0.07-0.07-0.11-0.1c-0.91,0.75-1.53,2.16-1.53,3.77c0,1.61,0.62,3.02,1.53,3.77c0.14-0.11,0.27-0.24,0.39-0.39
			c0.42,0.9,0.98,1.66,1.64,2.2c0.66-0.55,1.23-1.31,1.65-2.22c0.13,0.15,0.26,0.29,0.41,0.4c0.91-0.75,1.53-2.16,1.53-3.77
			C96.9,126.95,96.28,125.55,95.36,124.79z"/>
	</g>
	<g>
		<path class="st14" d="M93.59,50.92c0,0-15.57,8.53-15.57,29.48s0,33.62,0,33.62h31.14c0,0,0-12.67,0-33.62
			S93.59,50.92,93.59,50.92z"/>
		<path class="st15" d="M78.02,80.41c0,20.95,0,33.62,0,33.62h16.54c0.37-20.56-0.97-63.1-0.97-63.1S78.02,59.46,78.02,80.41z"/>
		<path class="st16" d="M93.59,50.92c0,0-15.57,8.53-15.57,29.48s0,33.62,0,33.62h5.07c0,0,0-12.67,0-33.62S93.59,50.92,93.59,50.92
			z"/>
		<path class="st17" d="M93.59,50.92c0,0,15.57,8.53,15.57,29.48s0,33.62,0,33.62h-5.07c0,0,0-12.67,0-33.62
			S93.59,50.92,93.59,50.92z"/>
	</g>
	<path class="st12" d="M93.59,50.92c0,0-6.74,3.69-11.35,12.18c2.97,2.77,6.96,4.47,11.35,4.47s8.37-1.7,11.35-4.47
		C100.33,54.62,93.59,50.92,93.59,50.92z"/>
	<g>
		<circle class="st12" cx="93.1" cy="90.5" r="8.03"/>
		<circle class="st16" cx="93.1" cy="90.5" r="5.95"/>
		<path class="st16" d="M88.03,90.81c0.33-2.67,2.48-4.82,5.14-5.15c1.93-0.24,3.7,0.45,4.94,1.67c-1.17-1.85-3.33-3.01-5.73-2.73
			c-2.69,0.31-4.87,2.47-5.2,5.15c-0.24,1.95,0.47,3.75,1.72,4.99C88.21,93.62,87.85,92.26,88.03,90.81z"/>
	</g>
	<polygon class="st16" points="101.38,127.72 85.81,127.72 78.02,114.03 109.17,114.03 	"/>
	<polygon class="st26" points="78.02,114.03 85.81,127.72 90.83,127.72 83.04,114.03 	"/>
	<polygon class="st14" points="109.15,114.03 101.36,127.72 96.34,127.72 104.13,114.03 	"/>
	<g>
		<g>
			<path class="st0" d="M74.56,124.94c-0.05,0.04-0.1,0.08-0.15,0.13c-0.5-1.32-1.29-2.42-2.25-3.16c-0.95,0.74-1.73,1.83-2.24,3.15
				c-0.04-0.04-0.09-0.08-0.13-0.11c-1.07,0.83-1.78,2.36-1.78,4.13c0,1.76,0.72,3.3,1.78,4.13c0.16-0.12,0.31-0.27,0.46-0.42
				c0.49,0.99,1.15,1.81,1.91,2.41c0.77-0.6,1.43-1.43,1.92-2.43c0.15,0.16,0.31,0.31,0.47,0.44c1.07-0.83,1.78-2.36,1.78-4.13
				C76.34,127.3,75.62,125.76,74.56,124.94z"/>
			<path class="st1" d="M74,125.77c-0.04,0.03-0.08,0.06-0.12,0.1c-0.39-1.02-0.99-1.86-1.73-2.43c-0.73,0.57-1.33,1.41-1.72,2.42
				c-0.03-0.03-0.07-0.06-0.1-0.08c-0.82,0.63-1.37,1.81-1.37,3.17c0,1.36,0.55,2.54,1.37,3.17c0.12-0.1,0.24-0.21,0.35-0.33
				c0.38,0.76,0.88,1.39,1.47,1.85c0.59-0.46,1.1-1.1,1.48-1.86c0.11,0.13,0.24,0.24,0.36,0.34c0.82-0.63,1.37-1.81,1.37-3.17
				C75.37,127.59,74.82,126.41,74,125.77z"/>
			<path class="st2" d="M73.53,125.17c-0.03,0.02-0.06,0.05-0.09,0.07c-0.29-0.75-0.73-1.38-1.28-1.8
				c-0.54,0.42-0.99,1.04-1.27,1.79c-0.02-0.02-0.05-0.04-0.08-0.06c-0.61,0.47-1.01,1.34-1.01,2.35c0,1,0.41,1.88,1.01,2.35
				c0.09-0.07,0.18-0.15,0.26-0.24c0.28,0.56,0.65,1.03,1.09,1.37c0.44-0.34,0.81-0.82,1.09-1.38c0.08,0.09,0.17,0.18,0.27,0.25
				c0.61-0.47,1.01-1.34,1.01-2.35C74.54,126.51,74.13,125.64,73.53,125.17z"/>
		</g>
		<rect x="68" y="115.99" class="st16" width="8.34" height="9.76"/>
		<rect x="68" y="115.99" class="st26" width="3.4" height="9.76"/>
		<path class="st27" d="M78.21,94.89c-9.07,5.52-16.56,17.33-14.6,31.05l19.48-16.92v-17.1L78.21,94.89z"/>
		<path class="st12" d="M63.61,125.93l19.48-11.86v-17.1l-4.88,2.97C69.14,105.47,63.61,115.32,63.61,125.93L63.61,125.93z"/>
		<path class="st16" d="M77.75,107.14c-0.31-0.16-0.69-0.14-0.98,0.06c-1.28,0.88-3.18,2.53-4.95,5.39c-0.44,0.7-0.67,1.53-0.67,2.4
			v6.35l0.47-0.29v-6.06c0-0.78,0.21-1.52,0.6-2.15c1.73-2.79,3.57-4.4,4.81-5.25c0.15-0.1,0.33-0.11,0.49-0.03
			c0.16,0.08,0.26,0.24,0.26,0.42v9.32l0.47-0.29v-9.03C78.26,107.63,78.06,107.31,77.75,107.14z"/>
	</g>
	<g>
		<g>
			<path class="st0" d="M112.65,124.94c0.05,0.04,0.1,0.08,0.15,0.13c0.5-1.32,1.29-2.42,2.25-3.16c0.95,0.74,1.73,1.83,2.24,3.15
				c0.04-0.04,0.09-0.08,0.13-0.11c1.07,0.83,1.78,2.36,1.78,4.13c0,1.76-0.72,3.3-1.78,4.13c-0.16-0.12-0.31-0.27-0.46-0.42
				c-0.49,0.99-1.15,1.81-1.91,2.41c-0.77-0.6-1.43-1.43-1.92-2.43c-0.15,0.16-0.31,0.31-0.47,0.44c-1.07-0.83-1.78-2.36-1.78-4.13
				C110.87,127.3,111.58,125.76,112.65,124.94z"/>
			<path class="st1" d="M113.2,125.77c0.04,0.03,0.08,0.06,0.12,0.1c0.39-1.02,0.99-1.86,1.73-2.43c0.73,0.57,1.33,1.41,1.72,2.42
				c0.03-0.03,0.07-0.06,0.1-0.08c0.82,0.63,1.37,1.81,1.37,3.17c0,1.36-0.55,2.54-1.37,3.17c-0.12-0.1-0.24-0.21-0.35-0.33
				c-0.38,0.76-0.88,1.39-1.47,1.85c-0.59-0.46-1.1-1.1-1.48-1.86c-0.11,0.13-0.24,0.24-0.36,0.34c-0.82-0.63-1.37-1.81-1.37-3.17
				C111.83,127.59,112.38,126.41,113.2,125.77z"/>
			<path class="st2" d="M113.68,125.17c0.03,0.02,0.06,0.05,0.09,0.07c0.29-0.75,0.73-1.38,1.28-1.8c0.54,0.42,0.99,1.04,1.27,1.79
				c0.02-0.02,0.05-0.04,0.08-0.06c0.61,0.47,1.01,1.34,1.01,2.35c0,1-0.41,1.88-1.01,2.35c-0.09-0.07-0.18-0.15-0.26-0.24
				c-0.28,0.56-0.65,1.03-1.09,1.37c-0.44-0.34-0.81-0.82-1.09-1.38c-0.08,0.09-0.17,0.18-0.27,0.25c-0.61-0.47-1.01-1.34-1.01-2.35
				C112.66,126.51,113.07,125.64,113.68,125.17z"/>
		</g>
		
			<rect x="110.87" y="115.99" transform="matrix(-1 -4.493351e-11 4.493351e-11 -1 230.0699 241.7417)" class="st16" width="8.34" height="9.76"/>
		
			<rect x="115.81" y="115.99" transform="matrix(-1 -4.551127e-11 4.551127e-11 -1 235.0118 241.7417)" class="st26" width="3.4" height="9.76"/>
		<path class="st27" d="M108.99,94.89c9.07,5.52,16.56,17.33,14.6,31.05l-19.48-16.92v-17.1L108.99,94.89z"/>
		<path class="st12" d="M123.6,125.93l-19.48-11.86v-17.1l4.88,2.97C118.06,105.47,123.6,115.32,123.6,125.93L123.6,125.93z"/>
		<path class="st16" d="M109.46,107.14c0.31-0.16,0.69-0.14,0.98,0.06c1.28,0.88,3.18,2.53,4.95,5.39c0.44,0.7,0.67,1.53,0.67,2.4
			v6.35l-0.47-0.29v-6.06c0-0.78-0.21-1.52-0.6-2.15c-1.73-2.79-3.57-4.4-4.81-5.25c-0.15-0.1-0.33-0.11-0.49-0.03
			c-0.16,0.08-0.26,0.24-0.26,0.42v9.32l-0.47-0.29v-9.03C108.95,107.63,109.14,107.31,109.46,107.14z"/>
	</g>
</g>
<g>
	<g>
		<path class="st0" d="M98.48,261.07c-0.13,0.11-0.26,0.23-0.39,0.35c-1.31-3.67-3.35-6.72-5.85-8.78
			c-2.48,2.05-4.51,5.09-5.83,8.73c-0.11-0.1-0.23-0.21-0.34-0.31c-2.77,2.29-4.64,6.55-4.64,11.45c0,4.89,1.87,9.16,4.64,11.45
			c0.42-0.35,0.82-0.74,1.19-1.17c1.28,2.74,2.98,5.03,4.98,6.68c2.01-1.66,3.73-3.98,5.01-6.73c0.39,0.45,0.8,0.87,1.23,1.23
			c2.77-2.29,4.64-6.55,4.64-11.45C103.13,267.62,101.26,263.36,98.48,261.07z"/>
		<path class="st1" d="M97.04,263.39c-0.1,0.09-0.2,0.18-0.3,0.27c-1.01-2.81-2.57-5.16-4.49-6.74c-1.91,1.57-3.47,3.91-4.48,6.7
			c-0.09-0.08-0.17-0.16-0.26-0.23c-2.13,1.76-3.57,5.03-3.57,8.79c0,3.76,1.44,7.03,3.57,8.79c0.32-0.27,0.63-0.57,0.91-0.9
			c0.98,2.1,2.29,3.86,3.83,5.13c1.55-1.28,2.86-3.05,3.84-5.17c0.3,0.35,0.61,0.67,0.95,0.94c2.13-1.76,3.57-5.03,3.57-8.79
			C100.61,268.42,99.17,265.14,97.04,263.39z"/>
		<path class="st2" d="M95.81,261.71c-0.08,0.06-0.15,0.13-0.22,0.2c-0.75-2.08-1.91-3.82-3.32-4.99c-1.41,1.17-2.57,2.89-3.32,4.97
			c-0.06-0.06-0.13-0.12-0.2-0.17c-1.58,1.3-2.64,3.73-2.64,6.51c0,2.78,1.06,5.21,2.64,6.51c0.24-0.2,0.46-0.42,0.68-0.67
			c0.73,1.56,1.7,2.86,2.83,3.8c1.15-0.95,2.12-2.26,2.85-3.83c0.22,0.26,0.45,0.49,0.7,0.7c1.58-1.3,2.64-3.73,2.64-6.51
			C98.45,265.43,97.39,263.01,95.81,261.71z"/>
	</g>
	<g>
		<g>
			<path class="st0" d="M72,262.08c-0.06,0.05-0.12,0.1-0.18,0.16c-0.58-1.63-1.49-2.99-2.6-3.91c-1.11,0.91-2.01,2.26-2.59,3.89
				c-0.05-0.05-0.1-0.09-0.15-0.14c-1.23,1.02-2.07,2.92-2.07,5.09c0,2.18,0.83,4.08,2.07,5.09c0.19-0.15,0.36-0.33,0.53-0.52
				c0.57,1.22,1.33,2.24,2.22,2.97c0.9-0.74,1.66-1.77,2.23-3c0.17,0.2,0.36,0.39,0.55,0.55c1.23-1.02,2.07-2.92,2.07-5.09
				C74.07,265,73.23,263.1,72,262.08z"/>
			<path class="st1" d="M71.36,263.12c-0.05,0.04-0.09,0.08-0.13,0.12c-0.45-1.25-1.15-2.3-2-3c-0.85,0.7-1.54,1.74-1.99,2.98
				c-0.04-0.04-0.08-0.07-0.12-0.1c-0.95,0.78-1.59,2.24-1.59,3.91c0,1.67,0.64,3.13,1.59,3.91c0.14-0.12,0.28-0.25,0.41-0.4
				c0.44,0.93,1.02,1.72,1.7,2.28c0.69-0.57,1.27-1.36,1.71-2.3c0.13,0.15,0.27,0.3,0.42,0.42c0.95-0.78,1.59-2.24,1.59-3.91
				C72.94,265.35,72.31,263.9,71.36,263.12z"/>
			<path class="st2" d="M70.81,262.37c-0.03,0.03-0.07,0.06-0.1,0.09c-0.33-0.93-0.85-1.7-1.48-2.22c-0.63,0.52-1.14,1.29-1.48,2.21
				c-0.03-0.03-0.06-0.05-0.09-0.08c-0.7,0.58-1.18,1.66-1.18,2.9c0,1.24,0.47,2.32,1.18,2.9c0.11-0.09,0.21-0.19,0.3-0.3
				c0.32,0.69,0.75,1.27,1.26,1.69c0.51-0.42,0.94-1.01,1.27-1.7c0.1,0.11,0.2,0.22,0.31,0.31c0.7-0.58,1.18-1.66,1.18-2.9
				C71.98,264.03,71.51,262.95,70.81,262.37z"/>
		</g>
		<g>
			<polygon class="st28" points="72.45,262.15 64.85,265.3 64.85,247.32 72.45,247.32 			"/>
			<polygon class="st29" points="68.28,247.32 64.85,247.32 64.85,265.3 68.28,263.88 			"/>
		</g>
		<polygon class="st27" points="77.54,221.92 60.35,228.98 60.35,255.03 81.02,247.25 		"/>
		<polygon class="st12" points="77.54,227.58 60.35,234.64 60.35,260.69 81.02,252.91 		"/>
		<polygon class="st27" points="72.75,256.03 72.75,244.68 64.56,247.98 64.56,259.11 65.44,258.78 65.44,248.58 71.87,245.98 
			71.87,256.36 		"/>
		<path class="st27" d="M60.35,238.59c5.41-2.04,16.38-6.23,17.77-6.76l-0.08-0.58l-0.11-0.29c-0.15,0.06-11.75,4.49-17.58,6.69
			V238.59z"/>
	</g>
	<g>
		<g>
			<path class="st0" d="M113.27,262.08c0.06,0.05,0.12,0.1,0.18,0.16c0.58-1.63,1.49-2.99,2.6-3.91c1.11,0.91,2.01,2.26,2.59,3.89
				c0.05-0.05,0.1-0.09,0.15-0.14c1.23,1.02,2.07,2.92,2.07,5.09c0,2.18-0.83,4.08-2.07,5.09c-0.19-0.15-0.36-0.33-0.53-0.52
				c-0.57,1.22-1.33,2.24-2.22,2.97c-0.9-0.74-1.66-1.77-2.23-3c-0.17,0.2-0.36,0.39-0.55,0.55c-1.23-1.02-2.07-2.92-2.07-5.09
				C111.2,265,112.03,263.1,113.27,262.08z"/>
			<path class="st1" d="M113.91,263.12c0.05,0.04,0.09,0.08,0.13,0.12c0.45-1.25,1.15-2.3,2-3c0.85,0.7,1.54,1.74,1.99,2.98
				c0.04-0.04,0.08-0.07,0.12-0.1c0.95,0.78,1.59,2.24,1.59,3.91c0,1.67-0.64,3.13-1.59,3.91c-0.14-0.12-0.28-0.25-0.41-0.4
				c-0.44,0.93-1.02,1.72-1.7,2.28c-0.69-0.57-1.27-1.36-1.71-2.3c-0.13,0.15-0.27,0.3-0.42,0.42c-0.95-0.78-1.59-2.24-1.59-3.91
				C112.32,265.35,112.96,263.9,113.91,263.12z"/>
			<path class="st2" d="M114.46,262.37c0.03,0.03,0.07,0.06,0.1,0.09c0.33-0.93,0.85-1.7,1.48-2.22c0.63,0.52,1.14,1.29,1.48,2.21
				c0.03-0.03,0.06-0.05,0.09-0.08c0.7,0.58,1.18,1.66,1.18,2.9c0,1.24-0.47,2.32-1.18,2.9c-0.11-0.09-0.21-0.19-0.3-0.3
				c-0.32,0.69-0.75,1.27-1.26,1.69c-0.51-0.42-0.94-1.01-1.27-1.7c-0.1,0.11-0.2,0.22-0.31,0.31c-0.7-0.58-1.18-1.66-1.18-2.9
				C113.28,264.03,113.76,262.95,114.46,262.37z"/>
		</g>
		<g>
			<polygon class="st28" points="112.81,262.15 120.41,265.3 120.41,247.32 112.81,247.32 			"/>
			<polygon class="st29" points="116.98,247.32 120.41,247.32 120.41,265.3 116.98,263.88 			"/>
		</g>
		<polygon class="st27" points="107.73,221.92 124.92,228.98 124.92,255.03 104.25,247.25 		"/>
		<polygon class="st12" points="107.73,227.58 124.92,234.64 124.92,260.69 104.25,252.91 		"/>
		<polygon class="st27" points="112.52,256.03 112.52,244.68 120.71,247.98 120.71,259.11 119.83,258.78 119.83,248.58 
			113.4,245.98 113.4,256.36 		"/>
		<path class="st27" d="M124.92,238.59c-5.41-2.04-16.38-6.23-17.77-6.76l0.08-0.58l0.11-0.29c0.15,0.06,11.75,4.49,17.58,6.69
			V238.59z"/>
	</g>
	<ellipse class="st3" cx="92.28" cy="232.93" rx="18.02" ry="39.84"/>
	<path class="st30" d="M92.28,193.09c-11.04,9.73-18.02,23.97-18.02,39.84s6.97,30.11,18.02,39.84
		c-6.37-15.01-8.96-23.97-8.96-39.84C83.32,218.24,84.4,206.57,92.28,193.09z"/>
	<path class="st31" d="M92.28,193.09c11.04,9.73,18.02,23.97,18.02,39.84s-6.97,30.11-18.02,39.84c6.37-15.01,8.96-23.97,8.96-39.84
		C101.23,218.24,100.15,206.57,92.28,193.09z"/>
	<path class="st12" d="M92.84,209.52c0,0-12.15,3.13-12.15,13.87c0,0,6.61-4.07,12.15-4.07c5.54,0,12.15,4.07,12.15,4.07
		C105,212.65,92.84,209.52,92.84,209.52z"/>
	<g>
		<path class="st29" d="M95.49,210.5c-1.54-0.69-2.65-0.98-2.65-0.98s-12.15,3.13-12.15,13.87c0,0,2.43-1.49,5.57-2.67
			C87.45,214.97,92.37,211.9,95.49,210.5z"/>
	</g>
	<path class="st20" d="M102.67,230.56c-6.15-3.14-13.5-3.14-19.66,0c-3.34,1.7-6.2,3.54-8.66,5.47c0.04,0.72,0.11,1.42,0.18,2.13
		c2.56-2.13,5.62-4.17,9.28-6.03c5.65-2.88,12.41-2.88,18.06,0c3.17,1.62,5.89,3.36,8.22,5.18c0.06-0.7,0.11-1.41,0.14-2.12
		C108.03,233.57,105.53,232.01,102.67,230.56z"/>
</g>
<g>
	<g>
		<path class="st0" d="M98.97,402.51c-0.13,0.1-0.25,0.22-0.37,0.33c-1.23-3.43-3.14-6.29-5.47-8.22c-2.33,1.92-4.23,4.76-5.46,8.18
			c-0.11-0.1-0.21-0.2-0.32-0.29c-2.6,2.14-4.35,6.14-4.35,10.72c0,4.58,1.75,8.58,4.35,10.72c0.39-0.32,0.76-0.7,1.11-1.1
			c1.2,2.56,2.79,4.71,4.67,6.26c1.89-1.56,3.49-3.72,4.69-6.31c0.36,0.42,0.75,0.81,1.16,1.15c2.6-2.14,4.35-6.14,4.35-10.72
			C103.32,408.64,101.57,404.65,98.97,402.51z"/>
		<path class="st1" d="M97.62,404.68c-0.1,0.08-0.19,0.17-0.28,0.25c-0.94-2.64-2.41-4.83-4.2-6.31c-1.79,1.47-3.25,3.66-4.19,6.28
			c-0.08-0.07-0.16-0.15-0.25-0.22c-1.99,1.65-3.34,4.71-3.34,8.23c0,3.52,1.34,6.59,3.34,8.23c0.3-0.25,0.59-0.53,0.86-0.84
			c0.92,1.97,2.14,3.62,3.58,4.8c1.45-1.2,2.68-2.86,3.6-4.84c0.28,0.33,0.57,0.62,0.89,0.88c1.99-1.65,3.34-4.71,3.34-8.23
			C100.96,409.39,99.62,406.32,97.62,404.68z"/>
		<path class="st2" d="M96.47,403.1c-0.07,0.06-0.14,0.12-0.21,0.19c-0.7-1.95-1.79-3.58-3.11-4.67c-1.32,1.09-2.4,2.71-3.1,4.65
			c-0.06-0.06-0.12-0.11-0.18-0.16c-1.48,1.22-2.47,3.49-2.47,6.1c0,2.61,1,4.88,2.47,6.1c0.22-0.18,0.43-0.4,0.63-0.63
			c0.68,1.46,1.59,2.68,2.65,3.56c1.07-0.89,1.99-2.12,2.67-3.59c0.21,0.24,0.43,0.46,0.66,0.65c1.48-1.22,2.47-3.49,2.47-6.1
			C98.94,406.59,97.94,404.32,96.47,403.1z"/>
	</g>
	<g>
		<path class="st0" d="M69.84,405.69c-0.05,0.04-0.1,0.09-0.15,0.13c-0.49-1.38-1.26-2.53-2.2-3.3c-0.93,0.77-1.7,1.91-2.19,3.29
			c-0.04-0.04-0.09-0.08-0.13-0.11c-1.04,0.86-1.75,2.47-1.75,4.31c0,1.84,0.7,3.45,1.75,4.31c0.16-0.13,0.31-0.28,0.45-0.44
			c0.48,1.03,1.12,1.89,1.88,2.51c0.76-0.63,1.4-1.5,1.88-2.53c0.15,0.17,0.3,0.33,0.46,0.46c1.04-0.86,1.75-2.47,1.75-4.31
			C71.59,408.15,70.89,406.55,69.84,405.69z"/>
		<path class="st1" d="M69.3,406.56c-0.04,0.03-0.08,0.07-0.11,0.1c-0.38-1.06-0.97-1.94-1.69-2.54c-0.72,0.59-1.3,1.47-1.68,2.52
			c-0.03-0.03-0.07-0.06-0.1-0.09c-0.8,0.66-1.34,1.89-1.34,3.31s0.54,2.65,1.34,3.31c0.12-0.1,0.24-0.21,0.34-0.34
			c0.37,0.79,0.86,1.45,1.44,1.93c0.58-0.48,1.08-1.15,1.45-1.95c0.11,0.13,0.23,0.25,0.36,0.35c0.8-0.66,1.34-1.89,1.34-3.31
			S70.1,407.22,69.3,406.56z"/>
		<path class="st2" d="M68.84,405.93c-0.03,0.02-0.06,0.05-0.08,0.07c-0.28-0.78-0.72-1.44-1.25-1.88
			c-0.53,0.44-0.97,1.09-1.25,1.87c-0.02-0.02-0.05-0.04-0.07-0.07c-0.59,0.49-0.99,1.4-0.99,2.45c0,1.05,0.4,1.96,0.99,2.45
			c0.09-0.07,0.17-0.16,0.25-0.25c0.27,0.59,0.64,1.08,1.07,1.43c0.43-0.36,0.8-0.85,1.07-1.44c0.08,0.1,0.17,0.19,0.26,0.26
			c0.59-0.49,0.99-1.4,0.99-2.45C69.83,407.33,69.43,406.42,68.84,405.93z"/>
	</g>
	<g>
		<path class="st0" d="M120,405.69c-0.05,0.04-0.1,0.09-0.15,0.13c-0.49-1.38-1.26-2.53-2.2-3.3c-0.93,0.77-1.7,1.91-2.19,3.29
			c-0.04-0.04-0.09-0.08-0.13-0.11c-1.04,0.86-1.75,2.47-1.75,4.31c0,1.84,0.7,3.45,1.75,4.31c0.16-0.13,0.31-0.28,0.45-0.44
			c0.48,1.03,1.12,1.89,1.88,2.51c0.76-0.63,1.4-1.5,1.88-2.53c0.15,0.17,0.3,0.33,0.46,0.46c1.04-0.86,1.75-2.47,1.75-4.31
			C121.75,408.15,121.04,406.55,120,405.69z"/>
		<path class="st1" d="M119.46,406.56c-0.04,0.03-0.08,0.07-0.11,0.1c-0.38-1.06-0.97-1.94-1.69-2.54c-0.72,0.59-1.3,1.47-1.68,2.52
			c-0.03-0.03-0.07-0.06-0.1-0.09c-0.8,0.66-1.34,1.89-1.34,3.31s0.54,2.65,1.34,3.31c0.12-0.1,0.24-0.21,0.34-0.34
			c0.37,0.79,0.86,1.45,1.44,1.93c0.58-0.48,1.08-1.15,1.45-1.95c0.11,0.13,0.23,0.25,0.36,0.35c0.8-0.66,1.34-1.89,1.34-3.31
			S120.26,407.22,119.46,406.56z"/>
		<path class="st2" d="M118.99,405.93c-0.03,0.02-0.06,0.05-0.08,0.07c-0.28-0.78-0.72-1.44-1.25-1.88
			c-0.53,0.44-0.97,1.09-1.25,1.87c-0.02-0.02-0.05-0.04-0.07-0.07c-0.59,0.49-0.99,1.4-0.99,2.45c0,1.05,0.4,1.96,0.99,2.45
			c0.09-0.07,0.17-0.16,0.25-0.25c0.27,0.59,0.64,1.08,1.07,1.43c0.43-0.36,0.8-0.85,1.07-1.44c0.08,0.1,0.17,0.19,0.26,0.26
			c0.59-0.49,0.99-1.4,0.99-2.45C119.98,407.33,119.58,406.42,118.99,405.93z"/>
	</g>
	<g>
		<polygon class="st32" points="114.89,408.24 120.68,408.24 125.57,392.67 110,392.67 		"/>
		<polygon class="st33" points="125.57,392.67 120.68,408.24 117.66,408.24 122.55,392.67 		"/>
		<polygon class="st32" points="113.03,402.33 111.73,398.18 123.84,398.18 122.54,402.33 		"/>
		<polygon class="st32" points="70.4,408.24 64.61,408.24 59.72,392.67 75.29,392.67 		"/>
		<polygon class="st33" points="59.72,392.67 64.61,408.24 67.63,408.24 62.74,392.67 		"/>
		<polygon class="st32" points="72.26,402.33 73.56,398.18 61.45,398.18 62.76,402.33 		"/>
		<path class="st7" d="M135.21,395.91l-41-54.65c-1-1.34-2.86-1.34-3.86,0l-41,54.65c-1.36,1.81-0.19,4.55,1.93,4.55h81.99
			C135.4,400.46,136.56,397.71,135.21,395.91z"/>
		<path class="st34" d="M92.28,340.26c-0.71,0-1.43,0.33-1.93,1l-41,54.65c-1.36,1.81-0.19,4.55,1.93,4.55h41V340.26z"/>
		<g>
			<path class="st14" d="M92.28,356.26c0,0-13.32,7.3-13.32,25.23c0,17.93,0,28.76,0,28.76h26.65c0,0,0-10.84,0-28.76
				C105.6,363.57,92.28,356.26,92.28,356.26z"/>
			<path class="st15" d="M78.95,381.49c0,17.93,0,28.76,0,28.76h14.15c0.31-17.59-0.83-53.99-0.83-53.99S78.95,363.56,78.95,381.49z
				"/>
			<path class="st16" d="M92.28,356.26c0,0-13.32,7.3-13.32,25.23c0,17.93,0,28.76,0,28.76h4.34c0,0,0-10.84,0-28.76
				C83.29,363.57,92.28,356.26,92.28,356.26z"/>
			<path class="st17" d="M92.28,356.26c0,0,13.32,7.3,13.32,25.23c0,17.93,0,28.76,0,28.76h-4.34c0,0,0-10.84,0-28.76
				C101.26,363.57,92.28,356.26,92.28,356.26z"/>
		</g>
		<path class="st35" d="M74.66,400.46v-20.34c0-0.72-0.44-1.33-1.13-1.56c-0.68-0.23-1.41,0-1.84,0.57l-11.01,14.64
			c-0.21,0.28-0.33,0.64-0.33,0.99v5.7h0.75v-5.7c0-0.19,0.06-0.38,0.18-0.54l11.01-14.64c0.29-0.38,0.7-0.41,1-0.31
			c0.3,0.1,0.61,0.37,0.61,0.85v20.34H74.66z"/>
		<path class="st12" d="M92.78,370.95c0,0-10.4,2.68-10.4,11.87c0,0,5.66-3.48,10.4-3.48s10.4,3.48,10.4,3.48
			C103.17,373.63,92.78,370.95,92.78,370.95z"/>
		<g>
			<path class="st29" d="M95.04,371.79c-1.32-0.59-2.27-0.84-2.27-0.84s-10.4,2.68-10.4,11.87c0,0,2.08-1.27,4.77-2.28
				C88.17,375.61,92.37,372.98,95.04,371.79z"/>
		</g>
		<path class="st36" d="M110.63,400.46v-20.34c0-0.72,0.44-1.33,1.13-1.56c0.68-0.23,1.41,0,1.84,0.57l11.01,14.64
			c0.21,0.28,0.33,0.64,0.33,0.99v5.7h-0.75v-5.7c0-0.19-0.06-0.38-0.18-0.54L113,379.57c-0.29-0.38-0.7-0.41-1-0.31
			c-0.3,0.1-0.61,0.37-0.61,0.85v20.34H110.63z"/>
	</g>
</g>
<g>
	<g>
		<g>
			<path class="st0" d="M253.68,125.2c-0.08,0.06-0.15,0.13-0.23,0.2c-0.76-2.12-1.94-3.89-3.39-5.09
				c-1.44,1.19-2.62,2.95-3.38,5.06c-0.07-0.06-0.13-0.12-0.2-0.18c-1.61,1.33-2.69,3.8-2.69,6.63c0,2.84,1.08,5.31,2.69,6.63
				c0.24-0.2,0.47-0.43,0.69-0.68c0.74,1.59,1.73,2.92,2.89,3.87c1.17-0.96,2.16-2.3,2.9-3.9c0.22,0.26,0.46,0.5,0.72,0.71
				c1.61-1.33,2.69-3.8,2.69-6.63C256.37,129,255.29,126.53,253.68,125.2z"/>
			<path class="st1" d="M252.85,126.55c-0.06,0.05-0.12,0.1-0.18,0.16c-0.58-1.63-1.49-2.99-2.6-3.91
				c-1.11,0.91-2.01,2.26-2.59,3.89c-0.05-0.05-0.1-0.09-0.15-0.14c-1.23,1.02-2.07,2.92-2.07,5.09c0,2.18,0.83,4.08,2.07,5.09
				c0.19-0.15,0.36-0.33,0.53-0.52c0.57,1.22,1.33,2.24,2.22,2.97c0.9-0.74,1.66-1.77,2.23-3c0.17,0.2,0.36,0.39,0.55,0.55
				c1.23-1.02,2.07-2.92,2.07-5.09C254.91,129.46,254.08,127.57,252.85,126.55z"/>
			<path class="st37" d="M252.13,125.57c-0.04,0.04-0.09,0.08-0.13,0.12c-0.43-1.21-1.1-2.21-1.93-2.89
				c-0.82,0.68-1.49,1.68-1.92,2.88c-0.04-0.03-0.07-0.07-0.11-0.1c-0.91,0.75-1.53,2.16-1.53,3.77c0,1.61,0.62,3.02,1.53,3.77
				c0.14-0.11,0.27-0.24,0.39-0.39c0.42,0.9,0.98,1.66,1.64,2.2c0.66-0.55,1.23-1.31,1.65-2.22c0.13,0.15,0.26,0.29,0.41,0.4
				c0.91-0.75,1.53-2.16,1.53-3.77C253.66,127.73,253.05,126.33,252.13,125.57z"/>
		</g>
		<g>
			<path class="st0" d="M226.96,113.75c-0.08,0.06-0.15,0.13-0.23,0.2c-0.76-2.12-1.94-3.89-3.39-5.09
				c-1.44,1.19-2.62,2.95-3.38,5.06c-0.07-0.06-0.13-0.12-0.2-0.18c-1.61,1.33-2.69,3.8-2.69,6.63c0,2.84,1.08,5.31,2.69,6.63
				c0.24-0.2,0.47-0.43,0.69-0.68c0.74,1.59,1.73,2.92,2.89,3.87c1.17-0.96,2.16-2.3,2.9-3.9c0.22,0.26,0.46,0.5,0.72,0.71
				c1.61-1.33,2.69-3.8,2.69-6.63C229.65,117.55,228.56,115.08,226.96,113.75z"/>
			<path class="st1" d="M226.12,115.1c-0.06,0.05-0.12,0.1-0.18,0.16c-0.58-1.63-1.49-2.99-2.6-3.91c-1.11,0.91-2.01,2.26-2.59,3.89
				c-0.05-0.05-0.1-0.09-0.15-0.14c-1.23,1.02-2.07,2.92-2.07,5.09c0,2.18,0.83,4.08,2.07,5.09c0.19-0.15,0.36-0.33,0.53-0.52
				c0.57,1.22,1.33,2.24,2.22,2.97c0.9-0.74,1.66-1.77,2.23-3c0.17,0.2,0.36,0.39,0.55,0.55c1.23-1.02,2.07-2.92,2.07-5.09
				C228.19,118.01,227.35,116.11,226.12,115.1z"/>
			<path class="st2" d="M225.4,114.12c-0.04,0.04-0.09,0.08-0.13,0.12c-0.43-1.21-1.1-2.21-1.93-2.89
				c-0.82,0.68-1.49,1.68-1.92,2.88c-0.04-0.03-0.07-0.07-0.11-0.1c-0.91,0.75-1.53,2.16-1.53,3.77c0,1.61,0.62,3.02,1.53,3.77
				c0.14-0.11,0.27-0.24,0.39-0.39c0.42,0.9,0.98,1.66,1.64,2.2c0.66-0.55,1.23-1.31,1.65-2.22c0.13,0.15,0.26,0.29,0.41,0.4
				c0.91-0.75,1.53-2.16,1.53-3.77C226.93,116.28,226.32,114.88,225.4,114.12z"/>
		</g>
		<path class="st38" d="M213.52,101.43c-4.26,2.3-7.27,1.95-8.23,6.7c-0.13,3.06,2.31,5.62,5.38,5.62h32.95v-42.6
			C243.63,83.49,224.12,95.71,213.52,101.43z"/>
		<g>
			<path class="st2" d="M243.63,108.13h-38.58l0.24-1.2c0.96-4.74,3.97-8.81,8.23-11.11c10.59-5.73,30.1-17.95,30.1-30.28V108.13z"
				/>
			<g>
				<rect x="217.46" y="96.22" class="st2" width="11.79" height="9.46"/>
				<polygon class="st2" points="226.36,96.22 217.46,96.22 217.46,98.82 226.36,98.82 226.36,105.69 229.25,105.69 229.25,98.82 
					229.25,96.22 				"/>
			</g>
		</g>
		<g>
			<path class="st0" d="M273.04,113.75c0.08,0.06,0.15,0.13,0.23,0.2c0.76-2.12,1.94-3.89,3.39-5.09c1.44,1.19,2.62,2.95,3.38,5.06
				c0.07-0.06,0.13-0.12,0.2-0.18c1.61,1.33,2.69,3.8,2.69,6.63c0,2.84-1.08,5.31-2.69,6.63c-0.24-0.2-0.47-0.43-0.69-0.68
				c-0.74,1.59-1.73,2.92-2.89,3.87c-1.17-0.96-2.16-2.3-2.9-3.9c-0.22,0.26-0.46,0.5-0.72,0.71c-1.61-1.33-2.69-3.8-2.69-6.63
				C270.35,117.55,271.44,115.08,273.04,113.75z"/>
			<path class="st1" d="M273.88,115.1c0.06,0.05,0.12,0.1,0.18,0.16c0.58-1.63,1.49-2.99,2.6-3.91c1.11,0.91,2.01,2.26,2.59,3.89
				c0.05-0.05,0.1-0.09,0.15-0.14c1.23,1.02,2.07,2.92,2.07,5.09c0,2.18-0.83,4.08-2.07,5.09c-0.19-0.15-0.36-0.33-0.53-0.52
				c-0.57,1.22-1.33,2.24-2.22,2.97c-0.9-0.74-1.66-1.77-2.23-3c-0.17,0.2-0.36,0.39-0.55,0.55c-1.23-1.02-2.07-2.92-2.07-5.09
				C271.81,118.01,272.65,116.11,273.88,115.1z"/>
			<path class="st2" d="M274.6,114.12c0.04,0.04,0.09,0.08,0.13,0.12c0.43-1.21,1.1-2.21,1.93-2.89c0.82,0.68,1.49,1.68,1.92,2.88
				c0.04-0.03,0.07-0.07,0.11-0.1c0.91,0.75,1.53,2.16,1.53,3.77c0,1.61-0.62,3.02-1.53,3.77c-0.14-0.11-0.27-0.24-0.39-0.39
				c-0.42,0.9-0.98,1.66-1.64,2.2c-0.66-0.55-1.23-1.31-1.65-2.22c-0.13,0.15-0.26,0.29-0.41,0.4c-0.91-0.75-1.53-2.16-1.53-3.77
				C273.07,116.28,273.68,114.88,274.6,114.12z"/>
		</g>
		<path class="st38" d="M286.48,101.43c4.26,2.3,7.27,1.95,8.23,6.7c0.13,3.06-2.31,5.62-5.38,5.62h-32.95v-42.6
			C256.37,83.49,275.88,95.71,286.48,101.43z"/>
		<g>
			<path class="st2" d="M256.37,108.13h38.58l-0.24-1.2c-0.96-4.74-3.97-8.81-8.23-11.11c-10.59-5.73-30.1-17.95-30.1-30.28V108.13z
				"/>
			<g>
				
					<rect x="270.75" y="96.22" transform="matrix(-1 -4.488733e-11 4.488733e-11 -1 553.2833 201.9109)" class="st2" width="11.79" height="9.46"/>
				<polygon class="st2" points="273.64,96.22 282.54,96.22 282.54,98.82 273.64,98.82 273.64,105.69 270.75,105.69 270.75,98.82 
					270.75,96.22 				"/>
			</g>
		</g>
		<g>
			<path class="st39" d="M250.09,50.92c0,0-15.57,8.53-15.57,29.48s0,33.62,0,33.62h31.14c0,0,0-12.67,0-33.62
				S250.09,50.92,250.09,50.92z"/>
			<path class="st3" d="M234.51,80.41c0,20.95,0,33.62,0,33.62h16.54c0.37-20.56-0.97-63.1-0.97-63.1S234.51,59.46,234.51,80.41z"/>
			<path class="st21" d="M250.09,50.92c0,0-15.57,8.53-15.57,29.48s0,33.62,0,33.62h5.07c0,0,0-12.67,0-33.62
				S250.09,50.92,250.09,50.92z"/>
			<path class="st40" d="M250.09,50.92c0,0,15.57,8.53,15.57,29.48s0,33.62,0,33.62h-5.07c0,0,0-12.67,0-33.62
				S250.09,50.92,250.09,50.92z"/>
		</g>
		<polygon class="st2" points="257.87,127.72 242.3,127.72 234.51,114.03 265.66,114.03 		"/>
		<polygon class="st2" points="234.51,114.03 242.3,127.72 247.32,127.72 239.53,114.03 		"/>
		<polygon class="st2" points="265.64,114.03 257.85,127.72 252.83,127.72 260.62,114.03 		"/>
		<rect x="234.57" y="93.54" class="st2" width="31.07" height="3.43"/>
		<rect x="234.57" y="102.39" class="st2" width="31.07" height="3.43"/>
	</g>
	<path class="st21" d="M250.49,65.53c0,0-9.57,2.47-9.57,10.93c0,0,5.21-3.2,9.57-3.2s9.57,3.2,9.57,3.2
		C260.06,68,250.49,65.53,250.49,65.53z"/>
</g>
<g>
	<g>
		<path class="st0" d="M254.22,274.5c-0.09,0.07-0.18,0.15-0.26,0.23c-0.87-2.44-2.23-4.47-3.89-5.84c-1.65,1.36-3,3.38-3.88,5.81
			c-0.08-0.07-0.15-0.14-0.23-0.2c-1.85,1.52-3.09,4.36-3.09,7.62c0,3.26,1.24,6.09,3.09,7.62c0.28-0.23,0.54-0.49,0.79-0.78
			c0.85,1.82,1.98,3.35,3.32,4.45c1.34-1.11,2.48-2.65,3.33-4.48c0.26,0.3,0.53,0.58,0.82,0.82c1.85-1.52,3.09-4.36,3.09-7.62
			C257.31,278.86,256.06,276.02,254.22,274.5z"/>
		<path class="st1" d="M253.26,276.04c-0.07,0.06-0.14,0.12-0.2,0.18c-0.67-1.87-1.71-3.43-2.99-4.48c-1.27,1.05-2.31,2.6-2.98,4.46
			c-0.06-0.05-0.12-0.11-0.18-0.16c-1.42,1.17-2.37,3.35-2.37,5.85c0,2.5,0.96,4.68,2.37,5.85c0.21-0.18,0.42-0.38,0.61-0.6
			c0.65,1.4,1.52,2.57,2.55,3.41c1.03-0.85,1.9-2.03,2.56-3.44c0.2,0.23,0.41,0.44,0.63,0.63c1.42-1.17,2.37-3.35,2.37-5.85
			C255.63,279.39,254.67,277.21,253.26,276.04z"/>
		<path class="st2" d="M252.43,274.93c-0.05,0.04-0.1,0.09-0.15,0.13c-0.5-1.39-1.27-2.54-2.21-3.32c-0.94,0.78-1.71,1.92-2.21,3.3
			c-0.04-0.04-0.09-0.08-0.13-0.12c-1.05,0.87-1.76,2.48-1.76,4.33s0.71,3.47,1.76,4.33c0.16-0.13,0.31-0.28,0.45-0.44
			c0.48,1.04,1.13,1.9,1.89,2.53c0.76-0.63,1.41-1.5,1.89-2.55c0.15,0.17,0.3,0.33,0.47,0.46c1.05-0.87,1.76-2.48,1.76-4.33
			S253.48,275.79,252.43,274.93z"/>
	</g>
	<polygon class="st2" points="256.77,276.69 243.05,276.69 238.07,256.2 261.75,256.2 	"/>
	<polygon class="st13" points="238.07,256.2 243.05,276.69 251.38,276.69 246.4,256.2 	"/>
	<path class="st2" d="M237.06,249.18c0,0-10.41,1-11.83-8.01h-5.45l8.64,32.6h6.09c0,0,1.6-14.87,7.75-16.3L237.06,249.18z"/>
	<polygon class="st13" points="219.78,241.17 228.42,273.77 231.32,273.77 222.68,241.17 	"/>
	<path class="st2" d="M262.63,249.18c0,0,10.41,1,11.83-8.01h5.45l-8.64,32.6h-6.09c0,0-1.6-14.87-7.75-16.3L262.63,249.18z"/>
	<polygon class="st13" points="279.91,241.17 271.27,273.77 268.37,273.77 277.01,241.17 	"/>
	<ellipse class="st41" cx="250.09" cy="230.96" rx="18.02" ry="39.84"/>
	<path class="st42" d="M250.09,191.12c-11.04,9.73-18.02,23.97-18.02,39.84s6.97,30.11,18.02,39.84
		c-6.37-15.01-8.96-23.97-8.96-39.84C241.13,216.27,242.21,204.6,250.09,191.12z"/>
	<path class="st43" d="M250.09,191.12c11.04,9.73,18.02,23.97,18.02,39.84s-6.97,30.11-18.02,39.84
		c6.37-15.01,8.96-23.97,8.96-39.84C259.04,216.27,257.96,204.6,250.09,191.12z"/>
	<g>
		<circle class="st8" cx="249.34" cy="229.58" r="13.02"/>
		<circle class="st44" cx="250.09" cy="228.14" r="13.02"/>
		<circle class="st16" cx="250.09" cy="228.14" r="9.66"/>
		<path class="st16" d="M241.87,228.64c0.54-4.33,4.02-7.82,8.35-8.36c3.13-0.39,6.01,0.72,8.02,2.71c-1.9-3-5.4-4.89-9.3-4.44
			c-4.36,0.5-7.9,4.01-8.44,8.36c-0.39,3.17,0.76,6.08,2.79,8.1C242.15,233.2,241.58,231,241.87,228.64z"/>
	</g>
	<path class="st20" d="M259.74,228.14c0-2.16-0.72-4.14-1.91-5.75l-13.5,13.5c1.61,1.19,3.59,1.91,5.75,1.91
		c0.47,0,0.92-0.04,1.37-0.11l8.18-8.18C259.7,229.06,259.74,228.61,259.74,228.14z"/>
	<path class="st20" d="M240.44,227.94l9.44-9.44c-0.95,0.02-1.86,0.17-2.72,0.44l-6.27,6.27
		C240.61,226.08,240.46,226.99,240.44,227.94z"/>
	<path class="st20" d="M242.07,233.54l13.4-13.4c-0.95-0.64-2.03-1.11-3.18-1.38l-11.61,11.61
		C240.96,231.51,241.43,232.59,242.07,233.54z"/>
</g>
<g>
	<g>
		<path class="st0" d="M258.39,399.74c-0.15,0.12-0.29,0.26-0.44,0.39c-1.46-4.07-3.72-7.46-6.5-9.75c-2.76,2.28-5.02,5.65-6.48,9.7
			c-0.13-0.12-0.25-0.23-0.38-0.34c-3.08,2.54-5.16,7.28-5.16,12.72c0,5.44,2.08,10.17,5.16,12.72c0.47-0.38,0.91-0.83,1.32-1.3
			c1.42,3.04,3.31,5.59,5.54,7.42c2.24-1.85,4.14-4.42,5.56-7.48c0.43,0.5,0.89,0.96,1.37,1.36c3.08-2.54,5.16-7.28,5.16-12.72
			C263.55,407.02,261.47,402.28,258.39,399.74z"/>
		<path class="st1" d="M256.79,402.31c-0.11,0.09-0.23,0.2-0.34,0.3c-1.12-3.13-2.86-5.73-4.99-7.49c-2.12,1.75-3.85,4.34-4.97,7.45
			c-0.1-0.09-0.19-0.18-0.29-0.26c-2.37,1.95-3.96,5.59-3.96,9.77c0,4.18,1.6,7.81,3.96,9.77c0.36-0.3,0.7-0.63,1.02-1
			c1.09,2.33,2.54,4.29,4.25,5.7c1.72-1.42,3.18-3.39,4.27-5.75c0.33,0.39,0.68,0.74,1.05,1.05c2.37-1.95,3.96-5.59,3.96-9.77
			C260.75,407.9,259.15,404.26,256.79,402.31z"/>
		<path class="st2" d="M255.41,400.45c-0.08,0.07-0.17,0.15-0.25,0.22c-0.83-2.32-2.12-4.24-3.69-5.55
			c-1.57,1.3-2.85,3.21-3.68,5.52c-0.07-0.07-0.14-0.13-0.22-0.19c-1.75,1.45-2.93,4.14-2.93,7.23c0,3.09,1.18,5.79,2.93,7.23
			c0.27-0.22,0.52-0.47,0.75-0.74c0.81,1.73,1.88,3.18,3.15,4.22c1.27-1.05,2.36-2.51,3.16-4.26c0.25,0.29,0.5,0.55,0.78,0.78
			c1.75-1.45,2.93-4.14,2.93-7.23C258.35,404.59,257.16,401.89,255.41,400.45z"/>
	</g>
	<g>
		<g>
			<g>
				<g>
					<g>
						<rect x="226.34" y="402.74" class="st45" width="9.17" height="8.09"/>
						<rect x="226.34" y="402.74" class="st46" width="2.42" height="8.09"/>
						<rect x="233.17" y="402.74" class="st46" width="2.42" height="8.09"/>
					</g>
					<rect x="226.34" y="407.71" class="st47" width="9.26" height="1.26"/>
					<polygon class="st48" points="236.83,413.82 225.1,413.82 226.34,410.83 235.59,410.83 					"/>
					<polygon class="st49" points="226.34,410.83 225.1,413.82 227.55,413.82 228.79,410.83 					"/>
					<polygon class="st50" points="235.62,410.83 236.86,413.82 234.41,413.82 233.17,410.83 					"/>
				</g>
				<polygon class="st48" points="234.38,400.63 227.55,400.63 226.34,402.74 235.59,402.74 				"/>
				<polygon class="st50" points="234.38,400.63 235.59,402.74 233.14,402.74 231.93,400.63 				"/>
			</g>
			<polygon class="st49" points="227.55,400.63 226.34,402.74 228.79,402.74 230,400.63 			"/>
		</g>
		<g>
			<path class="st48" d="M234.58,398.9h-8.25v-19.33c0-2.28,1.85-4.12,4.12-4.12h0c2.28,0,4.12,1.85,4.12,4.12V398.9z"/>
			<path class="st51" d="M231.59,375.61c-0.36-0.1-0.74-0.16-1.13-0.16c-2.28,0-4.12,1.85-4.12,4.12v19.33h2.26v-19.33
				C228.59,377.69,229.86,376.1,231.59,375.61z"/>
		</g>
		<path class="st52" d="M239.1,403.67h-16.04c-2.92,0-5.11-2.68-4.53-5.54h0c0.25-1.22,0.98-2.29,2.03-2.97
			c5.39-3.46,22.28-15.24,22.28-27.15l0.87,30.91C243.79,401.52,241.7,403.67,239.1,403.67z"/>
		<path class="st53" d="M220.56,399.42c5.39-3.46,22.28-15.24,22.28-27.15l0.78,27.69c0.07-0.34,0.1-0.68,0.09-1.04l-0.87-30.91
			c0,11.91-16.89,23.69-22.28,27.15c-1.05,0.67-1.78,1.74-2.03,2.97c-0.22,1.09-0.04,2.15,0.43,3.05
			C219.33,400.47,219.87,399.86,220.56,399.42z"/>
	</g>
	<g>
		<g>
			<g>
				<g>
					<g>
						
							<rect x="267.25" y="402.74" transform="matrix(-1 -4.501389e-11 4.501389e-11 -1 543.6823 813.5766)" class="st45" width="9.17" height="8.09"/>
						
							<rect x="274.01" y="402.74" transform="matrix(-1 -4.431756e-11 4.431756e-11 -1 550.4336 813.5766)" class="st46" width="2.42" height="8.09"/>
						
							<rect x="267.17" y="402.74" transform="matrix(-1 -4.506851e-11 4.506851e-11 -1 536.7638 813.5766)" class="st46" width="2.42" height="8.09"/>
					</g>
					
						<rect x="267.17" y="407.71" transform="matrix(-1 -4.500057e-11 4.500057e-11 -1 543.5987 816.6734)" class="st47" width="9.26" height="1.26"/>
					<polygon class="st48" points="265.93,413.82 277.67,413.82 276.43,410.83 267.17,410.83 					"/>
					<polygon class="st49" points="276.43,410.83 277.67,413.82 275.22,413.82 273.98,410.83 					"/>
					<polygon class="st50" points="267.14,410.83 265.9,413.82 268.35,413.82 269.59,410.83 					"/>
				</g>
				<polygon class="st48" points="268.38,400.63 275.22,400.63 276.43,402.74 267.17,402.74 				"/>
				<polygon class="st50" points="268.38,400.63 267.17,402.74 269.62,402.74 270.83,400.63 				"/>
			</g>
			<polygon class="st49" points="275.22,400.63 276.43,402.74 273.98,402.74 272.76,400.63 			"/>
		</g>
		<g>
			<path class="st48" d="M268.18,398.9h8.25v-19.33c0-2.28-1.85-4.12-4.12-4.12h0c-2.28,0-4.12,1.85-4.12,4.12V398.9z"/>
			<path class="st51" d="M271.18,375.61c0.36-0.1,0.74-0.16,1.13-0.16c2.28,0,4.12,1.85,4.12,4.12v19.33h-2.26v-19.33
				C274.17,377.69,272.9,376.1,271.18,375.61z"/>
		</g>
		<path class="st52" d="M263.66,403.67h16.04c2.92,0,5.11-2.68,4.53-5.54l0,0c-0.25-1.22-0.98-2.29-2.03-2.97
			c-5.39-3.46-22.28-15.24-22.28-27.15l-0.87,30.91C258.97,401.52,261.06,403.67,263.66,403.67z"/>
		<path class="st53" d="M282.2,399.42c-5.39-3.46-22.28-15.24-22.28-27.15l-0.78,27.69c-0.07-0.34-0.1-0.68-0.09-1.04l0.87-30.91
			c0,11.91,16.89,23.69,22.28,27.15c1.05,0.67,1.78,1.74,2.03,2.97c0.22,1.09,0.04,2.15-0.43,3.05
			C283.44,400.47,282.89,399.86,282.2,399.42z"/>
	</g>
	<g>
		<path class="st4" d="M251.49,340.86c0,0-12.83,7.03-12.83,24.3s0,38.51,0,38.51h25.66c0,0,0-21.24,0-38.51
			S251.49,340.86,251.49,340.86z"/>
		<path class="st5" d="M251.49,340.86c0,0-12.83,7.03-12.83,24.3s0,38.51,0,38.51h4.18c0,0,0-21.24,0-38.51
			S251.49,340.86,251.49,340.86z"/>
		<path class="st6" d="M251.49,340.86c0,0,12.83,7.03,12.83,24.3s0,38.51,0,38.51h-4.18c0,0,0-21.24,0-38.51
			S251.49,340.86,251.49,340.86z"/>
	</g>
	<path class="st20" d="M238.66,380.38h25.66c0-1.07,0-2.14,0-3.2h-25.66C238.66,378.24,238.66,379.3,238.66,380.38z"/>
	<path class="st20" d="M238.66,390.38h25.66c0-1.07,0-2.14,0-3.2h-25.66C238.66,388.23,238.66,389.3,238.66,390.38z"/>
	<g>
		<path class="st5" d="M253.07,403.67h-6.23v-16.54c0-1.72,1.4-3.12,3.12-3.12l0,0c1.72,0,3.12,1.4,3.12,3.12V403.67z"/>
		<path class="st6" d="M254.61,403.67h-6.23v-16.54c0-1.72,1.4-3.12,3.12-3.12h0c1.72,0,3.12,1.4,3.12,3.12V403.67z"/>
		<path class="st54" d="M251.54,384.01v19.66h3.07v-16.54C254.61,385.42,253.24,384.04,251.54,384.01z"/>
	</g>
	<path class="st12" d="M251.49,353.66c0,0-10.44,2.69-10.44,11.92c0,0,5.68-3.49,10.44-3.49c4.76,0,10.44,3.49,10.44,3.49
		C261.93,356.35,251.49,353.66,251.49,353.66z"/>
	<g>
		<path class="st29" d="M253.77,354.5c-1.33-0.59-2.28-0.84-2.28-0.84s-10.44,2.69-10.44,11.92c0,0,2.09-1.28,4.79-2.29
			C246.86,358.34,251.08,355.7,253.77,354.5z"/>
	</g>
</g>
</svg>
