<?xml version="1.0" encoding="utf-8"?>
<!-- Generator: Adobe Illustrator 25.2.0, SVG Export Plug-In . SVG Version: 6.00 Build 0)  -->
<svg version="1.1" id="Camada_1" xmlns="http://www.w3.org/2000/svg" xmlns:xlink="http://www.w3.org/1999/xlink" x="0px" y="0px"
	 viewBox="0 0 256 256" style="enable-background:new 0 0 256 256;" xml:space="preserve">
<style type="text/css">
	.st0{fill:#FF960B;}
	.st1{fill:#CC3000;}
</style>
<g>
	<path class="st0" d="M185.52,34.79C168.51,29.14,165,7.91,143.76,12.44c-2.44,0.52-4.81,0.44-7.14,0.14
		c0.06,0.04,0.12,0.07,0.19,0.11c3.34,2.49,3.71,6.26,3.54,10.1c5.9-0.37,13.73-2.4,18.39,2.03c4.86,4.64,5.32,11.71,7.64,17.68
		c-0.03-0.07,8.4-2.77,9.88-2.8c1.48-0.03,3.5,2.4,4.3,3.31c4.05,4.56,7.51,9.59,10.88,14.67c0.4,0.61,0.35,1.64-0.1,2.21
		c-3.23,4.15-6.44,8.09-8.51,12.91c6.94,4.36,13.14,11.93,7.56,20.16c-4.28,6.31-18.73,7.77-18.5,16.32
		c0.16,6.18,2.17,12.32,1.91,18.52c-0.11,2.35-3.37,5.78-4.8,7.3c-2.07,2.21-3.91,2.7-1.84,6.42c1.32,2.39,3.04,4.39,4.54,6.65
		c4.12,6.24-2.43,14.71-6.57,19.3c-1.69,1.88-3.18-0.38-4.74-1.17c-2.72-1.37-7.22-4.44-10.28-4.33c-3.27,0.12-6.03,1.42-9.16,1.78
		c-5.79,0.68-7.78-3.81-10.82-7.67c-4.48-5.71-13.96-2.75-19.72-0.88c-4.65,1.51-6.94,4.36-4.69,9.43c1.34,2.99,2.9,5.95,4.82,8.63
		c1.85,2.59,4.3,6.25,8,6.26c3.45,0,6.4-1.55,9.71-2.27c13.49-2.96,8.05,15.52,7.86,21.94c-0.02,0.51-0.27,1.32-0.84,1.48
		c-5.67,1.53-9.74,6.13-15.46,2.66c-1.05-0.64-7.15-6.45-7.59-4.56c-0.72,3.05-1.66,5.82-2.96,8.67c-0.26,0.55-0.93,1.05-1.46,0.5
		c-4.35-4.41-7.26-6.97-13.47-8.52c-3.24-0.81-4.16-1.79-5.74-4.7c-0.98-1.8-1.06-3.85-1.45-5.8c-0.98-4.86-9.65-7.18-13.87-5.77
		c-8.75,2.94,0.51,25.42-1.95,32.99c-0.21,0.65-0.85,1.57-1.58,0.87c-9.32-8.85-9.87-29.02-26.43-25.88
		c-7.29,1.38-7.34-3.83-6.79-9.72c-2.55-0.73-4.59-1.96-5.03-5.02c-0.5-3.45-0.59-6.84-1.7-10.2c-0.72-2.21-6.06-4.16-8.06-4.67
		c-2.38-0.6-4.33-1.48-5.97-2.58c1.72,5.69,4.45,10.88,8.85,14.86c2.8,2.54,3.16,12.02,5.3,15.94c2.68,4.9,7.93,8.81,12.66,11.54
		c1.28,0.83,2.57,1.65,3.84,2.49c14.87,9.89,21.26,26.89,40.04,31.9c8.37,2.24,16.76,3.57,25.29,5.03
		c8.97,1.53,15.11,6.41,24.45,4.57c6.25-1.23,11.48-7.28,15.17-11.93c5.41-6.82,13.17-1.81,19.57-4.98
		c5.94-2.93,11.42-6.51,16.27-11.01c2.74-2.53,4.6-6.71,6.38-9.89c3.69-6.6,8.45-4.69,13.25-8.87
		c11.27-9.83,18.31-28.49,20.27-43.16c2.33-17.48,20.27-26.12,14.94-45.96c-4.36-16.21-20.72-25.77-23.12-42.16
		C216.06,47.86,202.72,40.51,185.52,34.79z"/>
	<path class="st1" d="M202.44,42.2c4.2,5.5,9.73,9.93,11.1,17.07c0.43,2.22-0.45,4.74-1.18,6.77c-3.09,8.51,3.22,11.51,7.8,16.9
		c1.72,2.03,2.34,4.86,2.51,7.44c0.37,5.25,2.74,8.05,6.03,12.15c2.76,3.44,5.12,7.17,4.84,11.76c-0.52,8.25-3.9,14.66-8.9,21.13
		c-3.07,3.98-6.99,8.2-8.65,13.01c-1.81,5.24,1.2,7.7,1.65,12.36c0.28,2.94-1.96,6.3-3.28,8.7c-1.71,3.13-2.88,6.67-4.88,9.65
		c-3.37,5.03-7.64,6.99-13.27,7.97c0.55,2.29,1.18,4.47,2.1,6.69c0.26,0.63,0.12,1.72-0.47,2.13c-8.02,5.61-12.65,16.77-21.53,21.05
		c-8.56,4.13-18.38-1.83-24.95,7.22c-2.24,3.1-8.51,11.32-13.47,8.23c-1.97-1.23-3.27-3.02-4.98-4.57c-3.72-3.37-5.11,3.14-7.17,5.7
		c-4.36,5.4-8.06,4.28-13.36,0.62c-3-2.06-6.68-5.54-10.58-5.75c-4.41-0.24-8.49,0.43-12.84,1.1c-9.54,1.45-15.29-1.89-23.1-7.2
		c-0.18-0.12-0.36-0.26-0.54-0.39c5.7,5.95,11.92,11.27,21.1,13.73c8.37,2.24,16.76,3.57,25.29,5.03
		c8.97,1.53,15.11,6.41,24.45,4.57c6.25-1.23,11.48-7.28,15.17-11.93c5.41-6.82,13.17-1.81,19.57-4.98
		c5.94-2.93,11.42-6.51,16.27-11.01c2.74-2.53,4.6-6.71,6.38-9.89c3.69-6.6,8.45-4.69,13.25-8.87
		c11.27-9.83,18.31-28.49,20.27-43.16c2.33-17.48,20.27-26.12,14.94-45.96c-4.36-16.21-20.72-25.77-23.12-42.16
		C217.09,54.95,211.03,47.48,202.44,42.2z"/>
	<path class="st0" d="M131.84,43.91c0.44-1.73,7.01-15.81,7.17-15.68c-2.53-2.2-5.15-4.37-7.92-6.3
		c-8.53,1.15-15.27,8.16-24.23,8.69c-6.07,0.36-12.03-0.35-17.84-1.8c-7.41,4.05-13.05,10.8-19.85,15.86
		c-6,2.16-16.78,7.1-19.5,11.24c-9.01,13.72-16.58,30.9-28.07,42.78c-6.05,6.26-3.7,24.32-5.08,32.39
		c-0.96,5.62,1.91,11.35,5.56,16.25c2.48,5.2,5.79,9.53,9.82,13.71c-0.99-3.82-1.56-7.79-1.96-10.74c-1-7.32-0.42-11.5,5.6-16.01
		c8.2-6.15,13.85-12.53,24.65-7.27c2.88,1.4,5.55,3.12,8.16,4.96c-2.2-6.05-3.14-12.44-2.59-19.2c0.46-5.58,1.4-11.09,2.3-16.62
		c0.17-1-15.09-9.08-16.81-10.2c-0.86-0.56-0.88-1.83-0.35-2.64c6.16-9.26,10.46-21.09,18.87-28.69c1.38-1.25,2.75-2.15,4.14-2.91
		c0.03-0.05,0.07-0.11,0.12-0.16c0.05-0.06,0.09-0.14,0.14-0.21c0.17-0.01,0.35-0.04,0.52-0.06c5.57-2.74,11.31-2.17,18.41-2.03
		c1.28,0.02,1.03,2.02,0.63,2.71c-3.52,6.01-7.38,13.18-8.66,20.07c-1.87,10.06,13.19,9.54,15.3,17.46
		c2.21,8.26,0.34,18.15,9.87,22.19c2.15,0.91,4.35,1.62,6.57,2.25c0.18-1.47-0.12-3.15-0.77-4.1c-5.16-7.48-6.45-13.76-7.29-22.82
		c0.12,1.31,13.14-0.9,13.92-1.1c17.83-4.9,20.74,13.03,34.47,19.07c-1.24-4.33-2.67-8.66-2.49-13.02c0.2-4.62,1.76-8.38,3.95-12.44
		c1.4-2.6,3.07-5.25,4.02-8.06c1.98-5.82-2.05-7.94-5.95-9.86c-0.43-0.22-0.87-0.4-1.31-0.6c-2.93-1.1-7.18-2.77-11.22-4.83
		c-1.07-0.47-2.13-0.94-3.18-1.45C135.37,51.99,130.13,50.62,131.84,43.91z"/>
	<path class="st0" d="M137.68,118.44c-11.8,2.12-23.6,7.98-34.16,13.34c-2.22,1.13-1.15,4.96-0.06,7.75
		c-6.54,2.23-17.21,7.87-17.19,13.12c0.03,9.59,7.7,19.32,8.77,29.09c6.03,0.62,12.24,1.27,17.8,3.47
		c5.89,2.34,8.8,7.48,11.82,12.62c0.04-0.09,0.09-0.16,0.13-0.26c1.66-4.17,5.06-7.38,6.4-11.51c-6.06-0.2-12.57-0.16-17.86-2.66
		c-4.19-1.98-7.21-5.76-9.87-9.47c-3.13-4.36-12.96-17.56-5.35-22.32c5.05-3.15,10.89-4.96,16.54-6.75
		c2.99-0.95,8.35-4.57,11.39-3.4c2.96,1.13,5.11,3.69,7.03,6.1c1.74,2.19,5.08,10.45,8.88,9.61c7.14-1.58,14.54-1.19,21.51-3.24
		c-2.3-5.08-5.7-10.78-9.48-13.2c-3.33-2.13-8.99,2.95-10.17-4.07c-0.89-5.31-3.22-10.41-4.02-15.74
		C139.64,119.95,139,118.21,137.68,118.44z"/>
</g>
</svg>
