<?xml version="1.0" encoding="utf-8"?>
<!-- Generator: Adobe Illustrator 25.2.0, SVG Export Plug-In . SVG Version: 6.00 Build 0)  -->
<svg version="1.1" id="Camada_1" xmlns="http://www.w3.org/2000/svg" xmlns:xlink="http://www.w3.org/1999/xlink" x="0px" y="0px"
	 viewBox="0 0 256 256" style="enable-background:new 0 0 256 256;" xml:space="preserve">
<style type="text/css">
	.st0{fill:#E13017;}
	.st1{fill:#F2B00A;}
	.st2{fill:#EAC56A;}
	.st3{fill:#FEDC7A;}
	.st4{fill:#DBAC37;}
	.st5{fill:#F49387;}
	.st6{fill:#FC7761;}
	.st7{fill:#D65543;}
	.st8{fill:#F4C0BD;}
</style>
<g>
	<g>
		<g>
			<path class="st0" d="M138.49,209.57c-0.22,0.18-0.44,0.38-0.65,0.57c-2.17-5.99-5.53-10.98-9.65-14.35
				c-4.1,3.35-7.45,8.31-9.62,14.27c-0.19-0.17-0.37-0.34-0.57-0.5c-4.58,3.74-7.66,10.71-7.66,18.72c0,8,3.09,14.97,7.66,18.72
				c0.69-0.57,1.35-1.21,1.96-1.92c2.11,4.47,4.92,8.22,8.22,10.92c3.32-2.72,6.15-6.5,8.26-11.01c0.64,0.74,1.32,1.42,2.04,2.01
				c4.58-3.74,7.66-10.71,7.66-18.72C146.15,220.28,143.06,213.31,138.49,209.57z"/>
			<path class="st1" d="M136.11,213.36c-0.17,0.14-0.34,0.29-0.5,0.44c-1.67-4.6-4.25-8.43-7.41-11.02
				c-3.15,2.57-5.72,6.38-7.39,10.96c-0.14-0.13-0.29-0.26-0.44-0.38c-3.51,2.87-5.88,8.23-5.88,14.37c0,6.14,2.37,11.5,5.88,14.37
				c0.53-0.43,1.03-0.93,1.51-1.47c1.62,3.43,3.78,6.32,6.31,8.39c2.55-2.09,4.72-4.99,6.34-8.45c0.49,0.57,1.01,1.09,1.56,1.54
				c3.51-2.87,5.88-8.23,5.88-14.37C141.99,221.58,139.62,216.23,136.11,213.36z"/>
			<path class="st2" d="M134.07,210.61c-0.13,0.1-0.25,0.21-0.37,0.33c-1.23-3.41-3.15-6.25-5.49-8.16
				c-2.33,1.91-4.24,4.73-5.47,8.12c-0.11-0.1-0.21-0.19-0.32-0.28c-2.6,2.13-4.36,6.09-4.36,10.64c0,4.55,1.76,8.52,4.36,10.64
				c0.39-0.32,0.77-0.69,1.12-1.09c1.2,2.54,2.8,4.68,4.68,6.21c1.89-1.55,3.5-3.7,4.7-6.26c0.36,0.42,0.75,0.81,1.16,1.14
				c2.6-2.13,4.36-6.09,4.36-10.64C138.43,216.7,136.67,212.74,134.07,210.61z"/>
		</g>
		<g>
			<path class="st0" d="M62.38,177.26c-0.22,0.18-0.44,0.38-0.65,0.57c-2.17-5.99-5.53-10.98-9.65-14.35
				c-4.1,3.35-7.45,8.31-9.62,14.27c-0.19-0.17-0.37-0.34-0.57-0.5c-4.58,3.74-7.66,10.71-7.66,18.72c0,8,3.09,14.97,7.66,18.72
				c0.69-0.57,1.35-1.21,1.96-1.92c2.11,4.47,4.92,8.22,8.22,10.92c3.32-2.72,6.15-6.5,8.26-11.01c0.64,0.74,1.32,1.42,2.04,2.01
				c4.58-3.74,7.66-10.71,7.66-18.72C70.04,187.97,66.96,181,62.38,177.26z"/>
			<path class="st1" d="M60,181.05c-0.17,0.14-0.34,0.29-0.5,0.44c-1.67-4.6-4.25-8.43-7.41-11.02c-3.15,2.57-5.72,6.38-7.39,10.96
				c-0.14-0.13-0.29-0.26-0.44-0.38c-3.51,2.87-5.88,8.23-5.88,14.37c0,6.14,2.37,11.5,5.88,14.37c0.53-0.43,1.03-0.93,1.51-1.47
				c1.62,3.43,3.78,6.32,6.31,8.39c2.55-2.09,4.72-4.99,6.34-8.45c0.49,0.57,1.01,1.09,1.56,1.54c3.51-2.87,5.88-8.23,5.88-14.37
				C65.89,189.28,63.52,183.92,60,181.05z"/>
			<path class="st3" d="M57.96,178.31c-0.13,0.1-0.25,0.21-0.37,0.33c-1.23-3.41-3.15-6.25-5.49-8.16
				c-2.33,1.91-4.24,4.73-5.47,8.12c-0.11-0.1-0.21-0.19-0.32-0.28c-2.6,2.13-4.36,6.09-4.36,10.64c0,4.55,1.76,8.52,4.36,10.64
				c0.39-0.32,0.77-0.69,1.12-1.09c1.2,2.54,2.8,4.68,4.68,6.21c1.89-1.55,3.5-3.7,4.7-6.26c0.36,0.42,0.75,0.81,1.16,1.14
				c2.6-2.13,4.36-6.09,4.36-10.64C62.32,184.4,60.57,180.43,57.96,178.31z"/>
		</g>
		<path class="st4" d="M24.13,142.51C12.01,149,3.44,148.02,0.69,161.4c-0.38,8.64,6.59,15.85,15.32,15.85h93.84V57.07
			C109.85,91.88,54.3,126.35,24.13,142.51z"/>
		<g>
			<path class="st3" d="M109.85,161.4H0l0.69-3.39c2.74-13.38,11.32-24.87,23.44-31.36c30.16-16.15,85.72-50.63,85.72-85.43V161.4z"
				/>
			<g>
				<rect x="35.35" y="127.8" class="st3" width="33.58" height="26.7"/>
				<polygon class="st3" points="60.69,127.8 35.35,127.8 35.35,135.12 60.69,135.12 60.69,154.51 68.93,154.51 68.93,135.12 
					68.93,127.8 				"/>
			</g>
		</g>
		<g>
			<path class="st0" d="M193.62,177.26c0.22,0.18,0.44,0.38,0.65,0.57c2.17-5.99,5.53-10.98,9.65-14.35
				c4.1,3.35,7.45,8.31,9.62,14.27c0.19-0.17,0.37-0.34,0.57-0.5c4.58,3.74,7.66,10.71,7.66,18.72c0,8-3.09,14.97-7.66,18.72
				c-0.69-0.57-1.35-1.21-1.96-1.92c-2.11,4.47-4.92,8.22-8.22,10.92c-3.32-2.72-6.15-6.5-8.26-11.01
				c-0.64,0.74-1.32,1.42-2.04,2.01c-4.58-3.74-7.66-10.71-7.66-18.72C185.96,187.97,189.04,181,193.62,177.26z"/>
			<path class="st1" d="M196,181.05c0.17,0.14,0.34,0.29,0.5,0.44c1.67-4.6,4.25-8.43,7.41-11.02c3.15,2.57,5.72,6.38,7.39,10.96
				c0.14-0.13,0.29-0.26,0.44-0.38c3.51,2.87,5.88,8.23,5.88,14.37c0,6.14-2.37,11.5-5.88,14.37c-0.53-0.43-1.03-0.93-1.51-1.47
				c-1.62,3.43-3.78,6.32-6.31,8.39c-2.55-2.09-4.72-4.99-6.34-8.45c-0.49,0.57-1.01,1.09-1.56,1.54
				c-3.51-2.87-5.88-8.23-5.88-14.37C190.11,189.28,192.48,183.92,196,181.05z"/>
			<path class="st3" d="M198.04,178.31c0.13,0.1,0.25,0.21,0.37,0.33c1.23-3.41,3.15-6.25,5.49-8.16c2.33,1.91,4.24,4.73,5.47,8.12
				c0.11-0.1,0.21-0.19,0.32-0.28c2.6,2.13,4.36,6.09,4.36,10.64c0,4.55-1.76,8.52-4.36,10.64c-0.39-0.32-0.77-0.69-1.12-1.09
				c-1.2,2.54-2.8,4.68-4.68,6.21c-1.89-1.55-3.5-3.7-4.7-6.26c-0.36,0.42-0.75,0.81-1.16,1.14c-2.6-2.13-4.36-6.09-4.36-10.64
				C193.68,184.4,195.43,180.43,198.04,178.31z"/>
		</g>
		<path class="st4" d="M231.87,142.51c12.12,6.49,20.7,5.51,23.44,18.89c0.38,8.64-6.59,15.85-15.32,15.85h-93.84V57.07
			C146.15,91.88,201.7,126.35,231.87,142.51z"/>
		<g>
			<path class="st3" d="M146.15,161.4H256l-0.69-3.39c-2.74-13.38-11.32-24.87-23.44-31.36c-30.16-16.15-85.72-50.63-85.72-85.43
				V161.4z"/>
			<g>
				
					<rect x="187.07" y="127.8" transform="matrix(-1 -4.447566e-11 4.447566e-11 -1 407.7204 282.3075)" class="st3" width="33.58" height="26.7"/>
				<polygon class="st3" points="195.31,127.8 220.65,127.8 220.65,135.12 195.31,135.12 195.31,154.51 187.07,154.51 
					187.07,135.12 187.07,127.8 				"/>
			</g>
		</g>
		<g>
			<path class="st5" d="M128.24,0c0,0-44.34,24.07-44.34,83.18s0,94.85,0,94.85h88.68c0,0,0-35.73,0-94.85S128.24,0,128.24,0z"/>
			<path class="st6" d="M83.9,83.18c0,59.11,0,94.85,0,94.85H131c1.05-58-2.76-178.03-2.76-178.03S83.9,24.07,83.9,83.18z"/>
			<path class="st7" d="M128.24,0c0,0-44.34,24.07-44.34,83.18s0,94.85,0,94.85h14.43c0,0,0-35.73,0-94.85S128.24,0,128.24,0z"/>
			<path class="st8" d="M128.24,0c0,0,44.34,24.07,44.34,83.18s0,94.85,0,94.85h-14.43c0,0,0-35.73,0-94.85S128.24,0,128.24,0z"/>
		</g>
		<polygon class="st3" points="150.41,216.65 106.07,216.65 83.9,178.03 172.59,178.03 		"/>
		<polygon class="st3" points="83.9,178.03 106.07,216.65 120.37,216.65 98.2,178.03 		"/>
		<polygon class="st3" points="172.53,178.03 150.36,216.65 136.07,216.65 158.24,178.03 		"/>
		<rect x="84.06" y="120.24" class="st3" width="88.47" height="9.69"/>
		<rect x="84.06" y="145.19" class="st3" width="88.47" height="9.69"/>
	</g>
	<path class="st7" d="M129.4,41.22c0,0-27.26,6.97-27.26,30.83c0,0,14.83-9.04,27.26-9.04c12.43,0,27.26,9.04,27.26,9.04
		C156.66,48.18,129.4,41.22,129.4,41.22z"/>
</g>
</svg>
