<?xml version="1.0" encoding="utf-8"?>
<!-- Generator: Adobe Illustrator 25.2.0, SVG Export Plug-In . SVG Version: 6.00 Build 0)  -->
<svg version="1.1" id="Camada_1" xmlns="http://www.w3.org/2000/svg" xmlns:xlink="http://www.w3.org/1999/xlink" x="0px" y="0px"
	 viewBox="0 0 256 256" style="enable-background:new 0 0 256 256;" xml:space="preserve">
<style type="text/css">
	.st0{fill:#E13017;}
	.st1{fill:#F2B00A;}
	.st2{fill:#FEDC7A;}
	.st3{fill:#C4423F;}
	.st4{fill:#B53633;}
	.st5{fill:#EFEFEF;}
	.st6{fill:#EAC257;}
	.st7{fill:#C99D3A;}
	.st8{fill:#F7DC9F;}
	.st9{fill:#CEA03A;}
	.st10{fill:#D55049;}
	.st11{fill:#BC3C39;}
	.st12{fill:#C1DDF3;}
	.st13{fill:#82A2D1;}
	.st14{fill:#DEF2FF;}
	.st15{fill:#FFFFFF;}
	.st16{fill:#EDF5F9;}
	.st17{fill:#4C6DA0;}
	.st18{fill:#3B5D7F;}
</style>
<g>
	<g>
		<path class="st0" d="M147.77,166.67c-0.42,0.35-0.83,0.72-1.24,1.1c-4.12-11.53-10.51-21.13-18.34-27.6
			c-7.79,6.45-14.16,16-18.28,27.46c-0.36-0.33-0.71-0.66-1.08-0.96c-8.7,7.2-14.56,20.61-14.56,36c0,15.4,5.87,28.81,14.56,36
			c1.32-1.09,2.56-2.34,3.73-3.69c4,8.6,9.35,15.82,15.63,21.02c6.32-5.23,11.69-12.51,15.7-21.18c1.22,1.42,2.5,2.73,3.87,3.86
			c8.7-7.2,14.56-20.61,14.56-36C162.34,187.28,156.47,173.87,147.77,166.67z"/>
		<path class="st1" d="M143.25,173.96c-0.32,0.27-0.64,0.56-0.95,0.85c-3.16-8.85-8.07-16.23-14.08-21.2
			c-5.98,4.95-10.87,12.28-14.04,21.09c-0.27-0.25-0.55-0.5-0.83-0.74c-6.68,5.53-11.18,15.83-11.18,27.65
			c0,11.82,4.5,22.12,11.18,27.65c1.01-0.84,1.96-1.79,2.87-2.84c3.07,6.61,7.18,12.15,12,16.14c4.85-4.01,8.98-9.6,12.06-16.26
			c0.93,1.09,1.92,2.09,2.97,2.96c6.68-5.53,11.18-15.83,11.18-27.65C154.44,189.78,149.93,179.49,143.25,173.96z"/>
		<path class="st2" d="M139.38,168.68c-0.24,0.2-0.47,0.41-0.7,0.63c-2.34-6.56-5.98-12.02-10.43-15.7
			c-4.43,3.67-8.05,9.1-10.4,15.62c-0.2-0.19-0.4-0.37-0.61-0.55c-4.95,4.09-8.28,11.72-8.28,20.48c0,8.76,3.34,16.38,8.28,20.48
			c0.75-0.62,1.45-1.33,2.12-2.1c2.28,4.89,5.32,9,8.89,11.95c3.59-2.97,6.65-7.11,8.93-12.05c0.69,0.81,1.42,1.55,2.2,2.19
			c4.95-4.09,8.28-11.72,8.28-20.48C147.66,180.4,144.32,172.78,139.38,168.68z"/>
	</g>
	<g>
		<g>
			<g>
				<g>
					<g>
						<rect x="57.3" y="175.18" class="st3" width="25.89" height="22.9"/>
						<rect x="57.3" y="175.18" class="st4" width="6.84" height="22.9"/>
						<rect x="76.6" y="175.18" class="st4" width="6.84" height="22.9"/>
					</g>
					<rect x="57.3" y="189.24" class="st5" width="26.13" height="3.56"/>
					<polygon class="st6" points="86.93,206.54 53.8,206.54 57.3,198.08 83.43,198.08 					"/>
					<polygon class="st7" points="57.3,198.08 53.8,206.54 60.72,206.54 64.22,198.08 					"/>
					<polygon class="st8" points="83.52,198.08 87.02,206.54 80.1,206.54 76.6,198.08 					"/>
				</g>
				<polygon class="st6" points="80.01,169.2 60.72,169.2 57.3,175.18 83.43,175.18 				"/>
				<polygon class="st8" points="80.01,169.2 83.43,175.18 76.51,175.18 73.09,169.2 				"/>
			</g>
			<polygon class="st7" points="60.72,169.2 57.3,175.18 64.22,175.18 67.64,169.2 			"/>
		</g>
		<g>
			<path class="st6" d="M80.58,164.31H57.3v-54.72c0-6.45,5.21-11.67,11.64-11.67h0c6.43,0,11.64,5.23,11.64,11.67V164.31z"/>
			<path class="st9" d="M72.13,98.36c-1.01-0.29-2.08-0.45-3.18-0.45c-6.43,0-11.64,5.23-11.64,11.67v54.72h6.37v-54.72
				C63.67,104.24,67.25,99.75,72.13,98.36z"/>
		</g>
		<path class="st10" d="M93.33,177.8H48.04c-8.24,0-14.42-7.58-12.78-15.68l0,0c0.7-3.46,2.76-6.49,5.73-8.4
			c15.22-9.79,62.9-43.14,62.9-76.87l2.47,87.5C106.57,171.72,100.67,177.8,93.33,177.8z"/>
		<path class="st11" d="M41,165.77c15.22-9.79,62.9-43.14,62.9-76.87l2.21,78.39c0.19-0.95,0.29-1.93,0.26-2.94l-2.47-87.5
			c0,33.72-47.68,67.08-62.9,76.87c-2.97,1.91-5.03,4.93-5.73,8.4c-0.62,3.08-0.11,6.09,1.21,8.63
			C37.52,168.74,39.06,167.01,41,165.77z"/>
	</g>
	<g>
		<g>
			<g>
				<g>
					<g>
						
							<rect x="172.81" y="175.18" transform="matrix(-1 -4.524127e-11 4.524127e-11 -1 371.5034 373.2619)" class="st3" width="25.89" height="22.9"/>
						
							<rect x="191.86" y="175.18" transform="matrix(-1 -4.470525e-11 4.470525e-11 -1 390.5608 373.2619)" class="st4" width="6.84" height="22.9"/>
						
							<rect x="172.57" y="175.18" transform="matrix(-1 -4.523727e-11 4.523727e-11 -1 351.9743 373.2619)" class="st4" width="6.84" height="22.9"/>
					</g>
					
						<rect x="172.57" y="189.24" transform="matrix(-1 -4.511115e-11 4.511115e-11 -1 371.2675 382.029)" class="st5" width="26.13" height="3.56"/>
					<polygon class="st6" points="169.07,206.54 202.2,206.54 198.7,198.08 172.57,198.08 					"/>
					<polygon class="st7" points="198.7,198.08 202.2,206.54 195.28,206.54 191.78,198.08 					"/>
					<polygon class="st8" points="172.48,198.08 168.98,206.54 175.9,206.54 179.4,198.08 					"/>
				</g>
				<polygon class="st6" points="175.99,169.2 195.28,169.2 198.7,175.18 172.57,175.18 				"/>
				<polygon class="st8" points="175.99,169.2 172.57,175.18 179.49,175.18 182.91,169.2 				"/>
			</g>
			<polygon class="st7" points="195.28,169.2 198.7,175.18 191.78,175.18 188.36,169.2 			"/>
		</g>
		<g>
			<path class="st6" d="M175.42,164.31h23.28v-54.72c0-6.45-5.21-11.67-11.64-11.67h0c-6.43,0-11.64,5.23-11.64,11.67V164.31z"/>
			<path class="st9" d="M183.87,98.36c1.01-0.29,2.08-0.45,3.18-0.45c6.43,0,11.64,5.23,11.64,11.67v54.72h-6.37v-54.72
				C192.33,104.24,188.75,99.75,183.87,98.36z"/>
		</g>
		<path class="st10" d="M162.67,177.8h45.29c8.24,0,14.42-7.58,12.78-15.68v0c-0.7-3.46-2.76-6.49-5.73-8.4
			c-15.22-9.79-62.9-43.14-62.9-76.87l-2.47,87.5C149.43,171.72,155.33,177.8,162.67,177.8z"/>
		<path class="st11" d="M215,165.77c-15.22-9.79-62.9-43.14-62.9-76.87l-2.21,78.39c-0.19-0.95-0.29-1.93-0.26-2.94l2.47-87.5
			c0,33.72,47.68,67.08,62.9,76.87c2.97,1.91,5.03,4.93,5.73,8.4c0.62,3.08,0.11,6.09-1.21,8.63
			C218.48,168.74,216.94,167.01,215,165.77z"/>
	</g>
	<g>
		<path class="st12" d="M128.31,0c0,0-36.22,19.9-36.22,68.78s0,109.02,0,109.02h72.44c0,0,0-60.14,0-109.02S128.31,0,128.31,0z"/>
		<path class="st13" d="M128.31,0c0,0-36.22,19.9-36.22,68.78s0,109.02,0,109.02h11.79c0,0,0-60.14,0-109.02S128.31,0,128.31,0z"/>
		<path class="st14" d="M128.31,0c0,0,36.22,19.9,36.22,68.78s0,109.02,0,109.02h-11.79c0,0,0-60.14,0-109.02S128.31,0,128.31,0z"/>
	</g>
	<path class="st15" d="M92.08,111.86h72.44c0-3.04,0-6.06,0-9.06H92.08C92.08,105.8,92.08,108.82,92.08,111.86z"/>
	<path class="st15" d="M92.08,140.17h72.44c0-3.04,0-6.06,0-9.06H92.08C92.08,134.1,92.08,137.13,92.08,140.17z"/>
	<g>
		<path class="st13" d="M132.78,177.8h-17.6v-46.83c0-4.87,3.94-8.82,8.8-8.82h0c4.86,0,8.8,3.95,8.8,8.82V177.8z"/>
		<path class="st14" d="M137.12,177.8h-17.6v-46.83c0-4.87,3.94-8.82,8.8-8.82h0c4.86,0,8.8,3.95,8.8,8.82V177.8z"/>
		<path class="st16" d="M128.44,122.15v55.65h8.68v-46.83C137.12,126.14,133.24,122.22,128.44,122.15z"/>
	</g>
	<path class="st17" d="M128.31,36.21c0,0-29.47,7.62-29.47,33.74c0,0,16.03-9.89,29.47-9.89s29.47,9.89,29.47,9.89
		C157.78,43.83,128.31,36.21,128.31,36.21z"/>
	<g>
		<path class="st18" d="M134.73,38.59c-3.74-1.68-6.42-2.38-6.42-2.38s-29.47,7.62-29.47,33.74c0,0,5.89-3.62,13.51-6.48
			C115.24,49.47,127.16,42,134.73,38.59z"/>
	</g>
</g>
</svg>
