<?xml version="1.0" encoding="utf-8"?>
<!-- Generator: Adobe Illustrator 25.2.0, SVG Export Plug-In . SVG Version: 6.00 Build 0)  -->
<svg version="1.1" id="Camada_1" xmlns="http://www.w3.org/2000/svg" xmlns:xlink="http://www.w3.org/1999/xlink" x="0px" y="0px"
	 viewBox="0 0 256 256" style="enable-background:new 0 0 256 256;" xml:space="preserve">
<style type="text/css">
	.st0{fill:#E13017;}
	.st1{fill:#F2B00A;}
	.st2{fill:#FEDC7A;}
	.st3{fill:#B7EBF9;}
	.st4{fill:#A7DDEA;}
	.st5{fill:#7FCCE6;}
	.st6{fill:#D2F1F9;}
	.st7{fill:#4C6DA0;}
	.st8{fill:#60AEC4;}
	.st9{fill:#6488BC;}
</style>
<g>
	<g>
		<path class="st0" d="M137.4,209.16c-0.22,0.18-0.43,0.38-0.65,0.58c-2.16-6.05-5.51-11.08-9.61-14.47
			c-4.08,3.38-7.42,8.39-9.59,14.4c-0.19-0.17-0.37-0.34-0.57-0.5c-4.56,3.77-7.64,10.81-7.64,18.88c0,8.07,3.08,15.1,7.64,18.88
			c0.69-0.57,1.34-1.22,1.96-1.94c2.1,4.51,4.9,8.3,8.19,11.02c3.31-2.74,6.13-6.56,8.23-11.11c0.64,0.75,1.31,1.43,2.03,2.02
			c4.56-3.77,7.64-10.81,7.64-18.88C145.04,219.97,141.96,212.94,137.4,209.16z"/>
		<path class="st1" d="M135.03,212.99c-0.17,0.14-0.33,0.29-0.5,0.44c-1.66-4.64-4.23-8.51-7.38-11.11
			c-3.14,2.6-5.7,6.44-7.36,11.06c-0.14-0.13-0.29-0.26-0.43-0.39c-3.5,2.9-5.86,8.3-5.86,14.5c0,6.2,2.36,11.6,5.86,14.5
			c0.53-0.44,1.03-0.94,1.5-1.49c1.61,3.46,3.76,6.37,6.29,8.46c2.54-2.1,4.71-5.04,6.32-8.53c0.49,0.57,1.01,1.1,1.56,1.55
			c3.5-2.9,5.86-8.3,5.86-14.5C140.9,221.28,138.53,215.88,135.03,212.99z"/>
		<path class="st2" d="M133,210.22c-0.13,0.1-0.25,0.22-0.37,0.33c-1.23-3.44-3.14-6.3-5.47-8.23c-2.32,1.92-4.22,4.77-5.45,8.19
			c-0.11-0.1-0.21-0.2-0.32-0.29c-2.59,2.15-4.34,6.15-4.34,10.74c0,4.59,1.75,8.59,4.34,10.74c0.39-0.32,0.76-0.7,1.11-1.1
			c1.19,2.57,2.79,4.72,4.66,6.27c1.88-1.56,3.49-3.73,4.68-6.32c0.36,0.42,0.75,0.81,1.15,1.15c2.59-2.15,4.34-6.15,4.34-10.74
			C137.34,216.36,135.59,212.36,133,210.22z"/>
	</g>
	<g>
		<path class="st3" d="M127.98,0c0,0-44.19,24.28-44.19,83.91s0,95.67,0,95.67h88.38c0,0,0-36.04,0-95.67S127.98,0,127.98,0z"/>
		<path class="st4" d="M83.79,83.91c0,59.63,0,95.67,0,95.67h46.93C131.76,121.07,127.98,0,127.98,0S83.79,24.28,83.79,83.91z"/>
		<path class="st5" d="M127.98,0c0,0-44.19,24.28-44.19,83.91s0,95.67,0,95.67h14.39c0,0,0-36.04,0-95.67S127.98,0,127.98,0z"/>
		<path class="st6" d="M127.98,0c0,0,44.19,24.28,44.19,83.91s0,95.67,0,95.67h-14.39c0,0,0-36.04,0-95.67S127.98,0,127.98,0z"/>
	</g>
	<path class="st7" d="M127.98,0c0,0-19.12,10.51-32.2,34.67c8.44,7.89,19.76,12.72,32.2,12.72c12.45,0,23.76-4.83,32.2-12.72
		C147.09,10.51,127.98,0,127.98,0z"/>
	<g>
		<ellipse class="st7" cx="126.56" cy="112.63" rx="22.78" ry="22.84"/>
		<ellipse class="st5" cx="126.56" cy="112.63" rx="16.89" ry="16.94"/>
		<path class="st5" d="M112.2,113.49c0.94-7.59,7.03-13.72,14.6-14.67c5.48-0.68,10.51,1.27,14.03,4.76
			c-3.32-5.26-9.44-8.57-16.27-7.78c-7.62,0.88-13.81,7.03-14.76,14.66c-0.69,5.56,1.32,10.67,4.89,14.2
			C112.69,121.5,111.68,117.63,112.2,113.49z"/>
	</g>
	<polygon class="st5" points="150.07,218.53 105.88,218.53 83.79,179.58 172.16,179.58 	"/>
	<polygon class="st8" points="83.79,179.57 105.88,218.53 120.13,218.53 98.03,179.57 	"/>
	<polygon class="st3" points="172.11,179.57 150.02,218.53 135.77,218.53 157.87,179.57 	"/>
	<g>
		<g>
			<path class="st0" d="M73.95,210.62c-0.15,0.11-0.29,0.24-0.43,0.36c-1.43-3.76-3.66-6.89-6.38-9.01
				c-2.71,2.1-4.92,5.22-6.36,8.96c-0.12-0.11-0.25-0.21-0.38-0.31c-3.02,2.35-5.06,6.72-5.06,11.75c0,5.02,2.04,9.4,5.06,11.75
				c0.46-0.36,0.89-0.76,1.3-1.21c1.39,2.81,3.25,5.16,5.43,6.86c2.2-1.71,4.06-4.08,5.46-6.91c0.42,0.46,0.87,0.89,1.35,1.26
				c3.02-2.35,5.06-6.72,5.06-11.75C79.02,217.34,76.98,212.97,73.95,210.62z"/>
			<path class="st1" d="M72.38,213c-0.11,0.09-0.22,0.18-0.33,0.28c-1.1-2.89-2.81-5.29-4.9-6.92c-2.08,1.62-3.78,4.01-4.88,6.88
				c-0.1-0.08-0.19-0.16-0.29-0.24c-2.32,1.8-3.89,5.16-3.89,9.02c0,3.86,1.57,7.22,3.89,9.02c0.35-0.27,0.68-0.59,1-0.93
				c1.07,2.16,2.5,3.96,4.17,5.27c1.69-1.31,3.12-3.13,4.19-5.31c0.32,0.36,0.67,0.68,1.03,0.97c2.32-1.8,3.89-5.16,3.89-9.02
				C76.27,218.16,74.7,214.8,72.38,213z"/>
			<path class="st2" d="M71.03,211.28c-0.08,0.06-0.16,0.13-0.24,0.2c-0.82-2.14-2.08-3.92-3.63-5.12c-1.54,1.2-2.8,2.97-3.62,5.1
				c-0.07-0.06-0.14-0.12-0.21-0.18c-1.72,1.34-2.88,3.82-2.88,6.68c0,2.86,1.16,5.34,2.88,6.68c0.26-0.2,0.51-0.43,0.74-0.69
				c0.79,1.6,1.85,2.94,3.09,3.9c1.25-0.97,2.31-2.32,3.1-3.93c0.24,0.26,0.5,0.51,0.77,0.72c1.72-1.34,2.88-3.82,2.88-6.68
				C73.91,215.1,72.75,212.61,71.03,211.28z"/>
		</g>
		<rect x="55.35" y="185.17" class="st5" width="23.66" height="27.77"/>
		<rect x="55.35" y="185.17" class="st8" width="9.64" height="27.77"/>
		<path class="st9" d="M84.33,125.1c-25.74,15.71-46.99,49.3-41.44,88.35l55.29-48.15v-48.65L84.33,125.1z"/>
		<path class="st7" d="M42.89,213.46l55.29-33.74v-48.65l-13.84,8.45C58.59,155.22,42.89,183.24,42.89,213.46L42.89,213.46z"/>
		<path class="st5" d="M83.02,159.98c-0.88-0.47-1.94-0.4-2.77,0.16c-3.63,2.51-9.01,7.2-14.04,15.35c-1.24,2-1.89,4.36-1.89,6.82
			v18.06l1.35-0.82v-17.24c0-2.21,0.58-4.32,1.69-6.11c4.91-7.95,10.13-12.52,13.66-14.95c0.42-0.29,0.93-0.32,1.38-0.08
			c0.45,0.24,0.72,0.69,0.72,1.2v26.53l1.35-0.82v-25.7C84.46,161.37,83.91,160.45,83.02,159.98z"/>
	</g>
	<g>
		<g>
			<path class="st0" d="M182.05,210.62c0.15,0.11,0.29,0.24,0.43,0.36c1.43-3.76,3.66-6.89,6.38-9.01c2.71,2.1,4.92,5.22,6.36,8.96
				c0.12-0.11,0.25-0.21,0.38-0.31c3.02,2.35,5.06,6.72,5.06,11.75c0,5.02-2.04,9.4-5.06,11.75c-0.46-0.36-0.89-0.76-1.3-1.21
				c-1.39,2.81-3.25,5.16-5.43,6.86c-2.2-1.71-4.06-4.08-5.46-6.91c-0.42,0.46-0.87,0.89-1.35,1.26c-3.02-2.35-5.06-6.72-5.06-11.75
				C176.98,217.34,179.02,212.97,182.05,210.62z"/>
			<path class="st1" d="M183.62,213c0.11,0.09,0.22,0.18,0.33,0.28c1.1-2.89,2.81-5.29,4.9-6.92c2.08,1.62,3.78,4.01,4.88,6.88
				c0.1-0.08,0.19-0.16,0.29-0.24c2.32,1.8,3.89,5.16,3.89,9.02c0,3.86-1.57,7.22-3.89,9.02c-0.35-0.27-0.68-0.59-1-0.93
				c-1.07,2.16-2.5,3.96-4.17,5.27c-1.69-1.31-3.12-3.13-4.19-5.31c-0.32,0.36-0.67,0.68-1.03,0.97c-2.32-1.8-3.89-5.16-3.89-9.02
				C179.73,218.16,181.3,214.8,183.62,213z"/>
			<path class="st2" d="M184.97,211.28c0.08,0.06,0.16,0.13,0.24,0.2c0.82-2.14,2.08-3.92,3.63-5.12c1.54,1.2,2.8,2.97,3.62,5.1
				c0.07-0.06,0.14-0.12,0.21-0.18c1.72,1.34,2.88,3.82,2.88,6.68c0,2.86-1.16,5.34-2.88,6.68c-0.26-0.2-0.51-0.43-0.74-0.69
				c-0.79,1.6-1.85,2.94-3.09,3.9c-1.25-0.97-2.31-2.32-3.1-3.93c-0.24,0.26-0.5,0.51-0.77,0.72c-1.72-1.34-2.88-3.82-2.88-6.68
				C182.09,215.1,183.25,212.61,184.97,211.28z"/>
		</g>
		
			<rect x="176.98" y="185.17" transform="matrix(-1 -4.504453e-11 4.504453e-11 -1 377.6322 398.1042)" class="st5" width="23.66" height="27.77"/>
		
			<rect x="191.01" y="185.17" transform="matrix(-1 -4.566182e-11 4.566182e-11 -1 391.6559 398.1042)" class="st8" width="9.64" height="27.77"/>
		<path class="st9" d="M171.67,125.1c25.74,15.71,46.99,49.3,41.44,88.35l-55.29-48.15v-48.65L171.67,125.1z"/>
		<path class="st7" d="M213.11,213.46l-55.29-33.74v-48.65l13.84,8.45C197.41,155.22,213.11,183.24,213.11,213.46L213.11,213.46z"/>
		<path class="st5" d="M172.98,159.98c0.88-0.47,1.94-0.4,2.77,0.16c3.63,2.51,9.01,7.2,14.04,15.35c1.24,2,1.89,4.36,1.89,6.82
			v18.06l-1.35-0.82v-17.24c0-2.21-0.58-4.32-1.69-6.11c-4.91-7.95-10.13-12.52-13.66-14.95c-0.42-0.29-0.93-0.32-1.38-0.08
			c-0.45,0.24-0.72,0.69-0.72,1.2v26.53l-1.35-0.82v-25.7C171.54,161.37,172.09,160.45,172.98,159.98z"/>
	</g>
</g>
</svg>
