<?xml version="1.0" encoding="utf-8"?>
<!-- Generator: Adobe Illustrator 25.2.0, SVG Export Plug-In . SVG Version: 6.00 Build 0)  -->
<svg version="1.1" id="Camada_1" xmlns="http://www.w3.org/2000/svg" xmlns:xlink="http://www.w3.org/1999/xlink" x="0px" y="0px"
	 viewBox="0 0 256 256" style="enable-background:new 0 0 256 256;" xml:space="preserve">
<style type="text/css">
	.st0{fill:#E13017;}
	.st1{fill:#F2B00A;}
	.st2{fill:#FEDC7A;}
	.st3{fill:#D65543;}
	.st4{fill:#FC7761;}
	.st5{fill:#82A2D1;}
	.st6{fill:#4C6DA0;}
	.st7{fill:#334F77;}
	.st8{fill:#B0C7E2;}
	.st9{fill:#41608C;}
	.st10{fill:#273E5B;}
	.st11{fill:#FFFFFF;}
</style>
<g>
	<g>
		<g>
			<path class="st0" d="M115.62,188.76c0.27,0.26,0.53,0.54,0.79,0.82c2.64-8.62,6.74-15.79,11.75-20.63
				c4.99,4.82,9.07,11.95,11.71,20.52c0.23-0.24,0.46-0.49,0.69-0.72c5.57,5.38,9.33,15.4,9.33,26.9c0,11.5-3.76,21.52-9.33,26.9
				c-0.84-0.81-1.64-1.75-2.39-2.76c-2.56,6.43-5.99,11.82-10.01,15.71c-4.05-3.91-7.49-9.35-10.06-15.83
				c-0.78,1.06-1.6,2.04-2.48,2.88c-5.57-5.38-9.33-15.4-9.33-26.9C106.29,204.16,110.05,194.14,115.62,188.76z"/>
			<path class="st1" d="M118.52,194.21c0.21,0.2,0.41,0.42,0.61,0.63c2.03-6.62,5.17-12.12,9.02-15.84c3.83,3.7,6.97,9.18,9,15.76
				c0.18-0.19,0.35-0.38,0.53-0.55c4.28,4.13,7.17,11.83,7.17,20.66c0,8.83-2.89,16.53-7.17,20.66c-0.65-0.62-1.26-1.34-1.84-2.12
				c-1.97,4.94-4.6,9.08-7.69,12.06c-3.11-3-5.75-7.18-7.73-12.15c-0.6,0.82-1.23,1.56-1.91,2.21c-4.28-4.13-7.17-11.83-7.17-20.66
				C111.35,206.03,114.24,198.34,118.52,194.21z"/>
			<path class="st2" d="M121,190.26c0.15,0.15,0.3,0.31,0.45,0.47c1.5-4.9,3.83-8.98,6.68-11.73c2.84,2.74,5.16,6.8,6.66,11.67
				c0.13-0.14,0.26-0.28,0.39-0.41c3.17,3.06,5.31,8.76,5.31,15.3c0,6.54-2.14,12.24-5.31,15.3c-0.48-0.46-0.93-0.99-1.36-1.57
				c-1.46,3.66-3.41,6.72-5.7,8.93c-2.3-2.22-4.26-5.31-5.72-9c-0.44,0.6-0.91,1.16-1.41,1.64c-3.17-3.06-5.31-8.76-5.31-15.3
				C115.69,199.02,117.83,193.32,121,190.26z"/>
		</g>
		<g>
			<path class="st3" d="M87.3,118.3c-25.16,36.67-26.14,94.4-0.44,137.7l0.94-2.65l30.32-80.31L87.3,118.3z"/>
			<path class="st4" d="M86.52,164.91c-16.97,24.74-18.51,57.08-3.96,83.34l4.29,7.75l20.45-54.17L86.52,164.91z"/>
		</g>
		<g>
			<path class="st3" d="M168.7,118.3c25.16,36.67,26.14,94.4,0.44,137.7l-0.94-2.65l-30.32-80.31L168.7,118.3z"/>
			<path class="st4" d="M169.48,164.91c16.97,24.74,18.51,57.08,3.96,83.34l-4.29,7.75l-20.45-54.17L169.48,164.91z"/>
		</g>
		<g>
			<g>
				<path class="st5" d="M128.09,0c0,0-41.58,23.01-41.58,79.51s0,90.66,0,90.66h83.15c0,0,0-34.16,0-90.66S128.09,0,128.09,0z"/>
				<path class="st6" d="M86.52,79.51c0,56.5,0,90.66,0,90.66h44.16C131.66,114.73,128.09,0,128.09,0S86.52,23.01,86.52,79.51z"/>
				<path class="st7" d="M128.09,0c0,0-41.58,23.01-41.58,79.51s0,90.66,0,90.66h13.53c0,0,0-34.16,0-90.66S128.09,0,128.09,0z"/>
				<path class="st8" d="M128.09,0c0,0,41.58,23.01,41.58,79.51s0,90.66,0,90.66h-13.53c0,0,0-34.16,0-90.66S128.09,0,128.09,0z"/>
			</g>
			<polygon class="st9" points="148.88,207.09 107.31,207.09 86.52,170.18 169.67,170.18 			"/>
			<polygon class="st7" points="86.52,170.18 107.31,207.09 120.71,207.09 99.92,170.18 			"/>
			<polygon class="st5" points="169.62,170.18 148.83,207.09 135.43,207.09 156.22,170.18 			"/>
		</g>
		<g>
			<rect x="86.52" y="103.29" class="st7" width="23.68" height="40.53"/>
			<rect x="105.01" y="103.29" class="st10" width="5.18" height="40.53"/>
			<rect x="86.52" y="103.29" class="st10" width="23.68" height="5.21"/>
			<rect x="86.52" y="138.62" class="st10" width="23.68" height="5.21"/>
		</g>
		<g>
			
				<rect x="145.99" y="103.29" transform="matrix(-1 -4.540513e-11 4.540513e-11 -1 315.666 247.1234)" class="st7" width="23.68" height="40.53"/>
			
				<rect x="145.99" y="103.29" transform="matrix(-1 -4.563961e-11 4.563961e-11 -1 297.1708 247.1234)" class="st10" width="5.18" height="40.53"/>
			
				<rect x="145.99" y="103.29" transform="matrix(-1 -4.536650e-11 4.536650e-11 -1 315.666 211.8025)" class="st10" width="23.68" height="5.21"/>
			
				<rect x="145.99" y="138.62" transform="matrix(-1 -4.540513e-11 4.540513e-11 -1 315.666 282.4442)" class="st10" width="23.68" height="5.21"/>
		</g>
	</g>
	<path class="st11" d="M129.57,30.5c0,0-22.28,5.8-22.28,25.69c0,0,12.12-7.53,22.28-7.53s22.28,7.53,22.28,7.53
		C151.85,36.3,129.57,30.5,129.57,30.5z"/>
</g>
</svg>
