<?xml version="1.0" encoding="utf-8"?>
<!-- Generator: Adobe Illustrator 25.2.0, SVG Export Plug-In . SVG Version: 6.00 Build 0)  -->
<svg version="1.1" id="Camada_1" xmlns="http://www.w3.org/2000/svg" xmlns:xlink="http://www.w3.org/1999/xlink" x="0px" y="0px"
	 viewBox="0 0 256 256" style="enable-background:new 0 0 256 256;" xml:space="preserve">
<style type="text/css">
	.st0{fill:#E13017;}
	.st1{fill:#F2B00A;}
	.st2{fill:#FEDC7A;}
	.st3{fill:#DDB552;}
	.st4{fill:#3EB0D2;}
	.st5{fill:#2E97AF;}
	.st6{fill:#6CCFE5;}
	.st7{fill:#C8CCCC;}
	.st8{fill:#B7EFF9;}
	.st9{fill:#7FCCE6;}
	.st10{fill:#FFFFFF;}
</style>
<g>
	<g>
		<path class="st0" d="M138.9,208.69c-0.22,0.18-0.44,0.38-0.65,0.58c-2.18-6.11-5.57-11.19-9.71-14.62
			c-4.12,3.41-7.49,8.47-9.68,14.54c-0.19-0.17-0.38-0.35-0.57-0.51c-4.6,3.81-7.71,10.91-7.71,19.07c0,8.15,3.1,15.25,7.71,19.07
			c0.7-0.58,1.35-1.24,1.98-1.96c2.12,4.56,4.95,8.38,8.27,11.13c3.34-2.77,6.19-6.62,8.31-11.22c0.64,0.75,1.33,1.44,2.05,2.04
			c4.6-3.81,7.71-10.91,7.71-19.07C146.61,219.61,143.51,212.51,138.9,208.69z"/>
		<path class="st1" d="M136.51,212.55c-0.17,0.14-0.34,0.29-0.5,0.45c-1.68-4.69-4.27-8.59-7.45-11.23
			c-3.17,2.62-5.76,6.5-7.43,11.17c-0.15-0.13-0.29-0.27-0.44-0.39c-3.54,2.93-5.92,8.38-5.92,14.64c0,6.26,2.38,11.71,5.92,14.64
			c0.53-0.44,1.04-0.95,1.52-1.5c1.63,3.5,3.8,6.43,6.35,8.55c2.57-2.13,4.75-5.09,6.38-8.61c0.49,0.58,1.02,1.11,1.57,1.57
			c3.54-2.93,5.92-8.38,5.92-14.64C142.43,220.93,140.05,215.48,136.51,212.55z"/>
		<path class="st2" d="M134.46,209.76c-0.13,0.1-0.25,0.22-0.37,0.33c-1.24-3.47-3.17-6.36-5.52-8.31c-2.34,1.94-4.26,4.82-5.5,8.27
			c-0.11-0.1-0.21-0.2-0.32-0.29c-2.62,2.17-4.38,6.21-4.38,10.84c0,4.64,1.77,8.68,4.38,10.84c0.4-0.33,0.77-0.7,1.12-1.11
			c1.2,2.59,2.82,4.77,4.7,6.33c1.9-1.57,3.52-3.77,4.73-6.38c0.37,0.43,0.75,0.82,1.17,1.16c2.62-2.17,4.38-6.21,4.38-10.84
			C138.84,215.97,137.08,211.93,134.46,209.76z"/>
	</g>
	<polygon class="st2" points="145.27,214.16 111.04,214.16 98.61,162.9 157.7,162.9 	"/>
	<polygon class="st3" points="98.61,162.9 111.04,214.16 131.83,214.16 119.4,162.9 	"/>
	<path class="st2" d="M96.11,145.31c0,0-25.96,2.51-29.5-20.05H53l21.55,81.59h15.2c0,0,3.99-37.21,19.33-40.8L96.11,145.31z"/>
	<polygon class="st3" points="53,125.26 74.55,206.86 81.79,206.86 60.23,125.26 	"/>
	<path class="st2" d="M159.89,145.31c0,0,25.96,2.51,29.5-20.05H203l-21.55,81.59h-15.2c0,0-3.99-37.21-19.33-40.8L159.89,145.31z"
		/>
	<polygon class="st3" points="203,125.26 181.45,206.86 174.21,206.86 195.77,125.26 	"/>
	<ellipse class="st4" cx="128.6" cy="99.72" rx="44.94" ry="99.72"/>
	<path class="st5" d="M128.6,0c-27.55,24.35-44.94,59.99-44.94,99.72s17.4,75.37,44.94,99.72c-15.89-37.56-22.34-59.99-22.34-99.72
		C106.25,62.96,108.95,33.74,128.6,0z"/>
	<path class="st6" d="M128.6,0c27.55,24.35,44.94,59.99,44.94,99.72s-17.4,75.37-44.94,99.72c15.89-37.56,22.34-59.99,22.34-99.72
		C150.94,62.96,148.25,33.74,128.6,0z"/>
	<g>
		<ellipse class="st7" cx="126.73" cy="96.26" rx="32.49" ry="32.6"/>
		<ellipse class="st8" cx="128.6" cy="92.67" rx="32.49" ry="32.6"/>
		<ellipse class="st9" cx="128.6" cy="92.67" rx="24.09" ry="24.17"/>
		<path class="st9" d="M108.11,93.9c1.34-10.83,10.03-19.59,20.82-20.93c7.81-0.97,14.99,1.81,20.01,6.79
			c-4.74-7.51-13.46-12.23-23.2-11.11c-10.87,1.26-19.7,10.03-21.05,20.92c-0.98,7.94,1.88,15.23,6.97,20.27
			C108.81,105.33,107.38,99.81,108.11,93.9z"/>
	</g>
	<path class="st10" d="M152.69,92.67c0-5.4-1.79-10.36-4.77-14.39l-33.67,33.78c4.01,2.99,8.96,4.78,14.34,4.78
		c1.16,0,2.3-0.11,3.41-0.27l20.41-20.48C152.58,94.97,152.69,93.83,152.69,92.67z"/>
	<path class="st10" d="M104.53,92.15l23.55-23.63c-2.36,0.05-4.64,0.43-6.79,1.11l-15.65,15.7
		C104.96,87.49,104.58,89.78,104.53,92.15z"/>
	<path class="st10" d="M108.61,106.16l33.44-33.55c-2.37-1.6-5.05-2.77-7.92-3.45l-28.96,29.06
		C105.84,101.09,107.01,103.78,108.61,106.16z"/>
</g>
</svg>
