<?xml version="1.0" encoding="utf-8"?>
<!-- Generator: Adobe Illustrator 25.2.0, SVG Export Plug-In . SVG Version: 6.00 Build 0)  -->
<svg version="1.1" id="Camada_1" xmlns="http://www.w3.org/2000/svg" xmlns:xlink="http://www.w3.org/1999/xlink" x="0px" y="0px"
	 viewBox="0 0 256 256" style="enable-background:new 0 0 256 256;" xml:space="preserve">
<style type="text/css">
	.st0{fill:#E13017;}
	.st1{fill:#F2B00A;}
	.st2{fill:#FEDC7A;}
	.st3{fill:#CC5144;}
	.st4{fill:#B54139;}
	.st5{fill:#E8614F;}
	.st6{fill:#BF433A;}
	.st7{fill:#B7EBF9;}
	.st8{fill:#A7DDEA;}
	.st9{fill:#7FCCE6;}
	.st10{fill:#D2F1F9;}
	.st11{fill:#ED7269;}
	.st12{fill:#4C6DA0;}
	.st13{fill:#3B5D7F;}
	.st14{fill:#FFBDBB;}
</style>
<g>
	<g>
		<path class="st0" d="M147.23,179.37c-0.36,0.3-0.71,0.62-1.06,0.94c-3.54-9.89-9.02-18.13-15.73-23.68
			c-6.68,5.53-12.14,13.72-15.68,23.56c-0.31-0.28-0.61-0.56-0.93-0.82c-7.46,6.18-12.49,17.68-12.49,30.89
			c0,13.21,5.03,24.71,12.49,30.89c1.13-0.93,2.19-2,3.2-3.17c3.43,7.38,8.02,13.57,13.41,18.03c5.42-4.48,10.03-10.73,13.47-18.17
			c1.04,1.22,2.15,2.34,3.32,3.31c7.46-6.18,12.49-17.68,12.49-30.89C159.73,197.05,154.69,185.54,147.23,179.37z"/>
		<path class="st1" d="M143.36,185.62c-0.28,0.23-0.55,0.48-0.81,0.73c-2.71-7.6-6.93-13.92-12.08-18.18
			c-5.13,4.25-9.33,10.54-12.04,18.09c-0.24-0.21-0.47-0.43-0.71-0.63c-5.73,4.74-9.59,13.58-9.59,23.72
			c0,10.14,3.86,18.98,9.59,23.72c0.87-0.72,1.68-1.54,2.46-2.43c2.64,5.67,6.16,10.42,10.29,13.84c4.16-3.44,7.7-8.24,10.34-13.95
			c0.8,0.94,1.65,1.8,2.55,2.54c5.73-4.74,9.59-13.58,9.59-23.72C152.95,199.2,149.09,190.36,143.36,185.62z"/>
		<path class="st2" d="M140.03,181.09c-0.21,0.17-0.4,0.35-0.6,0.54c-2.01-5.63-5.13-10.31-8.94-13.47c-3.8,3.15-6.91,7.8-8.92,13.4
			c-0.17-0.16-0.35-0.32-0.53-0.47c-4.24,3.51-7.1,10.05-7.1,17.57c0,7.51,2.86,14.05,7.1,17.57c0.64-0.53,1.25-1.14,1.82-1.8
			c1.95,4.2,4.56,7.72,7.62,10.25c3.08-2.55,5.7-6.1,7.66-10.33c0.59,0.69,1.22,1.33,1.89,1.88c4.24-3.51,7.1-10.05,7.1-17.57
			C147.14,191.15,144.28,184.61,140.03,181.09z"/>
	</g>
	<g>
		<path class="st0" d="M63.55,188.53c-0.15,0.12-0.29,0.25-0.43,0.38c-1.42-3.98-3.62-7.29-6.32-9.52c-2.69,2.22-4.88,5.52-6.3,9.47
			c-0.12-0.11-0.25-0.23-0.37-0.33c-3,2.48-5.02,7.11-5.02,12.41c0,5.31,2.02,9.93,5.02,12.41c0.45-0.38,0.88-0.81,1.29-1.27
			c1.38,2.97,3.22,5.46,5.39,7.25c2.18-1.8,4.03-4.31,5.41-7.3c0.42,0.49,0.86,0.94,1.34,1.33c3-2.48,5.02-7.11,5.02-12.41
			C68.57,195.64,66.55,191.01,63.55,188.53z"/>
		<path class="st1" d="M61.99,191.05c-0.11,0.09-0.22,0.19-0.33,0.29c-1.09-3.05-2.78-5.59-4.85-7.31
			c-2.06,1.71-3.75,4.24-4.84,7.27c-0.09-0.09-0.19-0.17-0.29-0.25c-2.3,1.91-3.86,5.46-3.86,9.53c0,4.08,1.55,7.63,3.86,9.53
			c0.35-0.29,0.68-0.62,0.99-0.98c1.06,2.28,2.48,4.19,4.14,5.56c1.67-1.38,3.09-3.31,4.16-5.61c0.32,0.38,0.66,0.72,1.03,1.02
			c2.3-1.91,3.86-5.46,3.86-9.53C65.84,196.5,64.29,192.95,61.99,191.05z"/>
		<path class="st2" d="M60.65,189.23c-0.08,0.07-0.16,0.14-0.24,0.22c-0.81-2.26-2.06-4.14-3.6-5.41c-1.53,1.26-2.78,3.14-3.58,5.39
			c-0.07-0.06-0.14-0.13-0.21-0.19c-1.71,1.41-2.86,4.04-2.86,7.06c0,3.02,1.15,5.65,2.86,7.06c0.26-0.21,0.5-0.46,0.73-0.72
			c0.78,1.69,1.83,3.1,3.06,4.12c1.24-1.03,2.29-2.45,3.08-4.15c0.24,0.28,0.49,0.53,0.76,0.76c1.71-1.41,2.86-4.04,2.86-7.06
			C63.51,193.27,62.36,190.64,60.65,189.23z"/>
	</g>
	<g>
		<path class="st0" d="M207.64,188.53c-0.15,0.12-0.29,0.25-0.43,0.38c-1.42-3.98-3.62-7.29-6.32-9.52
			c-2.69,2.22-4.88,5.52-6.3,9.47c-0.12-0.11-0.25-0.23-0.37-0.33c-3,2.48-5.02,7.11-5.02,12.41c0,5.31,2.02,9.93,5.02,12.41
			c0.45-0.38,0.88-0.81,1.29-1.27c1.38,2.97,3.22,5.46,5.39,7.25c2.18-1.8,4.03-4.31,5.41-7.3c0.42,0.49,0.86,0.94,1.34,1.33
			c3-2.48,5.02-7.11,5.02-12.41C212.66,195.64,210.63,191.01,207.64,188.53z"/>
		<path class="st1" d="M206.08,191.05c-0.11,0.09-0.22,0.19-0.33,0.29c-1.09-3.05-2.78-5.59-4.85-7.31
			c-2.06,1.71-3.75,4.24-4.84,7.27c-0.09-0.09-0.19-0.17-0.29-0.25c-2.3,1.91-3.86,5.46-3.86,9.53c0,4.08,1.55,7.63,3.86,9.53
			c0.35-0.29,0.68-0.62,0.99-0.98c1.06,2.28,2.48,4.19,4.14,5.56c1.67-1.38,3.09-3.31,4.16-5.61c0.32,0.38,0.66,0.72,1.03,1.02
			c2.3-1.91,3.86-5.46,3.86-9.53C209.93,196.5,208.38,192.95,206.08,191.05z"/>
		<path class="st2" d="M204.74,189.23c-0.08,0.07-0.16,0.14-0.24,0.22c-0.81-2.26-2.06-4.14-3.6-5.41
			c-1.53,1.26-2.78,3.14-3.58,5.39c-0.07-0.06-0.14-0.13-0.21-0.19c-1.71,1.41-2.86,4.04-2.86,7.06c0,3.02,1.15,5.65,2.86,7.06
			c0.26-0.21,0.5-0.46,0.73-0.72c0.78,1.69,1.83,3.1,3.06,4.12c1.24-1.03,2.29-2.45,3.08-4.15c0.24,0.28,0.49,0.53,0.76,0.76
			c1.71-1.41,2.86-4.04,2.86-7.06C207.6,193.27,206.45,190.64,204.74,189.23z"/>
	</g>
	<g>
		<polygon class="st3" points="192.97,195.89 209.59,195.89 223.64,151.03 178.91,151.03 		"/>
		<polygon class="st4" points="223.64,151.03 209.59,195.89 200.92,195.89 214.98,151.03 		"/>
		<polygon class="st3" points="187.63,178.85 183.89,166.91 218.67,166.91 214.93,178.85 		"/>
		<polygon class="st3" points="65.15,195.89 48.52,195.89 34.47,151.03 79.2,151.03 		"/>
		<polygon class="st4" points="34.47,151.03 48.52,195.89 57.19,195.89 43.14,151.03 		"/>
		<polygon class="st3" points="70.49,178.85 74.23,166.91 39.44,166.91 43.19,178.85 		"/>
		<path class="st5" d="M251.32,160.35L133.54,2.89c-2.88-3.85-8.2-3.85-11.09,0L4.68,160.35c-3.9,5.21-0.56,13.11,5.54,13.11h235.56
			C251.88,173.46,255.22,165.56,251.32,160.35z"/>
		<path class="st6" d="M128,0c-2.05,0-4.1,0.96-5.54,2.89L4.68,160.35c-3.9,5.21-0.56,13.11,5.54,13.11H128V0z"/>
		<g>
			<path class="st7" d="M128,46.13c0,0-38.28,21.04-38.28,72.69s0,82.88,0,82.88h76.56c0,0,0-31.23,0-82.88S128,46.13,128,46.13z"/>
			<path class="st8" d="M89.72,118.82c0,51.66,0,82.88,0,82.88h40.66c0.9-50.69-2.38-155.58-2.38-155.58S89.72,67.16,89.72,118.82z"
				/>
			<path class="st9" d="M128,46.13c0,0-38.28,21.04-38.28,72.69s0,82.88,0,82.88h12.46c0,0,0-31.23,0-82.88S128,46.13,128,46.13z"/>
			<path class="st10" d="M128,46.13c0,0,38.28,21.04,38.28,72.69s0,82.88,0,82.88h-12.46c0,0,0-31.23,0-82.88S128,46.13,128,46.13z"
				/>
		</g>
		<path class="st11" d="M77.38,173.46v-58.62c0-2.08-1.27-3.84-3.23-4.5c-1.96-0.66-4.04-0.01-5.28,1.65l-31.63,42.19
			c-0.61,0.82-0.95,1.83-0.95,2.85v16.43h2.16v-16.43c0-0.56,0.18-1.1,0.51-1.55l31.63-42.19c0.82-1.09,2.02-1.18,2.87-0.9
			c0.85,0.28,1.75,1.08,1.75,2.44v58.62H77.38z"/>
		<path class="st12" d="M129.43,88.43c0,0-29.87,7.73-29.87,34.2c0,0,16.25-10.03,29.87-10.03s29.87,10.03,29.87,10.03
			C159.3,96.16,129.43,88.43,129.43,88.43z"/>
		<g>
			<path class="st13" d="M135.94,90.85c-3.79-1.71-6.51-2.41-6.51-2.41s-29.87,7.73-29.87,34.2c0,0,5.97-3.67,13.69-6.57
				C116.19,101.87,128.27,94.3,135.94,90.85z"/>
		</g>
		<path class="st14" d="M180.73,173.46v-58.62c0-2.08,1.27-3.84,3.23-4.5c1.96-0.66,4.04-0.01,5.28,1.65l31.63,42.19
			c0.61,0.82,0.95,1.83,0.95,2.85v16.43h-2.16v-16.43c0-0.56-0.18-1.1-0.51-1.55l-31.63-42.19c-0.82-1.09-2.02-1.18-2.87-0.9
			c-0.85,0.28-1.75,1.08-1.75,2.44v58.62H180.73z"/>
	</g>
</g>
</svg>
