<?xml version="1.0" encoding="utf-8"?>
<!-- Generator: Adobe Illustrator 25.2.0, SVG Export Plug-In . SVG Version: 6.00 Build 0)  -->
<svg version="1.1" id="Camada_1" xmlns="http://www.w3.org/2000/svg" xmlns:xlink="http://www.w3.org/1999/xlink" x="0px" y="0px"
	 viewBox="0 0 256 256" style="enable-background:new 0 0 256 256;" xml:space="preserve">
<style type="text/css">
	.st0{fill:#E13017;}
	.st1{fill:#F2B00A;}
	.st2{fill:#FEDC7A;}
	.st3{fill:#FC7761;}
	.st4{fill:#C1DDF3;}
	.st5{fill:#82A2D1;}
	.st6{fill:#DEF2FF;}
	.st7{fill:#E8614F;}
	.st8{fill:#C8CCCC;}
	.st9{fill:#EBF8FF;}
	.st10{fill:#7394BC;}
	.st11{fill:#527393;}
</style>
<g>
	<g>
		<path class="st0" d="M53.92,163.24c-0.13,0.1-0.25,0.22-0.37,0.33c-1.23-3.44-3.13-6.31-5.46-8.24c-2.32,1.93-4.21,4.78-5.44,8.2
			c-0.11-0.1-0.21-0.2-0.32-0.29c-2.59,2.15-4.33,6.15-4.33,10.75c0,4.6,1.75,8.6,4.33,10.75c0.39-0.33,0.76-0.7,1.11-1.1
			c1.19,2.57,2.78,4.73,4.65,6.28c1.88-1.56,3.48-3.73,4.67-6.33c0.36,0.43,0.75,0.81,1.15,1.15c2.59-2.15,4.33-6.15,4.33-10.75
			C58.25,169.39,56.51,165.39,53.92,163.24z"/>
		<path class="st1" d="M52.58,165.42c-0.1,0.08-0.19,0.17-0.28,0.25c-0.94-2.64-2.4-4.85-4.19-6.33c-1.78,1.48-3.24,3.67-4.18,6.3
			c-0.08-0.07-0.16-0.15-0.25-0.22c-1.99,1.65-3.33,4.73-3.33,8.26c0,3.53,1.34,6.61,3.33,8.26c0.3-0.25,0.58-0.54,0.85-0.85
			c0.91,1.97,2.14,3.63,3.57,4.82c1.44-1.2,2.67-2.87,3.59-4.86c0.28,0.33,0.57,0.63,0.88,0.88c1.99-1.65,3.33-4.73,3.33-8.26
			C55.9,170.14,54.56,167.07,52.58,165.42z"/>
		<path class="st2" d="M51.42,163.84c-0.07,0.06-0.14,0.12-0.21,0.19c-0.7-1.96-1.78-3.59-3.1-4.69c-1.32,1.09-2.4,2.72-3.09,4.66
			c-0.06-0.06-0.12-0.11-0.18-0.16c-1.47,1.22-2.46,3.5-2.46,6.12c0,2.61,0.99,4.89,2.46,6.12c0.22-0.18,0.43-0.4,0.63-0.63
			c0.68,1.46,1.58,2.69,2.65,3.57c1.07-0.89,1.98-2.12,2.66-3.6c0.21,0.24,0.42,0.46,0.66,0.66c1.47-1.22,2.46-3.5,2.46-6.12
			C53.89,167.34,52.89,165.06,51.42,163.84z"/>
	</g>
	<g>
		<path class="st0" d="M213.48,163.24c-0.13,0.1-0.25,0.22-0.37,0.33c-1.23-3.44-3.13-6.31-5.46-8.24c-2.32,1.93-4.21,4.78-5.44,8.2
			c-0.11-0.1-0.21-0.2-0.32-0.29c-2.59,2.15-4.33,6.15-4.33,10.75c0,4.6,1.75,8.6,4.33,10.75c0.39-0.33,0.76-0.7,1.11-1.1
			c1.19,2.57,2.78,4.73,4.65,6.28c1.88-1.56,3.48-3.73,4.67-6.33c0.36,0.43,0.75,0.81,1.15,1.15c2.59-2.15,4.33-6.15,4.33-10.75
			C217.81,169.39,216.07,165.39,213.48,163.24z"/>
		<path class="st1" d="M212.14,165.42c-0.1,0.08-0.19,0.17-0.28,0.25c-0.94-2.64-2.4-4.85-4.19-6.33c-1.78,1.48-3.24,3.67-4.18,6.3
			c-0.08-0.07-0.16-0.15-0.25-0.22c-1.99,1.65-3.33,4.73-3.33,8.26c0,3.53,1.34,6.61,3.33,8.26c0.3-0.25,0.58-0.54,0.85-0.85
			c0.91,1.97,2.14,3.63,3.57,4.82c1.44-1.2,2.67-2.87,3.59-4.86c0.28,0.33,0.57,0.63,0.88,0.88c1.99-1.65,3.33-4.73,3.33-8.26
			C215.46,170.14,214.12,167.07,212.14,165.42z"/>
		<path class="st2" d="M210.98,163.84c-0.07,0.06-0.14,0.12-0.21,0.19c-0.7-1.96-1.78-3.59-3.1-4.69c-1.32,1.09-2.4,2.72-3.09,4.66
			c-0.06-0.06-0.12-0.11-0.18-0.16c-1.47,1.22-2.46,3.5-2.46,6.12c0,2.61,0.99,4.89,2.46,6.12c0.22-0.18,0.43-0.4,0.63-0.63
			c0.68,1.46,1.58,2.69,2.65,3.57c1.07-0.89,1.98-2.12,2.66-3.6c0.21,0.24,0.42,0.46,0.66,0.66c1.47-1.22,2.46-3.5,2.46-6.12
			C213.45,167.34,212.45,165.06,210.98,163.84z"/>
	</g>
	<g>
		<path class="st0" d="M148.35,160.33c-0.45,0.37-0.89,0.78-1.32,1.18c-4.4-12.35-11.22-22.63-19.57-29.56
			c-8.31,6.9-15.11,17.13-19.51,29.41c-0.38-0.35-0.76-0.7-1.15-1.03c-9.28,7.71-15.54,22.07-15.54,38.56
			c0,16.49,6.26,30.85,15.54,38.56c1.4-1.17,2.73-2.5,3.98-3.96c4.27,9.21,9.98,16.95,16.68,22.51c6.74-5.6,12.48-13.39,16.76-22.68
			c1.3,1.52,2.67,2.92,4.13,4.13c9.28-7.71,15.54-22.07,15.54-38.56C163.89,182.4,157.63,168.04,148.35,160.33z"/>
		<path class="st1" d="M143.53,168.13c-0.35,0.29-0.68,0.6-1.01,0.91c-3.38-9.48-8.62-17.38-15.03-22.7
			c-6.38,5.3-11.6,13.16-14.98,22.59c-0.29-0.27-0.58-0.54-0.88-0.79c-7.13,5.92-11.93,16.95-11.93,29.61
			c0,12.66,4.81,23.69,11.93,29.61c1.08-0.9,2.1-1.92,3.06-3.04c3.28,7.08,7.66,13.01,12.81,17.29c5.18-4.3,9.58-10.29,12.87-17.42
			c1,1.17,2.05,2.24,3.17,3.17c7.13-5.92,11.93-16.95,11.93-29.61C155.47,185.08,150.66,174.06,143.53,168.13z"/>
		<path class="st2" d="M139.39,162.48c-0.26,0.21-0.5,0.44-0.75,0.67c-2.5-7.02-6.38-12.87-11.13-16.81
			c-4.73,3.93-8.59,9.74-11.1,16.73c-0.22-0.2-0.43-0.4-0.65-0.58c-5.28,4.38-8.84,12.55-8.84,21.93c0,9.38,3.56,17.55,8.84,21.93
			c0.8-0.66,1.55-1.42,2.27-2.25c2.43,5.24,5.68,9.64,9.49,12.8c3.83-3.18,7.1-7.62,9.53-12.9c0.74,0.87,1.52,1.66,2.35,2.35
			c5.28-4.38,8.84-12.55,8.84-21.93C148.23,175.04,144.67,166.87,139.39,162.48z"/>
	</g>
	<g>
		<g>
			<g>
				<path class="st3" d="M94.59,102.79c0.19,0-30.11,8.5-46.46-8.09v57.46c0,0,39.43-18.48,61.55-2.71L94.59,102.79z"/>
				<rect x="38.24" y="84.95" class="st4" width="20.63" height="77.95"/>
				<rect x="38.24" y="84.95" class="st5" width="6.4" height="77.95"/>
				<rect x="52.46" y="84.95" class="st6" width="6.4" height="77.95"/>
			</g>
			<path class="st7" d="M71.66,122.1c-5.32,0.62-8.45,11.46-6.99,24.22c5.72-1.55,12.39-2.87,19.18-3.17
				C82.21,130.85,76.85,121.49,71.66,122.1z"/>
		</g>
		<g>
			<g>
				<path class="st3" d="M161.65,102.79c-0.19,0,30.11,8.5,46.46-8.09v57.46c0,0-39.43-18.48-61.55-2.71L161.65,102.79z"/>
				
					<rect x="197.37" y="84.95" transform="matrix(-1 -4.524260e-11 4.524260e-11 -1 415.3747 247.841)" class="st4" width="20.63" height="77.95"/>
				
					<rect x="211.6" y="84.95" transform="matrix(-1 -4.545132e-11 4.545132e-11 -1 429.5967 247.841)" class="st5" width="6.4" height="77.95"/>
				
					<rect x="197.37" y="84.95" transform="matrix(-1 -4.545132e-11 4.545132e-11 -1 401.1527 247.841)" class="st6" width="6.4" height="77.95"/>
			</g>
			<path class="st7" d="M184.58,122.1c5.32,0.62,8.45,11.46,6.99,24.22c-5.72-1.55-12.39-2.87-19.18-3.17
				C174.02,130.85,179.38,121.49,184.58,122.1z"/>
		</g>
		<g>
			<ellipse class="st4" cx="127.75" cy="102.6" rx="46.1" ry="102.6"/>
			<path class="st5" d="M127.75,0c-28.25,25.06-46.1,61.72-46.1,102.6s17.85,77.54,46.1,102.6c-16.29-38.65-22.92-61.72-22.92-102.6
				C104.84,64.78,107.6,34.71,127.75,0z"/>
			<path class="st6" d="M127.75,0c28.25,25.06,46.1,61.72,46.1,102.6s-17.85,77.54-46.1,102.6c16.29-38.65,22.92-61.72,22.92-102.6
				C150.67,64.78,147.9,34.71,127.75,0z"/>
		</g>
		<path class="st8" d="M151.8,81.21H99.49c-3.47,0-6.27,2.83-6.27,6.31v38.1c0,3.49,2.81,6.31,6.27,6.31h52.31
			c3.47,0,6.27-2.83,6.27-6.31v-38.1C158.07,84.04,155.26,81.21,151.8,81.21z"/>
		<path class="st9" d="M153.9,78.14H101.6c-3.47,0-6.27,2.83-6.27,6.31v38.1c0,3.49,2.81,6.31,6.27,6.31h52.31
			c3.47,0,6.27-2.83,6.27-6.31v-38.1C160.18,80.97,157.37,78.14,153.9,78.14z"/>
		<path class="st5" d="M149.98,84.95h-44.46c-1.9,0-3.44,1.55-3.44,3.46v30.2c0,1.91,1.54,3.46,3.44,3.46h44.46
			c1.9,0,3.44-1.55,3.44-3.46v-30.2C153.42,86.5,151.88,84.95,149.98,84.95z"/>
		<path class="st10" d="M127.75,118.61v-30.2c0-1.91,1.54-3.46,3.44-3.46h-25.67c-1.9,0-3.44,1.55-3.44,3.46v30.2
			c0,1.91,1.54,3.46,3.44,3.46h25.67C129.29,122.07,127.75,120.52,127.75,118.61z"/>
		<path class="st11" d="M104.7,120.53v-30.2c0-1.91,1.54-3.46,3.44-3.46h44.46c0.16,0,0.32,0.03,0.47,0.05
			c-0.56-1.16-1.72-1.97-3.09-1.97h-44.46c-1.9,0-3.44,1.55-3.44,3.46v30.2c0,1.75,1.29,3.18,2.97,3.41
			C104.84,121.57,104.7,121.07,104.7,120.53z"/>
	</g>
</g>
</svg>
