<?xml version="1.0" encoding="utf-8"?>
<!-- Generator: Adobe Illustrator 25.2.0, SVG Export Plug-In . SVG Version: 6.00 Build 0)  -->
<svg version="1.1" id="OBJECTS" xmlns="http://www.w3.org/2000/svg" xmlns:xlink="http://www.w3.org/1999/xlink" x="0px" y="0px"
	 viewBox="0 0 500 500" style="enable-background:new 0 0 500 500;" xml:space="preserve">
<style type="text/css">
	.st0{fill:#FFFFFF;stroke:#000000;stroke-width:0.1;stroke-miterlimit:10;}
	.st1{fill:#E13017;}
	.st2{fill:#F2B00A;}
	.st3{fill:#FEDC7A;}
	.st4{fill:#FC7761;}
	.st5{fill:#C1DDF3;}
	.st6{fill:#82A2D1;}
	.st7{fill:#DEF2FF;}
	.st8{fill:#E8614F;}
	.st9{fill:#C8CCCC;}
	.st10{fill:#EBF8FF;}
	.st11{fill:#7394BC;}
	.st12{fill:#527393;}
	.st13{fill:#4C6DA0;}
	.st14{fill:#DDB552;}
	.st15{fill:#B7EBF9;}
	.st16{fill:#A7DDEA;}
	.st17{fill:#7FCCE6;}
	.st18{fill:#D2F1F9;}
	.st19{fill:#3A5A89;}
	.st20{fill:#2C4768;}
	.st21{fill:#FFFFFF;}
	.st22{fill:#D65543;}
	.st23{fill:#334F77;}
	.st24{fill:#B0C7E2;}
	.st25{fill:#41608C;}
	.st26{fill:#273E5B;}
	.st27{fill:#60AEC4;}
	.st28{fill:#6488BC;}
	.st29{fill:#51749E;}
	.st30{fill:#3B5D7F;}
	.st31{fill:#E5604E;}
	.st32{fill:#F9968A;}
	.st33{fill:#CC5144;}
	.st34{fill:#B54139;}
	.st35{fill:#BF433A;}
	.st36{fill:#ED7269;}
	.st37{fill:#FFBDBB;}
	.st38{fill:#EAC56A;}
	.st39{fill:#DBAC37;}
	.st40{fill:#F49387;}
	.st41{fill:#F4C0BD;}
	.st42{fill:#3EB0D2;}
	.st43{fill:#2E97AF;}
	.st44{fill:#6CCFE5;}
	.st45{fill:#B7EFF9;}
	.st46{fill:#C4423F;}
	.st47{fill:#B53633;}
	.st48{fill:#EFEFEF;}
	.st49{fill:#EAC257;}
	.st50{fill:#C99D3A;}
	.st51{fill:#F7DC9F;}
	.st52{fill:#CEA03A;}
	.st53{fill:#D55049;}
	.st54{fill:#BC3C39;}
	.st55{fill:#EDF5F9;}
</style>
<rect class="st0" width="16" height="16"/>
<rect x="16" class="st0" width="16" height="16"/>
<rect x="32" class="st0" width="16" height="16"/>
<rect y="16" class="st0" width="16" height="16"/>
<rect x="16" y="16" class="st0" width="16" height="16"/>
<rect x="32" y="16" class="st0" width="16" height="16"/>
<rect y="32" class="st0" width="16" height="16"/>
<rect x="16" y="32" class="st0" width="16" height="16"/>
<rect x="32" y="32" class="st0" width="16" height="16"/>
<g>
	<g>
		<path class="st1" d="M35.3,26.2C35.3,26.2,35.3,26.2,35.3,26.2c-0.1-0.2-0.2-0.4-0.4-0.5c-0.1,0.1-0.3,0.3-0.3,0.5c0,0,0,0,0,0
			c-0.2,0.1-0.3,0.4-0.3,0.7s0.1,0.5,0.3,0.7c0,0,0,0,0.1-0.1c0.1,0.2,0.2,0.3,0.3,0.4c0.1-0.1,0.2-0.2,0.3-0.4c0,0,0,0.1,0.1,0.1
			c0.2-0.1,0.3-0.4,0.3-0.7C35.6,26.6,35.5,26.3,35.3,26.2z"/>
		<path class="st2" d="M35.3,26.3C35.2,26.3,35.2,26.4,35.3,26.3c-0.1-0.1-0.2-0.3-0.3-0.4c-0.1,0.1-0.2,0.2-0.3,0.4c0,0,0,0,0,0
			c-0.1,0.1-0.2,0.3-0.2,0.5s0.1,0.4,0.2,0.5c0,0,0,0,0.1-0.1c0.1,0.1,0.1,0.2,0.2,0.3c0.1-0.1,0.2-0.2,0.2-0.3c0,0,0,0,0.1,0.1
			c0.1-0.1,0.2-0.3,0.2-0.5C35.5,26.6,35.4,26.4,35.3,26.3z"/>
		<path class="st3" d="M35.2,26.2C35.2,26.2,35.2,26.2,35.2,26.2C35.1,26.1,35.1,26,35,26c-0.1,0.1-0.2,0.2-0.2,0.3c0,0,0,0,0,0
			c-0.1,0.1-0.2,0.2-0.2,0.4c0,0.2,0.1,0.3,0.2,0.4c0,0,0,0,0,0c0,0.1,0.1,0.2,0.2,0.2c0.1-0.1,0.1-0.1,0.2-0.2c0,0,0,0,0,0
			c0.1-0.1,0.2-0.2,0.2-0.4C35.3,26.5,35.3,26.3,35.2,26.2z"/>
	</g>
	<g>
		<path class="st1" d="M45.4,26.2C45.4,26.2,45.4,26.2,45.4,26.2c-0.1-0.2-0.2-0.4-0.4-0.5c-0.1,0.1-0.3,0.3-0.3,0.5c0,0,0,0,0,0
			c-0.2,0.1-0.3,0.4-0.3,0.7s0.1,0.5,0.3,0.7c0,0,0,0,0.1-0.1c0.1,0.2,0.2,0.3,0.3,0.4c0.1-0.1,0.2-0.2,0.3-0.4c0,0,0,0.1,0.1,0.1
			c0.2-0.1,0.3-0.4,0.3-0.7C45.7,26.6,45.5,26.3,45.4,26.2z"/>
		<path class="st2" d="M45.3,26.3C45.3,26.3,45.3,26.4,45.3,26.3c-0.1-0.1-0.2-0.3-0.3-0.4c-0.1,0.1-0.2,0.2-0.3,0.4c0,0,0,0,0,0
			c-0.1,0.1-0.2,0.3-0.2,0.5s0.1,0.4,0.2,0.5c0,0,0,0,0.1-0.1c0.1,0.1,0.1,0.2,0.2,0.3c0.1-0.1,0.2-0.2,0.2-0.3c0,0,0,0,0.1,0.1
			c0.1-0.1,0.2-0.3,0.2-0.5C45.5,26.6,45.4,26.4,45.3,26.3z"/>
		<path class="st3" d="M45.2,26.2C45.2,26.2,45.2,26.2,45.2,26.2C45.2,26.1,45.1,26,45,26c-0.1,0.1-0.2,0.2-0.2,0.3c0,0,0,0,0,0
			c-0.1,0.1-0.2,0.2-0.2,0.4c0,0.2,0.1,0.3,0.2,0.4c0,0,0,0,0,0c0,0.1,0.1,0.2,0.2,0.2c0.1-0.1,0.1-0.1,0.2-0.2c0,0,0,0,0,0
			c0.1-0.1,0.2-0.2,0.2-0.4C45.4,26.5,45.3,26.3,45.2,26.2z"/>
	</g>
	<g>
		<path class="st1" d="M41.3,26C41.3,26,41.2,26.1,41.3,26c-0.4-0.7-0.8-1.3-1.3-1.8c-0.5,0.4-1,1.1-1.2,1.8c0,0,0,0-0.1-0.1
			c-0.6,0.5-1,1.4-1,2.4s0.4,1.9,1,2.4c0.1-0.1,0.2-0.2,0.3-0.2c0.3,0.6,0.6,1.1,1,1.4c0.4-0.3,0.8-0.8,1.1-1.4
			c0.1,0.1,0.2,0.2,0.3,0.3c0.6-0.5,1-1.4,1-2.4C42.3,27.4,41.9,26.5,41.3,26z"/>
		<path class="st2" d="M41,26.5C41,26.5,40.9,26.5,41,26.5c-0.3-0.5-0.6-1-1-1.4c-0.4,0.3-0.7,0.8-0.9,1.4c0,0,0,0-0.1,0
			c-0.4,0.4-0.8,1.1-0.8,1.9s0.3,1.5,0.8,1.9c0.1-0.1,0.1-0.1,0.2-0.2c0.2,0.4,0.5,0.8,0.8,1.1c0.3-0.3,0.6-0.6,0.8-1.1
			c0.1,0.1,0.1,0.1,0.2,0.2c0.4-0.4,0.8-1.1,0.8-1.9C41.7,27.6,41.4,26.9,41,26.5z"/>
		<path class="st3" d="M40.7,26.2C40.7,26.2,40.7,26.2,40.7,26.2c-0.2-0.4-0.4-0.8-0.7-1c-0.3,0.2-0.5,0.6-0.7,1c0,0,0,0,0,0
			c-0.3,0.3-0.6,0.8-0.6,1.4c0,0.6,0.2,1.1,0.6,1.4c0,0,0.1-0.1,0.1-0.1c0.2,0.3,0.4,0.6,0.6,0.8c0.2-0.2,0.4-0.5,0.6-0.8
			c0,0.1,0.1,0.1,0.1,0.1c0.3-0.3,0.6-0.8,0.6-1.4S41,26.4,40.7,26.2z"/>
	</g>
	<g>
		<g>
			<g>
				<path class="st4" d="M37.9,22.4c0,0-1.9,0.5-2.9-0.5v3.6c0,0,2.5-1.2,3.9-0.2L37.9,22.4z"/>
				<rect x="34.4" y="21.3" class="st5" width="1.3" height="4.9"/>
				<rect x="34.4" y="21.3" class="st6" width="0.4" height="4.9"/>
				<rect x="35.2" y="21.3" class="st7" width="0.4" height="4.9"/>
			</g>
			<path class="st8" d="M36.5,23.6c-0.3,0-0.5,0.7-0.4,1.5c0.4-0.1,0.8-0.2,1.2-0.2C37.1,24.2,36.8,23.6,36.5,23.6z"/>
		</g>
		<g>
			<g>
				<path class="st4" d="M42.1,22.4c0,0,1.9,0.5,2.9-0.5v3.6c0,0-2.5-1.2-3.9-0.2L42.1,22.4z"/>
				<rect x="44.4" y="21.3" class="st5" width="1.3" height="4.9"/>
				<rect x="45.3" y="21.3" class="st6" width="0.4" height="4.9"/>
				<rect x="44.4" y="21.3" class="st7" width="0.4" height="4.9"/>
			</g>
			<path class="st8" d="M43.6,23.6c0.3,0,0.5,0.7,0.4,1.5c-0.4-0.1-0.8-0.2-1.2-0.2C42.9,24.2,43.2,23.6,43.6,23.6z"/>
		</g>
		<g>
			<ellipse class="st5" cx="40" cy="22.4" rx="2.9" ry="6.4"/>
			<path class="st6" d="M40,16c-1.8,1.6-2.9,3.9-2.9,6.4s1.1,4.8,2.9,6.4c-1-2.4-1.4-3.9-1.4-6.4C38.5,20,38.7,18.2,40,16z"/>
			<path class="st7" d="M40,16c1.8,1.6,2.9,3.9,2.9,6.4s-1.1,4.8-2.9,6.4c1-2.4,1.4-3.9,1.4-6.4C41.4,20,41.3,18.2,40,16z"/>
		</g>
		<path class="st9" d="M41.5,21.1h-3.3c-0.2,0-0.4,0.2-0.4,0.4v2.4c0,0.2,0.2,0.4,0.4,0.4h3.3c0.2,0,0.4-0.2,0.4-0.4v-2.4
			C41.9,21.3,41.7,21.1,41.5,21.1z"/>
		<path class="st10" d="M41.6,20.9h-3.3c-0.2,0-0.4,0.2-0.4,0.4v2.4c0,0.2,0.2,0.4,0.4,0.4h3.3c0.2,0,0.4-0.2,0.4-0.4v-2.4
			C42,21.1,41.8,20.9,41.6,20.9z"/>
		<path class="st6" d="M41.4,21.3h-2.8c-0.1,0-0.2,0.1-0.2,0.2v1.9c0,0.1,0.1,0.2,0.2,0.2h2.8c0.1,0,0.2-0.1,0.2-0.2v-1.9
			C41.6,21.4,41.5,21.3,41.4,21.3z"/>
		<path class="st11" d="M40,23.4v-1.9c0-0.1,0.1-0.2,0.2-0.2h-1.6c-0.1,0-0.2,0.1-0.2,0.2v1.9c0,0.1,0.1,0.2,0.2,0.2h1.6
			C40.1,23.6,40,23.5,40,23.4z"/>
		<path class="st12" d="M38.5,23.5v-1.9c0-0.1,0.1-0.2,0.2-0.2h2.8c0,0,0,0,0,0c0-0.1-0.1-0.1-0.2-0.1h-2.8c-0.1,0-0.2,0.1-0.2,0.2
			v1.9C38.4,23.5,38.5,23.6,38.5,23.5C38.5,23.6,38.5,23.6,38.5,23.5z"/>
	</g>
</g>
<g>
	<g>
		<path class="st1" d="M41.1,43.4C41,43.4,41,43.4,41.1,43.4c-0.3-0.5-0.6-1-1-1.4c-0.4,0.3-0.7,0.8-1,1.4c0,0,0,0-0.1-0.1
			c-0.5,0.4-0.8,1.1-0.8,1.9s0.3,1.5,0.8,1.9c0.1-0.1,0.1-0.1,0.2-0.2c0.2,0.4,0.5,0.8,0.8,1.1c0.3-0.3,0.6-0.6,0.8-1.1
			c0.1,0.1,0.1,0.1,0.2,0.2c0.5-0.4,0.8-1.1,0.8-1.9C41.8,44.4,41.5,43.7,41.1,43.4z"/>
		<path class="st2" d="M40.8,43.7C40.8,43.8,40.8,43.8,40.8,43.7c-0.2-0.4-0.5-0.8-0.8-1.1c-0.3,0.3-0.6,0.6-0.7,1.1c0,0,0,0,0,0
			c-0.3,0.3-0.6,0.8-0.6,1.4c0,0.6,0.2,1.1,0.6,1.4c0.1,0,0.1-0.1,0.1-0.1c0.2,0.3,0.4,0.6,0.6,0.8c0.3-0.2,0.5-0.5,0.6-0.8
			c0,0.1,0.1,0.1,0.2,0.2c0.3-0.3,0.6-0.8,0.6-1.4C41.4,44.6,41.2,44,40.8,43.7z"/>
		<path class="st3" d="M40.6,43.5C40.6,43.5,40.6,43.5,40.6,43.5c-0.2-0.3-0.3-0.6-0.6-0.8c-0.2,0.2-0.4,0.5-0.5,0.8c0,0,0,0,0,0
			c-0.3,0.2-0.4,0.6-0.4,1.1c0,0.5,0.2,0.9,0.4,1.1c0,0,0.1-0.1,0.1-0.1c0.1,0.3,0.3,0.5,0.5,0.6c0.2-0.2,0.3-0.4,0.5-0.6
			c0,0,0.1,0.1,0.1,0.1c0.3-0.2,0.4-0.6,0.4-1.1C41,44.1,40.9,43.7,40.6,43.5z"/>
	</g>
	<path class="st6" d="M47.5,41.7l-7.1-9.5c-0.2-0.2-0.5-0.2-0.7,0l-7.1,9.5c-0.2,0.3,0,0.8,0.3,0.8h14.3
		C47.5,42.5,47.7,42,47.5,41.7z"/>
	<path class="st13" d="M40,32c-0.1,0-0.2,0.1-0.3,0.2l-7.1,9.5c-0.2,0.3,0,0.8,0.3,0.8H40V32z"/>
	<path class="st3" d="M38.1,41.2c0,0-2.4,0.3-2.7-1.3h-0.9l1.5,5.6h1c0,0,0.3-2.6,1.3-2.8L38.1,41.2z"/>
	<polygon class="st14" points="34.4,39.9 35.9,45.5 36.4,45.5 34.9,39.9 	"/>
	<path class="st3" d="M41.9,41.2c0,0,2.4,0.3,2.7-1.3h0.9l-1.5,5.6h-1c0,0-0.3-2.6-1.3-2.8L41.9,41.2z"/>
	<polygon class="st14" points="45.6,39.9 44.1,45.5 43.6,45.5 45.1,39.9 	"/>
	<g>
		<path class="st15" d="M40,35.2c0,0-2.3,1.3-2.3,4.4c0,3.1,0,3.6,0,3.6h4.6c0,0,0-0.5,0-3.6C42.3,36.5,40,35.2,40,35.2z"/>
		<path class="st16" d="M37.7,39.6c0,3.1,0,3.6,0,3.6h2.5c0.1-3.1-0.1-8-0.1-8S37.7,36.5,37.7,39.6z"/>
		<path class="st17" d="M40,35.2c0,0-2.3,1.3-2.3,4.4c0,3.1,0,3.6,0,3.6h0.8c0,0,0-0.5,0-3.6C38.4,36.5,40,35.2,40,35.2z"/>
		<path class="st18" d="M40,35.2c0,0,2.3,1.3,2.3,4.4c0,3.1,0,3.6,0,3.6h-0.8c0,0,0-0.5,0-3.6C41.6,36.5,40,35.2,40,35.2z"/>
	</g>
	<g>
		<circle class="st19" cx="36.4" cy="39" r="0.7"/>
		<circle class="st16" cx="36.4" cy="39" r="0.3"/>
		<path class="st20" d="M35.8,39.1c0-0.4,0.3-0.7,0.7-0.7c0.2,0,0.4,0.1,0.5,0.3c-0.1-0.2-0.3-0.4-0.6-0.4c-0.4,0-0.7,0.3-0.7,0.7
			c0,0.1,0,0.3,0.1,0.4C35.9,39.3,35.8,39.2,35.8,39.1z"/>
	</g>
	<g>
		<circle class="st19" cx="43.6" cy="39" r="0.7"/>
		<circle class="st16" cx="43.6" cy="39" r="0.3"/>
		<path class="st20" d="M43,39.1c0-0.4,0.3-0.7,0.7-0.7c0.2,0,0.4,0.1,0.5,0.3c-0.1-0.2-0.3-0.4-0.6-0.4c-0.4,0-0.7,0.3-0.7,0.7
			c0,0.1,0,0.3,0.1,0.4C43,39.3,43,39.2,43,39.1z"/>
	</g>
	<g>
		<circle class="st9" cx="40" cy="40.2" r="1.5"/>
		<circle class="st13" cx="40" cy="40" r="1.5"/>
		<circle class="st3" cx="40" cy="40" r="1.1"/>
		<path class="st17" d="M39.1,40c0.1-0.5,0.5-0.9,0.9-0.9c0.4,0,0.7,0.1,0.9,0.3c-0.2-0.3-0.6-0.5-1-0.5C39.4,39,39,39.4,39,39.9
			c0,0.4,0.1,0.7,0.3,0.9C39.2,40.6,39.1,40.3,39.1,40z"/>
	</g>
	<path class="st21" d="M41.1,40c0-0.2-0.1-0.5-0.2-0.6l-1.5,1.5c0.2,0.1,0.4,0.2,0.6,0.2c0.1,0,0.1,0,0.2,0l0.9-0.9
		C41.1,40.1,41.1,40,41.1,40z"/>
	<path class="st21" d="M39,40l1.1-1.1c-0.1,0-0.2,0-0.3,0.1L39,39.7C39,39.8,39,39.9,39,40z"/>
	<path class="st21" d="M39.1,40.6l1.5-1.5c-0.1-0.1-0.2-0.1-0.4-0.2L39,40.2C39,40.4,39.1,40.5,39.1,40.6z"/>
</g>
<g>
	<g>
		<g>
			<path class="st1" d="M39.2,11.8C39.2,11.8,39.3,11.8,39.2,11.8c0.2-0.5,0.5-0.9,0.8-1.2c0.3,0.3,0.6,0.7,0.7,1.3c0,0,0,0,0,0
				c0.4,0.3,0.6,1,0.6,1.7c0,0.7-0.2,1.3-0.6,1.7c-0.1-0.1-0.1-0.1-0.2-0.2c-0.2,0.4-0.4,0.7-0.6,1c-0.3-0.2-0.5-0.6-0.6-1
				c0,0.1-0.1,0.1-0.2,0.2c-0.4-0.3-0.6-1-0.6-1.7C38.6,12.8,38.9,12.1,39.2,11.8z"/>
			<path class="st2" d="M39.4,12.1C39.4,12.2,39.4,12.2,39.4,12.1c0.2-0.4,0.4-0.7,0.6-1c0.2,0.2,0.4,0.6,0.6,1c0,0,0,0,0,0
				c0.3,0.3,0.5,0.7,0.5,1.3c0,0.6-0.2,1-0.5,1.3c0,0-0.1-0.1-0.1-0.1c-0.1,0.3-0.3,0.6-0.5,0.8c-0.2-0.2-0.4-0.4-0.5-0.8
				c0,0.1-0.1,0.1-0.1,0.1C39.1,14.5,39,14,39,13.4C38.9,12.9,39.1,12.4,39.4,12.1z"/>
			<path class="st3" d="M39.6,11.9C39.6,11.9,39.6,11.9,39.6,11.9c0.1-0.3,0.3-0.5,0.5-0.7c0.2,0.2,0.3,0.4,0.4,0.7c0,0,0,0,0,0
				c0.2,0.2,0.3,0.5,0.3,1c0,0.4-0.1,0.8-0.3,1c0,0-0.1-0.1-0.1-0.1c-0.1,0.2-0.2,0.4-0.4,0.6c-0.1-0.1-0.3-0.3-0.4-0.6
				c0,0-0.1,0.1-0.1,0.1c-0.2-0.2-0.3-0.5-0.3-1C39.2,12.4,39.4,12.1,39.6,11.9z"/>
		</g>
		<g>
			<path class="st22" d="M37.4,7.4c-1.6,2.3-1.7,5.9,0,8.6l0.1-0.2l1.9-5L37.4,7.4z"/>
			<path class="st4" d="M37.4,10.3c-1.1,1.5-1.2,3.6-0.2,5.2l0.3,0.5l1.3-3.4L37.4,10.3z"/>
		</g>
		<g>
			<path class="st22" d="M42.6,7.4c1.6,2.3,1.7,5.9,0,8.6l-0.1-0.2l-1.9-5L42.6,7.4z"/>
			<path class="st4" d="M42.6,10.3c1.1,1.5,1.2,3.6,0.2,5.2L42.6,16l-1.3-3.4L42.6,10.3z"/>
		</g>
		<g>
			<g>
				<path class="st6" d="M40,0c0,0-2.6,1.4-2.6,5s0,5.7,0,5.7h5.2c0,0,0-2.1,0-5.7S40,0,40,0z"/>
				<path class="st13" d="M37.4,5c0,3.5,0,5.7,0,5.7h2.8C40.2,7.2,40,0,40,0S37.4,1.4,37.4,5z"/>
				<path class="st23" d="M40,0c0,0-2.6,1.4-2.6,5s0,5.7,0,5.7h0.9c0,0,0-2.1,0-5.7S40,0,40,0z"/>
				<path class="st24" d="M40,0c0,0,2.6,1.4,2.6,5s0,5.7,0,5.7h-0.9c0,0,0-2.1,0-5.7S40,0,40,0z"/>
			</g>
			<polygon class="st25" points="41.3,12.9 38.7,12.9 37.4,10.6 42.6,10.6 			"/>
			<polygon class="st23" points="37.4,10.6 38.7,12.9 39.5,12.9 38.2,10.6 			"/>
			<polygon class="st6" points="42.6,10.6 41.3,12.9 40.5,12.9 41.8,10.6 			"/>
		</g>
		<g>
			<rect x="37.4" y="6.5" class="st23" width="1.5" height="2.5"/>
			<rect x="38.5" y="6.5" class="st26" width="0.3" height="2.5"/>
			<rect x="37.4" y="6.5" class="st26" width="1.5" height="0.3"/>
			<rect x="37.4" y="8.7" class="st26" width="1.5" height="0.3"/>
		</g>
		<g>
			<rect x="41.1" y="6.5" class="st23" width="1.5" height="2.5"/>
			<rect x="41.1" y="6.5" class="st26" width="0.3" height="2.5"/>
			<rect x="41.1" y="6.5" class="st26" width="1.5" height="0.3"/>
			<rect x="41.1" y="8.7" class="st26" width="1.5" height="0.3"/>
		</g>
	</g>
	<path class="st21" d="M40.1,1.9c0,0-1.4,0.4-1.4,1.6c0,0,0.8-0.5,1.4-0.5c0.6,0,1.4,0.5,1.4,0.5C41.5,2.3,40.1,1.9,40.1,1.9z"/>
</g>
<g>
	<g>
		<path class="st1" d="M8.6,13.1C8.6,13.1,8.6,13.1,8.6,13.1c-0.2-0.3-0.4-0.7-0.6-0.9c-0.3,0.2-0.5,0.5-0.6,0.9c0,0,0,0,0,0
			c-0.3,0.2-0.5,0.7-0.5,1.2c0,0.5,0.2,0.9,0.5,1.2c0,0,0.1-0.1,0.1-0.1c0.1,0.3,0.3,0.5,0.5,0.7c0.2-0.2,0.4-0.4,0.5-0.7
			c0,0,0.1,0.1,0.1,0.1c0.3-0.2,0.5-0.7,0.5-1.2C9.1,13.8,8.9,13.3,8.6,13.1z"/>
		<path class="st2" d="M8.4,13.3C8.4,13.3,8.4,13.3,8.4,13.3c-0.1-0.3-0.3-0.5-0.5-0.7c-0.2,0.2-0.4,0.4-0.5,0.7c0,0,0,0,0,0
			c-0.2,0.2-0.4,0.5-0.4,0.9c0,0.4,0.1,0.7,0.4,0.9c0,0,0.1-0.1,0.1-0.1c0.1,0.2,0.2,0.4,0.4,0.5c0.2-0.1,0.3-0.3,0.4-0.5
			c0,0,0.1,0.1,0.1,0.1c0.2-0.2,0.4-0.5,0.4-0.9C8.8,13.8,8.7,13.5,8.4,13.3z"/>
		<path class="st3" d="M8.3,13.1C8.3,13.1,8.3,13.2,8.3,13.1c-0.1-0.2-0.2-0.4-0.4-0.5c-0.1,0.1-0.3,0.3-0.3,0.5c0,0,0,0,0,0
			c-0.2,0.1-0.3,0.4-0.3,0.7s0.1,0.5,0.3,0.7c0,0,0,0,0.1-0.1c0.1,0.2,0.2,0.3,0.3,0.4c0.1-0.1,0.2-0.2,0.3-0.4c0,0,0,0.1,0.1,0.1
			c0.2-0.1,0.3-0.4,0.3-0.7C8.6,13.5,8.5,13.3,8.3,13.1z"/>
	</g>
	<g>
		<path class="st15" d="M8,0c0,0-2.8,1.5-2.8,5.2s0,6,0,6h5.5c0,0,0-2.3,0-6S8,0,8,0z"/>
		<path class="st16" d="M5.2,5.2c0,3.7,0,6,0,6h2.9C8.2,7.6,8,0,8,0S5.2,1.5,5.2,5.2z"/>
		<path class="st17" d="M8,0c0,0-2.8,1.5-2.8,5.2s0,6,0,6h0.9c0,0,0-2.3,0-6S8,0,8,0z"/>
		<path class="st18" d="M8,0c0,0,2.8,1.5,2.8,5.2s0,6,0,6H9.9c0,0,0-2.3,0-6S8,0,8,0z"/>
	</g>
	<path class="st13" d="M8,0c0,0-1.2,0.7-2,2.2C6.5,2.7,7.2,3,8,3s1.5-0.3,2-0.8C9.2,0.7,8,0,8,0z"/>
	<g>
		<circle class="st13" cx="7.9" cy="7" r="1.4"/>
		<circle class="st17" cx="7.9" cy="7" r="1.1"/>
		<path class="st17" d="M7,7.1c0.1-0.5,0.4-0.9,0.9-0.9c0.3,0,0.7,0.1,0.9,0.3C8.6,6.1,8.2,5.9,7.8,6C7.3,6,6.9,6.4,6.9,6.9
			c0,0.3,0.1,0.7,0.3,0.9C7,7.6,7,7.4,7,7.1z"/>
	</g>
	<polygon class="st17" points="9.4,13.7 6.6,13.7 5.2,11.2 10.8,11.2 	"/>
	<polygon class="st27" points="5.2,11.2 6.6,13.7 7.5,13.7 6.1,11.2 	"/>
	<polygon class="st15" points="10.8,11.2 9.4,13.7 8.5,13.7 9.9,11.2 	"/>
	<g>
		<g>
			<path class="st1" d="M4.6,13.2C4.6,13.2,4.6,13.2,4.6,13.2c-0.1-0.2-0.3-0.4-0.4-0.5C4,12.8,3.9,13,3.8,13.2c0,0,0,0,0,0
				c-0.2,0.1-0.3,0.4-0.3,0.7c0,0.3,0.1,0.6,0.3,0.7c0,0,0.1,0,0.1-0.1c0.1,0.2,0.2,0.3,0.3,0.4c0.1-0.1,0.3-0.3,0.3-0.4
				c0,0,0.1,0.1,0.1,0.1c0.2-0.1,0.3-0.4,0.3-0.7C4.9,13.6,4.8,13.3,4.6,13.2z"/>
			<path class="st2" d="M4.5,13.3C4.5,13.3,4.5,13.3,4.5,13.3c-0.1-0.2-0.2-0.3-0.3-0.4c-0.1,0.1-0.2,0.3-0.3,0.4c0,0,0,0,0,0
				c-0.1,0.1-0.2,0.3-0.2,0.6c0,0.2,0.1,0.5,0.2,0.6c0,0,0,0,0.1-0.1c0.1,0.1,0.2,0.2,0.3,0.3c0.1-0.1,0.2-0.2,0.3-0.3
				c0,0,0,0,0.1,0.1c0.1-0.1,0.2-0.3,0.2-0.6C4.8,13.6,4.7,13.4,4.5,13.3z"/>
			<path class="st3" d="M4.4,13.2C4.4,13.2,4.4,13.2,4.4,13.2c-0.1-0.1-0.1-0.2-0.2-0.3C4.1,13,4,13.1,4,13.2c0,0,0,0,0,0
				c-0.1,0.1-0.2,0.2-0.2,0.4c0,0.2,0.1,0.3,0.2,0.4c0,0,0,0,0,0c0,0.1,0.1,0.2,0.2,0.2c0.1-0.1,0.1-0.1,0.2-0.2c0,0,0,0,0,0
				c0.1-0.1,0.2-0.2,0.2-0.4C4.6,13.4,4.5,13.3,4.4,13.2z"/>
		</g>
		<rect x="3.4" y="11.6" class="st17" width="1.5" height="1.7"/>
		<rect x="3.4" y="11.6" class="st27" width="0.6" height="1.7"/>
		<path class="st28" d="M5.3,7.8c-1.6,1-2.9,3.1-2.6,5.5l3.5-3v-3L5.3,7.8z"/>
		<path class="st13" d="M2.7,13.3l3.5-2.1v-3L5.3,8.7C3.6,9.7,2.7,11.5,2.7,13.3L2.7,13.3z"/>
		<path class="st17" d="M5.2,10c-0.1,0-0.1,0-0.2,0c-0.2,0.2-0.6,0.5-0.9,1C4,11.1,4,11.2,4,11.4v1.1l0.1-0.1v-1.1
			c0-0.1,0-0.3,0.1-0.4c0.3-0.5,0.6-0.8,0.9-0.9C5.1,10.1,5.1,10.1,5.2,10c0,0.1,0,0.1,0,0.1v1.7l0.1-0.1v-1.6
			C5.3,10.1,5.2,10,5.2,10z"/>
	</g>
	<g>
		<g>
			<path class="st1" d="M11.4,13.2C11.4,13.2,11.4,13.2,11.4,13.2c0.1-0.2,0.3-0.4,0.4-0.5c0.2,0.1,0.3,0.3,0.4,0.6c0,0,0,0,0,0
				c0.2,0.1,0.3,0.4,0.3,0.7c0,0.3-0.1,0.6-0.3,0.7c0,0-0.1,0-0.1-0.1c-0.1,0.2-0.2,0.3-0.3,0.4c-0.1-0.1-0.3-0.3-0.3-0.4
				c0,0-0.1,0.1-0.1,0.1c-0.2-0.1-0.3-0.4-0.3-0.7C11.1,13.6,11.2,13.3,11.4,13.2z"/>
			<path class="st2" d="M11.5,13.3C11.5,13.3,11.5,13.3,11.5,13.3c0.1-0.2,0.2-0.3,0.3-0.4c0.1,0.1,0.2,0.3,0.3,0.4c0,0,0,0,0,0
				c0.1,0.1,0.2,0.3,0.2,0.6c0,0.2-0.1,0.5-0.2,0.6c0,0,0,0-0.1-0.1c-0.1,0.1-0.2,0.2-0.3,0.3c-0.1-0.1-0.2-0.2-0.3-0.3
				c0,0,0,0-0.1,0.1c-0.1-0.1-0.2-0.3-0.2-0.6C11.2,13.6,11.3,13.4,11.5,13.3z"/>
			<path class="st3" d="M11.6,13.2C11.6,13.2,11.6,13.2,11.6,13.2c0.1-0.1,0.1-0.2,0.2-0.3c0.1,0.1,0.2,0.2,0.2,0.3c0,0,0,0,0,0
				c0.1,0.1,0.2,0.2,0.2,0.4c0,0.2-0.1,0.3-0.2,0.4c0,0,0,0,0,0c0,0.1-0.1,0.2-0.2,0.2c-0.1-0.1-0.1-0.1-0.2-0.2c0,0,0,0,0,0
				c-0.1-0.1-0.2-0.2-0.2-0.4C11.4,13.4,11.5,13.3,11.6,13.2z"/>
		</g>
		<rect x="11.1" y="11.6" class="st17" width="1.5" height="1.7"/>
		<rect x="11.9" y="11.6" class="st27" width="0.6" height="1.7"/>
		<path class="st28" d="M10.7,7.8c1.6,1,2.9,3.1,2.6,5.5l-3.5-3v-3L10.7,7.8z"/>
		<path class="st13" d="M13.3,13.3l-3.5-2.1v-3l0.9,0.5C12.4,9.7,13.3,11.5,13.3,13.3L13.3,13.3z"/>
		<path class="st17" d="M10.8,10c0.1,0,0.1,0,0.2,0c0.2,0.2,0.6,0.5,0.9,1c0.1,0.1,0.1,0.3,0.1,0.4v1.1l-0.1-0.1v-1.1
			c0-0.1,0-0.3-0.1-0.4c-0.3-0.5-0.6-0.8-0.9-0.9C10.9,10.1,10.9,10.1,10.8,10c0,0.1,0,0.1,0,0.1v1.7l-0.1-0.1v-1.6
			C10.7,10.1,10.8,10,10.8,10z"/>
	</g>
</g>
<g>
	<g>
		<path class="st1" d="M9,27.3C8.9,27.3,8.9,27.3,9,27.3c-0.3-0.6-0.6-1.1-1-1.4c-0.4,0.3-0.7,0.8-1,1.4c0,0,0,0-0.1-0.1
			c-0.5,0.4-0.8,1.1-0.8,1.9c0,0.8,0.3,1.5,0.8,1.9C7,31,7,31,7.1,30.9c0.2,0.5,0.5,0.8,0.8,1.1c0.3-0.3,0.6-0.7,0.8-1.1
			C8.8,31,8.9,31,9,31.1c0.5-0.4,0.8-1.1,0.8-1.9C9.7,28.4,9.4,27.7,9,27.3z"/>
		<path class="st2" d="M8.7,27.7C8.7,27.7,8.7,27.7,8.7,27.7c-0.2-0.4-0.5-0.8-0.8-1.1c-0.3,0.3-0.6,0.6-0.7,1.1c0,0,0,0,0,0
			c-0.4,0.3-0.6,0.8-0.6,1.5s0.2,1.2,0.6,1.5c0.1,0,0.1-0.1,0.2-0.1c0.2,0.3,0.4,0.6,0.6,0.9c0.3-0.2,0.5-0.5,0.6-0.9
			c0,0.1,0.1,0.1,0.2,0.2c0.4-0.3,0.6-0.8,0.6-1.5C9.3,28.5,9.1,28,8.7,27.7z"/>
		<path class="st3" d="M8.5,27.4C8.5,27.4,8.5,27.4,8.5,27.4c-0.2-0.3-0.4-0.6-0.6-0.8c-0.2,0.2-0.4,0.5-0.6,0.8c0,0,0,0,0,0
			c-0.3,0.2-0.4,0.6-0.4,1.1s0.2,0.9,0.4,1.1c0,0,0.1-0.1,0.1-0.1c0.1,0.3,0.3,0.5,0.5,0.6c0.2-0.2,0.4-0.4,0.5-0.6
			c0,0,0.1,0.1,0.1,0.1C8.8,29.3,9,28.9,9,28.5C9,28,8.8,27.6,8.5,27.4z"/>
	</g>
	<g>
		<g>
			<path class="st1" d="M4.6,27.5C4.6,27.5,4.6,27.5,4.6,27.5c-0.1-0.2-0.3-0.5-0.5-0.6c-0.2,0.2-0.3,0.4-0.4,0.6c0,0,0,0,0,0
				c-0.2,0.2-0.3,0.5-0.3,0.8c0,0.4,0.1,0.7,0.3,0.8c0,0,0.1-0.1,0.1-0.1c0.1,0.2,0.2,0.4,0.4,0.5c0.1-0.1,0.3-0.3,0.4-0.5
				c0,0,0.1,0.1,0.1,0.1c0.2-0.2,0.3-0.5,0.3-0.8C4.9,27.9,4.8,27.6,4.6,27.5z"/>
			<path class="st2" d="M4.5,27.6C4.5,27.6,4.5,27.6,4.5,27.6c-0.1-0.2-0.2-0.4-0.4-0.5c-0.1,0.1-0.3,0.3-0.3,0.5c0,0,0,0,0,0
				c-0.2,0.1-0.3,0.4-0.3,0.6c0,0.3,0.1,0.5,0.3,0.6c0,0,0,0,0.1-0.1C3.9,29,4,29.1,4.1,29.2c0.1-0.1,0.2-0.2,0.3-0.4
				c0,0,0,0,0.1,0.1c0.2-0.1,0.3-0.4,0.3-0.6C4.7,28,4.6,27.8,4.5,27.6z"/>
			<path class="st3" d="M4.4,27.5C4.4,27.5,4.4,27.5,4.4,27.5c-0.1-0.1-0.2-0.3-0.3-0.4c-0.1,0.1-0.2,0.2-0.2,0.4c0,0,0,0,0,0
				c-0.1,0.1-0.2,0.3-0.2,0.5s0.1,0.4,0.2,0.5c0,0,0,0,0,0C4,28.5,4,28.6,4.1,28.7c0.1-0.1,0.2-0.2,0.2-0.3c0,0,0,0,0.1,0.1
				c0.1-0.1,0.2-0.3,0.2-0.5C4.6,27.8,4.5,27.6,4.4,27.5z"/>
		</g>
		<g>
			<polygon class="st29" points="4.6,27.5 3.4,28 3.4,25 4.6,25 			"/>
			<polygon class="st30" points="4,25 3.4,25 3.4,28 4,27.8 			"/>
		</g>
		<polygon class="st28" points="5.5,20.8 2.6,22 2.6,26.3 6.1,25 		"/>
		<polygon class="st13" points="5.5,21.7 2.6,22.9 2.6,27.2 6.1,25.9 		"/>
		<polygon class="st28" points="4.7,26.4 4.7,24.6 3.3,25.1 3.3,27 3.5,26.9 3.5,25.2 4.6,24.8 4.6,26.5 		"/>
		<path class="st28" d="M2.6,23.6c0.9-0.3,2.7-1,2.9-1.1l0-0.1l0,0c0,0-2,0.7-2.9,1.1C2.6,23.4,2.6,23.6,2.6,23.6z"/>
	</g>
	<g>
		<g>
			<path class="st1" d="M11.4,27.5C11.4,27.5,11.4,27.5,11.4,27.5c0.1-0.2,0.3-0.5,0.5-0.6c0.2,0.2,0.3,0.4,0.4,0.6c0,0,0,0,0,0
				c0.2,0.2,0.3,0.5,0.3,0.8c0,0.4-0.1,0.7-0.3,0.8c0,0-0.1-0.1-0.1-0.1c-0.1,0.2-0.2,0.4-0.4,0.5c-0.1-0.1-0.3-0.3-0.4-0.5
				c0,0-0.1,0.1-0.1,0.1c-0.2-0.2-0.3-0.5-0.3-0.8C11.1,27.9,11.2,27.6,11.4,27.5z"/>
			<path class="st2" d="M11.5,27.6C11.5,27.6,11.5,27.6,11.5,27.6c0.1-0.2,0.2-0.4,0.4-0.5c0.1,0.1,0.3,0.3,0.3,0.5c0,0,0,0,0,0
				c0.2,0.1,0.3,0.4,0.3,0.6c0,0.3-0.1,0.5-0.3,0.6c0,0,0,0-0.1-0.1c-0.1,0.2-0.2,0.3-0.3,0.4c-0.1-0.1-0.2-0.2-0.3-0.4
				c0,0,0,0-0.1,0.1c-0.2-0.1-0.3-0.4-0.3-0.6C11.3,28,11.4,27.8,11.5,27.6z"/>
			<path class="st3" d="M11.6,27.5C11.6,27.5,11.6,27.5,11.6,27.5c0.1-0.1,0.2-0.3,0.3-0.4c0.1,0.1,0.2,0.2,0.2,0.4c0,0,0,0,0,0
				c0.1,0.1,0.2,0.3,0.2,0.5s-0.1,0.4-0.2,0.5c0,0,0,0,0,0c-0.1,0.1-0.1,0.2-0.2,0.3c-0.1-0.1-0.2-0.2-0.2-0.3c0,0,0,0-0.1,0.1
				c-0.1-0.1-0.2-0.3-0.2-0.5C11.4,27.8,11.5,27.6,11.6,27.5z"/>
		</g>
		<g>
			<polygon class="st29" points="11.3,27.5 12.6,28 12.6,25 11.3,25 			"/>
			<polygon class="st30" points="12,25 12.6,25 12.6,28 12,27.8 			"/>
		</g>
		<polygon class="st28" points="10.5,20.8 13.4,22 13.4,26.3 9.9,25 		"/>
		<polygon class="st13" points="10.5,21.7 13.4,22.9 13.4,27.2 9.9,25.9 		"/>
		<polygon class="st28" points="11.3,26.4 11.3,24.6 12.7,25.1 12.7,27 12.5,26.9 12.5,25.2 11.4,24.8 11.4,26.5 		"/>
		<path class="st28" d="M13.4,23.6c-0.9-0.3-2.7-1-2.9-1.1l0-0.1l0,0c0,0,2,0.7,2.9,1.1V23.6z"/>
	</g>
	<ellipse class="st4" cx="7.9" cy="22.6" rx="3" ry="6.6"/>
	<path class="st31" d="M7.9,16c-1.8,1.6-3,4-3,6.6s1.2,5,3,6.6c-1.1-2.5-1.5-4-1.5-6.6C6.5,20.2,6.6,18.2,7.9,16z"/>
	<path class="st32" d="M7.9,16c1.8,1.6,3,4,3,6.6s-1.2,5-3,6.6c1.1-2.5,1.5-4,1.5-6.6C9.4,20.2,9.2,18.2,7.9,16z"/>
	<path class="st13" d="M8,18.7c0,0-2,0.5-2,2.3c0,0,1.1-0.7,2-0.7s2,0.7,2,0.7C10.1,19.2,8,18.7,8,18.7z"/>
	<g>
		<path class="st30" d="M8.5,18.9C8.2,18.8,8,18.7,8,18.7S6,19.2,6,21c0,0,0.4-0.2,0.9-0.4C7.1,19.6,8,19.1,8.5,18.9z"/>
	</g>
	<path class="st21" d="M9.7,22.2c-1-0.5-2.2-0.5-3.3,0c-0.6,0.3-1,0.6-1.4,0.9c0,0.1,0,0.2,0,0.4c0.4-0.4,0.9-0.7,1.5-1
		c0.9-0.5,2.1-0.5,3,0c0.5,0.3,1,0.6,1.4,0.9c0-0.1,0-0.2,0-0.4C10.6,22.7,10.1,22.5,9.7,22.2z"/>
</g>
<g>
	<g>
		<path class="st1" d="M9.2,43.2C9.2,43.2,9.2,43.2,9.2,43.2c-0.3-0.6-0.6-1.1-1.1-1.4c-0.4,0.3-0.8,0.9-1,1.5c0,0,0,0-0.1-0.1
			c-0.5,0.4-0.8,1.1-0.8,1.9c0,0.8,0.3,1.5,0.8,1.9c0.1-0.1,0.1-0.1,0.2-0.2c0.2,0.5,0.5,0.8,0.8,1.1c0.3-0.3,0.6-0.7,0.8-1.1
			c0.1,0.1,0.1,0.1,0.2,0.2C9.7,46.7,10,46,10,45.1C10,44.3,9.7,43.6,9.2,43.2z"/>
		<path class="st2" d="M9,43.6C8.9,43.6,8.9,43.6,9,43.6c-0.2-0.4-0.5-0.8-0.8-1.1c-0.3,0.3-0.6,0.7-0.8,1.1c0,0,0,0,0,0
			c-0.4,0.3-0.6,0.8-0.6,1.5c0,0.6,0.2,1.2,0.6,1.5c0.1,0,0.1-0.1,0.2-0.2c0.2,0.4,0.4,0.7,0.6,0.9c0.3-0.2,0.5-0.5,0.6-0.9
			c0.1,0.1,0.1,0.1,0.2,0.2c0.4-0.3,0.6-0.8,0.6-1.5C9.6,44.4,9.3,43.9,9,43.6z"/>
		<path class="st3" d="M8.8,43.3C8.7,43.3,8.7,43.3,8.8,43.3c-0.2-0.3-0.4-0.6-0.6-0.8c-0.2,0.2-0.4,0.5-0.6,0.8c0,0,0,0,0,0
			c-0.3,0.2-0.4,0.6-0.4,1.1c0,0.5,0.2,0.9,0.4,1.1c0,0,0.1-0.1,0.1-0.1C7.8,45.7,8,45.9,8.2,46c0.2-0.2,0.4-0.4,0.5-0.6
			c0,0,0.1,0.1,0.1,0.1c0.3-0.2,0.4-0.6,0.4-1.1C9.2,43.9,9,43.5,8.8,43.3z"/>
	</g>
	<g>
		<path class="st1" d="M4,43.8C4,43.8,3.9,43.8,4,43.8c-0.1-0.2-0.3-0.4-0.4-0.6c-0.2,0.1-0.3,0.3-0.4,0.6c0,0,0,0,0,0
			c-0.2,0.2-0.3,0.4-0.3,0.8c0,0.3,0.1,0.6,0.3,0.8c0,0,0.1-0.1,0.1-0.1c0.1,0.2,0.2,0.3,0.3,0.5c0.1-0.1,0.3-0.3,0.3-0.5
			c0,0,0.1,0.1,0.1,0.1c0.2-0.2,0.3-0.4,0.3-0.8C4.3,44.2,4.1,43.9,4,43.8z"/>
		<path class="st2" d="M3.9,43.9C3.9,43.9,3.8,44,3.9,43.9c-0.1-0.2-0.2-0.3-0.3-0.4c-0.1,0.1-0.2,0.3-0.3,0.5c0,0,0,0,0,0
			C3.1,44.1,3,44.3,3,44.5c0,0.3,0.1,0.5,0.2,0.6c0,0,0,0,0.1-0.1c0.1,0.1,0.2,0.3,0.3,0.3c0.1-0.1,0.2-0.2,0.3-0.4c0,0,0,0,0.1,0.1
			C4,45,4.1,44.8,4.1,44.5S4,44.1,3.9,43.9z"/>
		<path class="st3" d="M3.8,43.8C3.8,43.8,3.8,43.8,3.8,43.8c-0.1-0.1-0.1-0.2-0.2-0.3c-0.1,0.1-0.2,0.2-0.2,0.3c0,0,0,0,0,0
			c-0.1,0.1-0.2,0.3-0.2,0.4c0,0.2,0.1,0.4,0.2,0.4c0,0,0,0,0,0c0,0.1,0.1,0.2,0.2,0.3c0.1-0.1,0.1-0.2,0.2-0.3c0,0,0,0,0,0
			C3.9,44.6,4,44.5,4,44.3C4,44.1,3.9,43.9,3.8,43.8z"/>
	</g>
	<g>
		<path class="st1" d="M13,43.8C13,43.8,13,43.8,13,43.8c-0.1-0.2-0.3-0.4-0.4-0.6c-0.2,0.1-0.3,0.3-0.4,0.6c0,0,0,0,0,0
			c-0.2,0.2-0.3,0.4-0.3,0.8c0,0.3,0.1,0.6,0.3,0.8c0,0,0.1-0.1,0.1-0.1c0.1,0.2,0.2,0.3,0.3,0.5c0.1-0.1,0.3-0.3,0.3-0.5
			c0,0,0.1,0.1,0.1,0.1c0.2-0.2,0.3-0.4,0.3-0.8C13.3,44.2,13.2,43.9,13,43.8z"/>
		<path class="st2" d="M12.9,43.9C12.9,43.9,12.9,44,12.9,43.9c-0.1-0.2-0.2-0.3-0.3-0.4c-0.1,0.1-0.2,0.3-0.3,0.5c0,0,0,0,0,0
			c-0.1,0.1-0.2,0.3-0.2,0.6c0,0.3,0.1,0.5,0.2,0.6c0,0,0,0,0.1-0.1c0.1,0.1,0.2,0.3,0.3,0.3c0.1-0.1,0.2-0.2,0.3-0.4
			c0,0,0,0,0.1,0.1c0.1-0.1,0.2-0.3,0.2-0.6S13,44.1,12.9,43.9z"/>
		<path class="st3" d="M12.8,43.8C12.8,43.8,12.8,43.8,12.8,43.8c-0.1-0.1-0.1-0.2-0.2-0.3c-0.1,0.1-0.2,0.2-0.2,0.3c0,0,0,0,0,0
			c-0.1,0.1-0.2,0.3-0.2,0.4c0,0.2,0.1,0.4,0.2,0.4c0,0,0,0,0,0c0,0.1,0.1,0.2,0.2,0.3c0.1-0.1,0.1-0.2,0.2-0.3c0,0,0,0,0,0
			c0.1-0.1,0.2-0.3,0.2-0.4C13,44.1,12.9,43.9,12.8,43.8z"/>
	</g>
	<g>
		<polygon class="st33" points="12.1,44.2 13.1,44.2 14,41.4 11.2,41.4 		"/>
		<polygon class="st34" points="14,41.4 13.1,44.2 12.6,44.2 13.5,41.4 		"/>
		<polygon class="st33" points="11.7,43.2 11.5,42.4 13.7,42.4 13.4,43.2 		"/>
		<polygon class="st33" points="4.1,44.2 3,44.2 2.1,41.4 4.9,41.4 		"/>
		<polygon class="st34" points="2.1,41.4 3,44.2 3.6,44.2 2.7,41.4 		"/>
		<polygon class="st33" points="4.4,43.2 4.6,42.4 2.4,42.4 2.7,43.2 		"/>
		<path class="st8" d="M15.7,42l-7.4-9.8c-0.2-0.2-0.5-0.2-0.7,0L0.3,42c-0.2,0.3,0,0.8,0.3,0.8h14.8C15.8,42.8,16,42.3,15.7,42z"/>
		<path class="st35" d="M8,32c-0.1,0-0.3,0.1-0.3,0.2L0.3,42c-0.2,0.3,0,0.8,0.3,0.8H8V32z"/>
		<g>
			<path class="st15" d="M8,34.9c0,0-2.4,1.3-2.4,4.5s0,5.2,0,5.2h4.8c0,0,0-2,0-5.2C10.4,36.2,8,34.9,8,34.9z"/>
			<path class="st16" d="M5.6,39.4c0,3.2,0,5.2,0,5.2h2.5C8.2,41.4,8,34.9,8,34.9S5.6,36.2,5.6,39.4z"/>
			<path class="st17" d="M8,34.9c0,0-2.4,1.3-2.4,4.5s0,5.2,0,5.2h0.8c0,0,0-2,0-5.2C6.4,36.2,8,34.9,8,34.9z"/>
			<path class="st18" d="M8,34.9c0,0,2.4,1.3,2.4,4.5s0,5.2,0,5.2H9.6c0,0,0-2,0-5.2C9.6,36.2,8,34.9,8,34.9z"/>
		</g>
		<path class="st36" d="M4.8,42.8v-3.7c0-0.1-0.1-0.2-0.2-0.3c-0.1,0-0.3,0-0.3,0.1l-2,2.6c0,0.1-0.1,0.1-0.1,0.2v1h0.1v-1
			c0,0,0-0.1,0-0.1l2-2.6C4.5,39,4.5,39,4.6,39c0.1,0,0.1,0.1,0.1,0.2v3.7H4.8z"/>
		<path class="st13" d="M8.1,37.5c0,0-1.9,0.5-1.9,2.1c0,0,1-0.6,1.9-0.6c0.9,0,1.9,0.6,1.9,0.6C10,38,8.1,37.5,8.1,37.5z"/>
		<g>
			<path class="st30" d="M8.5,37.7c-0.2-0.1-0.4-0.2-0.4-0.2S6.2,38,6.2,39.7c0,0,0.4-0.2,0.9-0.4C7.3,38.4,8,37.9,8.5,37.7z"/>
		</g>
		<path class="st37" d="M11.3,42.8v-3.7c0-0.1,0.1-0.2,0.2-0.3c0.1,0,0.3,0,0.3,0.1l2,2.6c0,0.1,0.1,0.1,0.1,0.2v1h-0.1v-1
			c0,0,0-0.1,0-0.1l-2-2.6C11.7,39,11.6,39,11.6,39c-0.1,0-0.1,0.1-0.1,0.2v3.7L11.3,42.8L11.3,42.8z"/>
	</g>
</g>
<g>
	<g>
		<g>
			<path class="st1" d="M24.6,13.1C24.6,13.1,24.6,13.1,24.6,13.1c-0.2-0.3-0.4-0.7-0.6-0.9c-0.3,0.2-0.5,0.5-0.6,0.9c0,0,0,0,0,0
				c-0.3,0.2-0.5,0.7-0.5,1.2c0,0.5,0.2,0.9,0.5,1.2c0,0,0.1-0.1,0.1-0.1c0.1,0.3,0.3,0.5,0.5,0.7c0.2-0.2,0.4-0.4,0.5-0.7
				c0,0,0.1,0.1,0.1,0.1c0.3-0.2,0.5-0.7,0.5-1.2C25.1,13.8,24.9,13.3,24.6,13.1z"/>
			<path class="st2" d="M24.5,13.3C24.5,13.3,24.5,13.4,24.5,13.3c-0.1-0.3-0.3-0.5-0.5-0.7c-0.2,0.2-0.4,0.4-0.5,0.7c0,0,0,0,0,0
				c-0.2,0.2-0.4,0.5-0.4,0.9c0,0.4,0.1,0.7,0.4,0.9c0,0,0.1-0.1,0.1-0.1c0.1,0.2,0.2,0.4,0.4,0.5c0.2-0.1,0.3-0.3,0.4-0.5
				c0,0,0.1,0.1,0.1,0.1c0.2-0.2,0.4-0.5,0.4-0.9C24.9,13.9,24.7,13.5,24.5,13.3z"/>
			<path class="st38" d="M24.4,13.2C24.4,13.2,24.4,13.2,24.4,13.2c-0.1-0.2-0.2-0.4-0.4-0.5c-0.1,0.1-0.3,0.3-0.3,0.5c0,0,0,0,0,0
				c-0.2,0.1-0.3,0.4-0.3,0.7s0.1,0.5,0.3,0.7c0,0,0,0,0.1-0.1c0.1,0.2,0.2,0.3,0.3,0.4c0.1-0.1,0.2-0.2,0.3-0.4c0,0,0,0.1,0.1,0.1
				c0.2-0.1,0.3-0.4,0.3-0.7C24.6,13.5,24.5,13.3,24.4,13.2z"/>
		</g>
		<g>
			<path class="st1" d="M19.9,11.1C19.9,11.1,19.9,11.1,19.9,11.1c-0.2-0.3-0.4-0.7-0.6-0.9c-0.3,0.2-0.5,0.5-0.6,0.9c0,0,0,0,0,0
				c-0.3,0.2-0.5,0.7-0.5,1.2c0,0.5,0.2,0.9,0.5,1.2c0,0,0.1-0.1,0.1-0.1c0.1,0.3,0.3,0.5,0.5,0.7c0.2-0.2,0.4-0.4,0.5-0.7
				c0,0,0.1,0.1,0.1,0.1c0.3-0.2,0.5-0.7,0.5-1.2C20.4,11.8,20.2,11.3,19.9,11.1z"/>
			<path class="st2" d="M19.8,11.3C19.8,11.3,19.8,11.3,19.8,11.3c-0.1-0.3-0.3-0.5-0.5-0.7c-0.2,0.2-0.4,0.4-0.5,0.7c0,0,0,0,0,0
				c-0.2,0.2-0.4,0.5-0.4,0.9c0,0.4,0.1,0.7,0.4,0.9c0,0,0.1-0.1,0.1-0.1c0.1,0.2,0.2,0.4,0.4,0.5c0.2-0.1,0.3-0.3,0.4-0.5
				c0,0,0.1,0.1,0.1,0.1c0.2-0.2,0.4-0.5,0.4-0.9C20.2,11.8,20,11.5,19.8,11.3z"/>
			<path class="st3" d="M19.7,11.1C19.7,11.2,19.6,11.2,19.7,11.1c-0.1-0.2-0.2-0.4-0.4-0.5C19.2,10.8,19,11,19,11.2c0,0,0,0,0,0
				c-0.2,0.1-0.3,0.4-0.3,0.7c0,0.3,0.1,0.5,0.3,0.7c0,0,0,0,0.1-0.1c0.1,0.2,0.2,0.3,0.3,0.4c0.1-0.1,0.2-0.2,0.3-0.4
				c0,0,0,0.1,0.1,0.1c0.2-0.1,0.3-0.4,0.3-0.7C19.9,11.5,19.8,11.3,19.7,11.1z"/>
		</g>
		<path class="st39" d="M17.6,8.9c-0.8,0.4-1.3,0.3-1.5,1.2c0,0.5,0.4,1,0.9,1h5.8V3.6C22.9,5.7,19.4,7.9,17.6,8.9z"/>
		<g>
			<path class="st3" d="M22.9,10.1h-6.8l0-0.2c0.2-0.8,0.7-1.6,1.5-2c1.9-1,5.3-3.2,5.3-5.3L22.9,10.1L22.9,10.1z"/>
			<g>
				<rect x="18.3" y="8" class="st3" width="2.1" height="1.7"/>
				<polygon class="st3" points="19.8,8 18.3,8 18.3,8.4 19.8,8.4 19.8,9.7 20.3,9.7 20.3,8.4 20.3,8 				"/>
			</g>
		</g>
		<g>
			<path class="st1" d="M28.1,11.1C28.1,11.1,28.1,11.1,28.1,11.1c0.2-0.3,0.4-0.7,0.6-0.9c0.3,0.2,0.5,0.5,0.6,0.9c0,0,0,0,0,0
				c0.3,0.2,0.5,0.7,0.5,1.2c0,0.5-0.2,0.9-0.5,1.2c0,0-0.1-0.1-0.1-0.1c-0.1,0.3-0.3,0.5-0.5,0.7c-0.2-0.2-0.4-0.4-0.5-0.7
				c0,0-0.1,0.1-0.1,0.1c-0.3-0.2-0.5-0.7-0.5-1.2C27.6,11.8,27.8,11.3,28.1,11.1z"/>
			<path class="st2" d="M28.2,11.3C28.2,11.3,28.2,11.3,28.2,11.3c0.1-0.3,0.3-0.5,0.5-0.7c0.2,0.2,0.4,0.4,0.5,0.7c0,0,0,0,0,0
				c0.2,0.2,0.4,0.5,0.4,0.9c0,0.4-0.1,0.7-0.4,0.9c0,0-0.1-0.1-0.1-0.1c-0.1,0.2-0.2,0.4-0.4,0.5c-0.2-0.1-0.3-0.3-0.4-0.5
				c0,0-0.1,0.1-0.1,0.1c-0.2-0.2-0.4-0.5-0.4-0.9C27.8,11.8,28,11.5,28.2,11.3z"/>
			<path class="st3" d="M28.3,11.1C28.3,11.2,28.4,11.2,28.3,11.1c0.1-0.2,0.2-0.4,0.4-0.5c0.1,0.1,0.3,0.3,0.3,0.5c0,0,0,0,0,0
				c0.2,0.1,0.3,0.4,0.3,0.7c0,0.3-0.1,0.5-0.3,0.7c0,0,0,0-0.1-0.1c-0.1,0.2-0.2,0.3-0.3,0.4c-0.1-0.1-0.2-0.2-0.3-0.4
				c0,0,0,0.1-0.1,0.1c-0.2-0.1-0.3-0.4-0.3-0.7C28.1,11.5,28.2,11.3,28.3,11.1z"/>
		</g>
		<path class="st39" d="M30.4,8.9c0.8,0.4,1.3,0.3,1.5,1.2c0,0.5-0.4,1-0.9,1h-5.8V3.6C25.1,5.7,28.6,7.9,30.4,8.9z"/>
		<g>
			<path class="st3" d="M25.1,10.1h6.8l0-0.2c-0.2-0.8-0.7-1.6-1.5-2c-1.9-1-5.3-3.2-5.3-5.3L25.1,10.1L25.1,10.1z"/>
			<g>
				<rect x="27.7" y="8" class="st3" width="2.1" height="1.7"/>
				<polygon class="st3" points="28.2,8 29.7,8 29.7,8.4 28.2,8.4 28.2,9.7 27.7,9.7 27.7,8.4 27.7,8 				"/>
			</g>
		</g>
		<g>
			<path class="st40" d="M24,0c0,0-2.7,1.5-2.7,5.2s0,5.9,0,5.9h5.5c0,0,0-2.2,0-5.9S24,0,24,0z"/>
			<path class="st4" d="M21.3,5.2c0,3.7,0,5.9,0,5.9h2.9C24.3,7.5,24,0,24,0S21.3,1.5,21.3,5.2z"/>
			<path class="st22" d="M24,0c0,0-2.7,1.5-2.7,5.2s0,5.9,0,5.9h0.9c0,0,0-2.2,0-5.9S24,0,24,0z"/>
			<path class="st41" d="M24,0c0,0,2.7,1.5,2.7,5.2s0,5.9,0,5.9h-0.9c0,0,0-2.2,0-5.9S24,0,24,0z"/>
		</g>
		<polygon class="st3" points="25.4,13.5 22.6,13.5 21.3,11.1 26.8,11.1 		"/>
		<polygon class="st3" points="21.3,11.1 22.6,13.5 23.5,13.5 22.2,11.1 		"/>
		<polygon class="st3" points="26.8,11.1 25.4,13.5 24.5,13.5 25.9,11.1 		"/>
		<rect x="21.3" y="7.5" class="st3" width="5.5" height="0.6"/>
		<rect x="21.3" y="9.1" class="st3" width="5.5" height="0.6"/>
	</g>
	<path class="st22" d="M24.1,2.6c0,0-1.7,0.4-1.7,1.9c0,0,0.9-0.6,1.7-0.6s1.7,0.6,1.7,0.6C25.8,3,24.1,2.6,24.1,2.6z"/>
</g>
<g>
	<g>
		<path class="st1" d="M24.7,29C24.7,29.1,24.7,29.1,24.7,29c-0.2-0.3-0.4-0.7-0.6-0.9c-0.3,0.2-0.5,0.5-0.6,0.9c0,0,0,0,0,0
			c-0.3,0.2-0.5,0.7-0.5,1.2s0.2,1,0.5,1.2c0,0,0.1-0.1,0.1-0.1c0.1,0.3,0.3,0.5,0.5,0.7c0.2-0.2,0.4-0.4,0.5-0.7
			c0,0,0.1,0.1,0.1,0.1c0.3-0.2,0.5-0.7,0.5-1.2C25.2,29.7,25,29.3,24.7,29z"/>
		<path class="st2" d="M24.5,29.3C24.5,29.3,24.5,29.3,24.5,29.3c-0.1-0.3-0.3-0.5-0.5-0.7c-0.2,0.2-0.4,0.4-0.5,0.7c0,0,0,0,0,0
			c-0.2,0.2-0.4,0.5-0.4,0.9s0.2,0.7,0.4,0.9c0,0,0.1-0.1,0.1-0.1c0.1,0.2,0.2,0.4,0.4,0.5c0.2-0.1,0.3-0.3,0.4-0.5
			c0,0,0.1,0.1,0.1,0.1c0.2-0.2,0.4-0.5,0.4-0.9C24.9,29.8,24.8,29.5,24.5,29.3z"/>
		<path class="st3" d="M24.4,29.1C24.4,29.1,24.4,29.1,24.4,29.1c-0.1-0.2-0.2-0.4-0.4-0.5c-0.1,0.1-0.3,0.3-0.3,0.5c0,0,0,0,0,0
			c-0.2,0.1-0.3,0.4-0.3,0.7s0.1,0.5,0.3,0.7c0,0,0,0,0.1-0.1c0.1,0.2,0.2,0.3,0.3,0.4c0.1-0.1,0.2-0.2,0.3-0.4c0,0,0,0.1,0.1,0.1
			c0.2-0.1,0.3-0.4,0.3-0.7S24.6,29.2,24.4,29.1z"/>
	</g>
	<polygon class="st3" points="25.1,29.4 22.9,29.4 22.2,26.2 25.9,26.2 	"/>
	<polygon class="st14" points="22.2,26.2 22.9,29.4 24.2,29.4 23.5,26.2 	"/>
	<path class="st3" d="M22,25.1c0,0-1.6,0.2-1.9-1.3h-0.9l1.4,5.1h1c0,0,0.3-2.3,1.2-2.5L22,25.1z"/>
	<polygon class="st14" points="19.3,23.8 20.6,28.9 21.1,28.9 19.8,23.8 	"/>
	<path class="st3" d="M26,25.1c0,0,1.6,0.2,1.9-1.3h0.9l-1.4,5.1h-1c0,0-0.3-2.3-1.2-2.5L26,25.1z"/>
	<polygon class="st14" points="28.7,23.8 27.4,28.9 26.9,28.9 28.2,23.8 	"/>
	<ellipse class="st42" cx="24" cy="22.2" rx="2.8" ry="6.2"/>
	<path class="st43" d="M24,16c-1.7,1.5-2.8,3.7-2.8,6.2s1.1,4.7,2.8,6.2c-1-2.3-1.4-3.7-1.4-6.2C22.6,19.9,22.8,18.1,24,16z"/>
	<path class="st44" d="M24,16c1.7,1.5,2.8,3.7,2.8,6.2s-1.1,4.7-2.8,6.2c1-2.3,1.4-3.7,1.4-6.2C25.4,19.9,25.3,18.1,24,16z"/>
	<g>
		<circle class="st9" cx="23.9" cy="22" r="2"/>
		<circle class="st45" cx="24" cy="21.8" r="2"/>
		<circle class="st17" cx="24" cy="21.8" r="1.5"/>
		<path class="st17" d="M22.8,21.9c0.1-0.7,0.6-1.2,1.3-1.3c0.5-0.1,0.9,0.1,1.3,0.4c-0.3-0.5-0.8-0.8-1.5-0.7
			c-0.7,0.1-1.2,0.6-1.3,1.3c-0.1,0.5,0.1,1,0.4,1.3C22.8,22.6,22.7,22.2,22.8,21.9z"/>
	</g>
	<path class="st21" d="M25.5,21.8c0-0.3-0.1-0.6-0.3-0.9L23.1,23c0.3,0.2,0.6,0.3,0.9,0.3c0.1,0,0.1,0,0.2,0l1.3-1.3
		C25.5,21.9,25.5,21.9,25.5,21.8z"/>
	<path class="st21" d="M22.5,21.8l1.5-1.5c-0.1,0-0.3,0-0.4,0.1l-1,1C22.6,21.5,22.5,21.6,22.5,21.8z"/>
	<path class="st21" d="M22.8,22.6l2.1-2.1c-0.1-0.1-0.3-0.2-0.5-0.2l-1.8,1.8C22.6,22.3,22.7,22.5,22.8,22.6z"/>
</g>
<g>
	<g>
		<path class="st1" d="M25.2,42.4C25.2,42.4,25.2,42.5,25.2,42.4c-0.3-0.7-0.7-1.3-1.2-1.7c-0.5,0.4-0.9,1-1.1,1.7c0,0,0,0-0.1-0.1
			c-0.5,0.4-0.9,1.3-0.9,2.3s0.4,1.8,0.9,2.3c0.1-0.1,0.2-0.1,0.2-0.2c0.3,0.5,0.6,1,1,1.3c0.4-0.3,0.7-0.8,1-1.3
			c0.1,0.1,0.2,0.2,0.2,0.2c0.5-0.4,0.9-1.3,0.9-2.3C26.2,43.7,25.8,42.9,25.2,42.4z"/>
		<path class="st2" d="M25,42.9C24.9,42.9,24.9,42.9,25,42.9c-0.3-0.5-0.6-1-0.9-1.3c-0.4,0.3-0.7,0.8-0.9,1.3c0,0,0,0-0.1,0
			c-0.4,0.3-0.7,1-0.7,1.7c0,0.7,0.3,1.4,0.7,1.7c0.1-0.1,0.1-0.1,0.2-0.2c0.2,0.4,0.4,0.8,0.8,1c0.3-0.3,0.6-0.6,0.8-1
			c0.1,0.1,0.1,0.1,0.2,0.2c0.4-0.3,0.7-1,0.7-1.7C25.7,43.9,25.4,43.2,25,42.9z"/>
		<path class="st3" d="M24.7,42.5C24.7,42.6,24.7,42.6,24.7,42.5c-0.2-0.4-0.4-0.7-0.7-0.9c-0.3,0.2-0.5,0.6-0.7,1c0,0,0,0,0,0
			c-0.3,0.3-0.5,0.7-0.5,1.3c0,0.5,0.2,1,0.5,1.3c0,0,0.1-0.1,0.1-0.1c0.1,0.3,0.3,0.6,0.6,0.7c0.2-0.2,0.4-0.4,0.6-0.8
			c0,0.1,0.1,0.1,0.1,0.1c0.3-0.3,0.5-0.7,0.5-1.3C25.2,43.3,25,42.8,24.7,42.5z"/>
	</g>
	<g>
		<g>
			<g>
				<g>
					<g>
						<rect x="19.6" y="42.9" class="st46" width="1.6" height="1.4"/>
						<rect x="19.6" y="42.9" class="st47" width="0.4" height="1.4"/>
						<rect x="20.8" y="42.9" class="st47" width="0.4" height="1.4"/>
					</g>
					<rect x="19.6" y="43.8" class="st48" width="1.6" height="0.2"/>
					<polygon class="st49" points="21.4,44.9 19.4,44.9 19.6,44.4 21.2,44.4 					"/>
					<polygon class="st50" points="19.6,44.4 19.4,44.9 19.8,44.9 20,44.4 					"/>
					<polygon class="st51" points="21.2,44.4 21.4,44.9 21,44.9 20.8,44.4 					"/>
				</g>
				<polygon class="st49" points="21,42.6 19.8,42.6 19.6,42.9 21.2,42.9 				"/>
				<polygon class="st51" points="21,42.6 21.2,42.9 20.8,42.9 20.6,42.6 				"/>
			</g>
			<polygon class="st50" points="19.8,42.6 19.6,42.9 20,42.9 20.2,42.6 			"/>
		</g>
		<g>
			<path class="st49" d="M21,42.3h-1.5v-3.4c0-0.4,0.3-0.7,0.7-0.7l0,0c0.4,0,0.7,0.3,0.7,0.7L21,42.3L21,42.3z"/>
			<path class="st52" d="M20.5,38.1c-0.1,0-0.1,0-0.2,0c-0.4,0-0.7,0.3-0.7,0.7v3.4H20v-3.4C20,38.5,20.2,38.2,20.5,38.1z"/>
		</g>
		<path class="st53" d="M21.8,43.1H19c-0.5,0-0.9-0.5-0.8-1l0,0c0-0.2,0.2-0.4,0.4-0.5c1-0.6,3.9-2.7,3.9-4.8l0.2,5.5
			C22.7,42.7,22.3,43.1,21.8,43.1z"/>
		<path class="st54" d="M18.5,42.4c1-0.6,3.9-2.7,3.9-4.8l0.1,4.9c0-0.1,0-0.1,0-0.2l-0.2-5.5c0,2.1-3,4.2-3.9,4.8
			c-0.2,0.1-0.3,0.3-0.4,0.5c0,0.2,0,0.4,0.1,0.5C18.3,42.5,18.4,42.4,18.5,42.4z"/>
	</g>
	<g>
		<g>
			<g>
				<g>
					<g>
						<rect x="26.8" y="42.9" class="st46" width="1.6" height="1.4"/>
						<rect x="28" y="42.9" class="st47" width="0.4" height="1.4"/>
						<rect x="26.8" y="42.9" class="st47" width="0.4" height="1.4"/>
					</g>
					<rect x="26.8" y="43.8" class="st48" width="1.6" height="0.2"/>
					<polygon class="st49" points="26.6,44.9 28.7,44.9 28.4,44.4 26.8,44.4 					"/>
					<polygon class="st50" points="28.4,44.4 28.7,44.9 28.2,44.9 28,44.4 					"/>
					<polygon class="st51" points="26.8,44.4 26.6,44.9 27,44.9 27.2,44.4 					"/>
				</g>
				<polygon class="st49" points="27,42.6 28.2,42.6 28.4,42.9 26.8,42.9 				"/>
				<polygon class="st51" points="27,42.6 26.8,42.9 27.2,42.9 27.4,42.6 				"/>
			</g>
			<polygon class="st50" points="28.2,42.6 28.4,42.9 28,42.9 27.8,42.6 			"/>
		</g>
		<g>
			<path class="st49" d="M27,42.3h1.5v-3.4c0-0.4-0.3-0.7-0.7-0.7l0,0c-0.4,0-0.7,0.3-0.7,0.7L27,42.3L27,42.3z"/>
			<path class="st52" d="M27.5,38.1c0.1,0,0.1,0,0.2,0c0.4,0,0.7,0.3,0.7,0.7v3.4H28v-3.4C28,38.5,27.8,38.2,27.5,38.1z"/>
		</g>
		<path class="st53" d="M26.2,43.1H29c0.5,0,0.9-0.5,0.8-1l0,0c0-0.2-0.2-0.4-0.4-0.5c-1-0.6-3.9-2.7-3.9-4.8l-0.2,5.5
			C25.3,42.7,25.7,43.1,26.2,43.1z"/>
		<path class="st54" d="M29.5,42.4c-1-0.6-3.9-2.7-3.9-4.8l-0.1,4.9c0-0.1,0-0.1,0-0.2l0.2-5.5c0,2.1,3,4.2,3.9,4.8
			c0.2,0.1,0.3,0.3,0.4,0.5c0,0.2,0,0.4-0.1,0.5C29.7,42.5,29.6,42.4,29.5,42.4z"/>
	</g>
	<g>
		<path class="st5" d="M24,32c0,0-2.3,1.2-2.3,4.3c0,3.1,0,6.8,0,6.8h4.5c0,0,0-3.8,0-6.8S24,32,24,32z"/>
		<path class="st6" d="M24,32c0,0-2.3,1.2-2.3,4.3c0,3.1,0,6.8,0,6.8h0.7c0,0,0-3.8,0-6.8S24,32,24,32z"/>
		<path class="st7" d="M24,32c0,0,2.3,1.2,2.3,4.3c0,3.1,0,6.8,0,6.8h-0.7c0,0,0-3.8,0-6.8S24,32,24,32z"/>
	</g>
	<path class="st21" d="M21.7,39h4.5c0-0.2,0-0.4,0-0.6h-4.5C21.7,38.6,21.7,38.8,21.7,39z"/>
	<path class="st21" d="M21.7,40.8h4.5c0-0.2,0-0.4,0-0.6h-4.5C21.7,40.4,21.7,40.6,21.7,40.8z"/>
	<g>
		<path class="st6" d="M24.3,43.1h-1.1v-2.9c0-0.3,0.2-0.6,0.6-0.6l0,0c0.3,0,0.6,0.2,0.6,0.6L24.3,43.1L24.3,43.1z"/>
		<path class="st7" d="M24.6,43.1h-1.1v-2.9c0-0.3,0.2-0.6,0.6-0.6l0,0c0.3,0,0.6,0.2,0.6,0.6L24.6,43.1L24.6,43.1z"/>
		<path class="st55" d="M24,39.6v3.5h0.5v-2.9C24.6,39.9,24.3,39.6,24,39.6z"/>
	</g>
	<path class="st13" d="M24,34.3c0,0-1.8,0.5-1.8,2.1c0,0,1-0.6,1.8-0.6c0.8,0,1.8,0.6,1.8,0.6C25.9,34.7,24,34.3,24,34.3z"/>
	<g>
		<path class="st30" d="M24.4,34.4c-0.2-0.1-0.4-0.1-0.4-0.1s-1.8,0.5-1.8,2.1c0,0,0.4-0.2,0.8-0.4C23.2,35.1,23.9,34.6,24.4,34.4z"
			/>
	</g>
</g>
</svg>
