<?xml version="1.0" encoding="utf-8"?>
<!-- Generator: Adobe Illustrator 25.2.0, SVG Export Plug-In . SVG Version: 6.00 Build 0)  -->
<svg version="1.1" id="Camada_1" xmlns="http://www.w3.org/2000/svg" xmlns:xlink="http://www.w3.org/1999/xlink" x="0px" y="0px"
	 viewBox="0 0 256 256" style="enable-background:new 0 0 256 256;" xml:space="preserve">
<style type="text/css">
	.st0{fill:#E13017;}
	.st1{fill:#F2B00A;}
	.st2{fill:#FEDC7A;}
	.st3{fill:#51749E;}
	.st4{fill:#3B5D7F;}
	.st5{fill:#6488BC;}
	.st6{fill:#4C6DA0;}
	.st7{fill:#FC7761;}
	.st8{fill:#E5604E;}
	.st9{fill:#F9968A;}
	.st10{fill:#FFFFFF;}
</style>
<g>
	<g>
		<path class="st0" d="M143.54,180.56c-0.36,0.29-0.7,0.61-1.05,0.93c-3.49-9.74-8.9-17.84-15.53-23.31
			c-6.6,5.44-11.99,13.51-15.48,23.19c-0.3-0.28-0.6-0.55-0.91-0.81c-7.37,6.08-12.33,17.4-12.33,30.4c0,13,4.97,24.32,12.33,30.4
			c1.11-0.92,2.17-1.97,3.16-3.12c3.39,7.27,7.92,13.36,13.24,17.75c5.35-4.41,9.9-10.56,13.3-17.89c1.03,1.2,2.12,2.3,3.28,3.26
			c7.37-6.08,12.33-17.4,12.33-30.4C155.88,197.97,150.91,186.64,143.54,180.56z"/>
		<path class="st1" d="M139.72,186.72c-0.27,0.23-0.54,0.47-0.8,0.71c-2.68-7.48-6.84-13.7-11.92-17.9
			c-5.07,4.18-9.21,10.37-11.89,17.81c-0.23-0.21-0.46-0.43-0.7-0.62c-5.66,4.67-9.47,13.36-9.47,23.35
			c0,9.98,3.81,18.68,9.47,23.35c0.86-0.71,1.66-1.51,2.43-2.4c2.6,5.58,6.08,10.26,10.16,13.63c4.11-3.39,7.6-8.11,10.21-13.73
			c0.79,0.92,1.63,1.77,2.52,2.5c5.66-4.67,9.47-13.36,9.47-23.35C149.19,200.08,145.37,191.39,139.72,186.72z"/>
		<path class="st2" d="M136.43,182.26c-0.2,0.17-0.4,0.35-0.6,0.53c-1.99-5.54-5.06-10.15-8.83-13.26
			c-3.75,3.1-6.82,7.68-8.81,13.19c-0.17-0.16-0.34-0.32-0.52-0.46c-4.19,3.46-7.01,9.9-7.01,17.29c0,7.39,2.83,13.83,7.01,17.29
			c0.63-0.52,1.23-1.12,1.8-1.77c1.93,4.13,4.5,7.6,7.53,10.09c3.04-2.51,5.63-6.01,7.56-10.17c0.59,0.68,1.21,1.31,1.87,1.85
			c4.19-3.46,7.01-9.9,7.01-17.29C143.45,192.16,140.62,185.72,136.43,182.26z"/>
	</g>
	<g>
		<g>
			<path class="st0" d="M73.19,183.26c-0.16,0.13-0.31,0.27-0.47,0.41c-1.55-4.33-3.96-7.94-6.91-10.37
				c-2.94,2.42-5.34,6.01-6.89,10.32c-0.13-0.12-0.27-0.25-0.41-0.36c-3.28,2.71-5.49,7.74-5.49,13.53c0,5.79,2.21,10.83,5.49,13.53
				c0.5-0.41,0.96-0.88,1.41-1.39c1.51,3.23,3.52,5.95,5.89,7.9c2.38-1.96,4.41-4.7,5.92-7.96c0.46,0.53,0.94,1.02,1.46,1.45
				c3.28-2.71,5.49-7.74,5.49-13.53C78.68,191.01,76.47,185.97,73.19,183.26z"/>
			<path class="st1" d="M71.49,186c-0.12,0.1-0.24,0.21-0.36,0.32c-1.19-3.33-3.04-6.1-5.31-7.97c-2.25,1.86-4.1,4.62-5.29,7.93
				c-0.1-0.09-0.21-0.19-0.31-0.28c-2.52,2.08-4.21,5.95-4.21,10.39c0,4.44,1.7,8.31,4.21,10.39c0.38-0.31,0.74-0.67,1.08-1.07
				c1.16,2.48,2.71,4.57,4.52,6.07c1.83-1.51,3.38-3.61,4.54-6.11c0.35,0.41,0.72,0.79,1.12,1.11c2.52-2.08,4.21-5.95,4.21-10.39
				C75.7,191.95,74.01,188.08,71.49,186z"/>
			<path class="st2" d="M70.03,184.02c-0.09,0.07-0.18,0.15-0.27,0.24c-0.88-2.46-2.25-4.52-3.93-5.9
				c-1.67,1.38-3.03,3.42-3.92,5.87c-0.08-0.07-0.15-0.14-0.23-0.21c-1.86,1.54-3.12,4.4-3.12,7.7c0,3.29,1.26,6.16,3.12,7.7
				c0.28-0.23,0.55-0.5,0.8-0.79c0.86,1.84,2,3.38,3.35,4.49c1.35-1.12,2.51-2.67,3.37-4.53c0.26,0.3,0.54,0.58,0.83,0.82
				c1.86-1.54,3.12-4.4,3.12-7.7C73.15,188.42,71.89,185.56,70.03,184.02z"/>
		</g>
		<g>
			<polygon class="st3" points="74.39,183.43 54.21,191.8 54.21,144.04 74.39,144.04 			"/>
			<polygon class="st4" points="63.32,144.04 54.21,144.04 54.21,191.8 63.32,188.02 			"/>
		</g>
		<polygon class="st5" points="87.91,76.57 42.25,95.32 42.25,164.52 97.15,143.86 		"/>
		<polygon class="st6" points="87.91,91.61 42.25,110.36 42.25,179.56 97.15,158.9 		"/>
		<polygon class="st5" points="75.18,167.17 75.18,137.03 53.42,145.81 53.42,175.36 55.76,174.48 55.76,147.39 72.84,140.49 
			72.84,168.05 		"/>
		<path class="st5" d="M42.25,120.87c14.36-5.43,43.5-16.55,47.21-17.96l-0.21-1.53l-0.3-0.78c-0.41,0.15-31.22,11.92-46.7,17.77
			V120.87z"/>
	</g>
	<g>
		<g>
			<path class="st0" d="M182.81,183.26c0.16,0.13,0.31,0.27,0.47,0.41c1.55-4.33,3.96-7.94,6.91-10.37
				c2.94,2.42,5.34,6.01,6.89,10.32c0.13-0.12,0.27-0.25,0.41-0.36c3.28,2.71,5.49,7.74,5.49,13.53c0,5.79-2.21,10.83-5.49,13.53
				c-0.5-0.41-0.96-0.88-1.41-1.39c-1.51,3.23-3.52,5.95-5.89,7.9c-2.38-1.96-4.41-4.7-5.92-7.96c-0.46,0.53-0.94,1.02-1.46,1.45
				c-3.28-2.71-5.49-7.74-5.49-13.53C177.32,191.01,179.53,185.97,182.81,183.26z"/>
			<path class="st1" d="M184.51,186c0.12,0.1,0.24,0.21,0.36,0.32c1.19-3.33,3.04-6.1,5.31-7.97c2.25,1.86,4.1,4.62,5.29,7.93
				c0.1-0.09,0.21-0.19,0.31-0.28c2.52,2.08,4.21,5.95,4.21,10.39c0,4.44-1.7,8.31-4.21,10.39c-0.38-0.31-0.74-0.67-1.08-1.07
				c-1.16,2.48-2.71,4.57-4.52,6.07c-1.83-1.51-3.38-3.61-4.54-6.11c-0.35,0.41-0.72,0.79-1.12,1.11
				c-2.52-2.08-4.21-5.95-4.21-10.39C180.3,191.95,181.99,188.08,184.51,186z"/>
			<path class="st2" d="M185.97,184.02c0.09,0.07,0.18,0.15,0.27,0.24c0.88-2.46,2.25-4.52,3.93-5.9c1.67,1.38,3.03,3.42,3.92,5.87
				c0.08-0.07,0.15-0.14,0.23-0.21c1.86,1.54,3.12,4.4,3.12,7.7c0,3.29-1.26,6.16-3.12,7.7c-0.28-0.23-0.55-0.5-0.8-0.79
				c-0.86,1.84-2,3.38-3.35,4.49c-1.35-1.12-2.51-2.67-3.37-4.53c-0.26,0.3-0.54,0.58-0.83,0.82c-1.86-1.54-3.12-4.4-3.12-7.7
				C182.85,188.42,184.11,185.56,185.97,184.02z"/>
		</g>
		<g>
			<polygon class="st3" points="181.61,183.43 201.79,191.8 201.79,144.04 181.61,144.04 			"/>
			<polygon class="st4" points="192.68,144.04 201.79,144.04 201.79,191.8 192.68,188.02 			"/>
		</g>
		<polygon class="st5" points="168.09,76.57 213.75,95.32 213.75,164.52 158.85,143.86 		"/>
		<polygon class="st6" points="168.09,91.61 213.75,110.36 213.75,179.56 158.85,158.9 		"/>
		<polygon class="st5" points="180.82,167.17 180.82,137.03 202.58,145.81 202.58,175.36 200.24,174.48 200.24,147.39 
			183.16,140.49 183.16,168.05 		"/>
		<path class="st5" d="M213.75,120.87c-14.36-5.43-43.5-16.55-47.21-17.96l0.21-1.53l0.3-0.78c0.41,0.15,31.22,11.92,46.7,17.77
			V120.87z"/>
	</g>
	<ellipse class="st7" cx="127.06" cy="105.83" rx="47.86" ry="105.83"/>
	<path class="st8" d="M127.06,0C97.73,25.85,79.2,63.66,79.2,105.83s18.53,79.98,47.86,105.83
		c-16.92-39.86-23.79-63.66-23.79-105.83C103.27,66.81,106.14,35.81,127.06,0z"/>
	<path class="st9" d="M127.06,0c29.33,25.85,47.86,63.66,47.86,105.83s-18.53,79.98-47.86,105.83
		c16.92-39.86,23.79-63.66,23.79-105.83C150.85,66.81,147.98,35.81,127.06,0z"/>
	<path class="st6" d="M128.56,43.64c0,0-32.28,8.32-32.28,36.85c0,0,17.56-10.81,32.28-10.81c14.72,0,32.28,10.81,32.28,10.81
		C160.84,51.96,128.56,43.64,128.56,43.64z"/>
	<g>
		<path class="st4" d="M135.6,46.24c-4.1-1.84-7.04-2.6-7.04-2.6s-32.28,8.32-32.28,36.85c0,0,6.45-3.96,14.8-7.08
			C114.25,58.11,127.3,49.96,135.6,46.24z"/>
	</g>
	<path class="st10" d="M154.67,99.52c-16.35-8.34-35.87-8.34-52.22,0c-8.88,4.53-16.48,9.41-23,14.53c0.11,1.9,0.28,3.78,0.47,5.66
		c6.81-5.66,14.93-11.07,24.66-16.03c15.02-7.66,32.95-7.66,47.97,0c8.42,4.29,15.64,8.92,21.84,13.76
		c0.15-1.87,0.28-3.74,0.36-5.62C168.9,107.52,162.25,103.39,154.67,99.52z"/>
</g>
</svg>
